<ttFont>
    <TTGlyph name=".notdef" xMin="193" yMin="0" xMax="1034" yMax="1462">
      <contour>
        <pt x="193" y="1462" on="1"/>
        <pt x="1034" y="1462" on="1"/>
        <pt x="1034" y="0" on="1"/>
        <pt x="193" y="0" on="1"/>
      </contour>
      <contour>
        <pt x="297" y="104" on="1"/>
        <pt x="930" y="104" on="1"/>
        <pt x="930" y="1358" on="1"/>
        <pt x="297" y="1358" on="1"/>
      </contour>
    </TTGlyph>
    <TTGlyph name="angle" xMin="104" yMin="0" xMax="1231" yMax="1055">
      <contour>
        <pt x="104" y="0" on="1"/>
        <pt x="104" y="102" on="1"/>
        <pt x="944" y="1055" on="1"/>
        <pt x="1047" y="950" on="1"/>
        <pt x="340" y="145" on="1"/>
        <pt x="1231" y="145" on="1"/>
        <pt x="1231" y="0" on="1"/>
      </contour>
    </TTGlyph>
    <TTGlyph name="approxequal" xMin="104" yMin="387" xMax="1067" yMax="1059">
      <contour>
        <pt x="336" y="508" on="1"/>
        <pt x="286" y="508" on="0"/>
        <pt x="164" y="447" on="0"/>
        <pt x="104" y="387" on="1"/>
        <pt x="104" y="547" on="1"/>
        <pt x="204" y="655" on="0"/>
        <pt x="348" y="655" on="1"/>
        <pt x="418" y="655" on="0"/>
        <pt x="537" y="624" on="0"/>
        <pt x="618" y="590" on="1"/>
        <pt x="745" y="535" on="0"/>
        <pt x="831" y="535" on="1"/>
        <pt x="884" y="535" on="0"/>
        <pt x="1008" y="596" on="0"/>
        <pt x="1067" y="655" on="1"/>
        <pt x="1067" y="498" on="1"/>
        <pt x="964" y="387" on="0"/>
        <pt x="821" y="387" on="1"/>
        <pt x="751" y="387" on="0"/>
        <pt x="631" y="418" on="0"/>
        <pt x="551" y="453" on="1"/>
        <pt x="424" y="508" on="0"/>
      </contour>
      <contour>
        <pt x="336" y="911" on="1"/>
        <pt x="285" y="911" on="0"/>
        <pt x="163" y="849" on="0"/>
        <pt x="104" y="791" on="1"/>
        <pt x="104" y="950" on="1"/>
        <pt x="205" y="1059" on="0"/>
        <pt x="348" y="1059" on="1"/>
        <pt x="416" y="1059" on="0"/>
        <pt x="529" y="1031" on="0"/>
        <pt x="618" y="993" on="1"/>
        <pt x="745" y="938" on="0"/>
        <pt x="831" y="938" on="1"/>
        <pt x="885" y="938" on="0"/>
        <pt x="1013" y="1002" on="0"/>
        <pt x="1067" y="1059" on="1"/>
        <pt x="1067" y="901" on="1"/>
        <pt x="965" y="791" on="0"/>
        <pt x="821" y="791" on="1"/>
        <pt x="749" y="791" on="0"/>
        <pt x="623" y="824" on="0"/>
        <pt x="551" y="856" on="1"/>
        <pt x="424" y="911" on="0"/>
      </contour>
    </TTGlyph>
    <TTGlyph name="arrowboth" xMin="418" yMin="100" xMax="1630" yMax="580">
      <contour>
        <pt x="641" y="297" on="1"/>
        <pt x="698" y="229" on="0"/>
        <pt x="760" y="100" on="1"/>
        <pt x="688" y="100" on="1"/>
        <pt x="561" y="250" on="0"/>
        <pt x="418" y="322" on="1"/>
        <pt x="418" y="358" on="1"/>
        <pt x="561" y="430" on="0"/>
        <pt x="688" y="580" on="1"/>
        <pt x="760" y="580" on="1"/>
        <pt x="698" y="451" on="0"/>
        <pt x="641" y="383" on="1"/>
        <pt x="1407" y="383" on="1"/>
        <pt x="1350" y="451" on="0"/>
        <pt x="1288" y="580" on="1"/>
        <pt x="1360" y="580" on="1"/>
        <pt x="1487" y="430" on="0"/>
        <pt x="1630" y="358" on="1"/>
        <pt x="1630" y="322" on="1"/>
        <pt x="1487" y="250" on="0"/>
        <pt x="1360" y="100" on="1"/>
        <pt x="1288" y="100" on="1"/>
        <pt x="1350" y="229" on="0"/>
        <pt x="1407" y="297" on="1"/>
      </contour>
    </TTGlyph>
    <TTGlyph name="arrowdblboth" xMin="418" yMin="-43" xMax="1630" yMax="723">
      <contour>
        <pt x="838" y="-43" on="1"/>
        <pt x="766" y="-43" on="1"/>
        <pt x="639" y="106" on="0"/>
        <pt x="418" y="322" on="1"/>
        <pt x="418" y="358" on="1"/>
        <pt x="639" y="573" on="0"/>
        <pt x="766" y="723" on="1"/>
        <pt x="838" y="723" on="1"/>
        <pt x="797" y="637" on="0"/>
        <pt x="705" y="498" on="1"/>
        <pt x="1343" y="498" on="1"/>
        <pt x="1251" y="637" on="0"/>
        <pt x="1210" y="723" on="1"/>
        <pt x="1282" y="723" on="1"/>
        <pt x="1409" y="573" on="0"/>
        <pt x="1630" y="358" on="1"/>
        <pt x="1630" y="322" on="1"/>
        <pt x="1409" y="106" on="0"/>
        <pt x="1282" y="-43" on="1"/>
        <pt x="1210" y="-43" on="1"/>
        <pt x="1251" y="41" on="0"/>
        <pt x="1343" y="182" on="1"/>
        <pt x="705" y="182" on="1"/>
        <pt x="797" y="41" on="0"/>
      </contour>
      <contour>
        <pt x="1452" y="340" on="1"/>
        <pt x="1401" y="412" on="1"/>
        <pt x="645" y="412" on="1"/>
        <pt x="596" y="340" on="1"/>
        <pt x="645" y="268" on="1"/>
        <pt x="1401" y="268" on="1"/>
      </contour>
    </TTGlyph>
    <TTGlyph name="arrowdbldown" xMin="129" yMin="-61" xMax="895" yMax="1151">
      <contour>
        <pt x="512" y="117" on="1"/>
        <pt x="584" y="166" on="1"/>
        <pt x="584" y="1151" on="1"/>
        <pt x="670" y="1151" on="1"/>
        <pt x="670" y="225" on="1"/>
        <pt x="809" y="317" on="0"/>
        <pt x="895" y="358" on="1"/>
        <pt x="895" y="287" on="1"/>
        <pt x="745" y="160" on="0"/>
        <pt x="530" y="-61" on="1"/>
        <pt x="494" y="-61" on="1"/>
        <pt x="279" y="160" on="0"/>
        <pt x="129" y="287" on="1"/>
        <pt x="129" y="358" on="1"/>
        <pt x="213" y="317" on="0"/>
        <pt x="354" y="225" on="1"/>
        <pt x="354" y="1151" on="1"/>
        <pt x="440" y="1151" on="1"/>
        <pt x="440" y="166" on="1"/>
      </contour>
    </TTGlyph>
    <TTGlyph name="arrowdblleft" xMin="418" yMin="-43" xMax="1630" yMax="723">
      <contour>
        <pt x="596" y="340" on="1"/>
        <pt x="645" y="268" on="1"/>
        <pt x="1630" y="268" on="1"/>
        <pt x="1630" y="182" on="1"/>
        <pt x="705" y="182" on="1"/>
        <pt x="797" y="41" on="0"/>
        <pt x="838" y="-43" on="1"/>
        <pt x="766" y="-43" on="1"/>
        <pt x="639" y="106" on="0"/>
        <pt x="418" y="322" on="1"/>
        <pt x="418" y="358" on="1"/>
        <pt x="639" y="573" on="0"/>
        <pt x="766" y="723" on="1"/>
        <pt x="838" y="723" on="1"/>
        <pt x="797" y="637" on="0"/>
        <pt x="705" y="498" on="1"/>
        <pt x="1630" y="498" on="1"/>
        <pt x="1630" y="412" on="1"/>
        <pt x="645" y="412" on="1"/>
      </contour>
    </TTGlyph>
    <TTGlyph name="arrowdblright" xMin="418" yMin="-43" xMax="1630" yMax="723">
      <contour>
        <pt x="1452" y="340" on="1"/>
        <pt x="1403" y="412" on="1"/>
        <pt x="418" y="412" on="1"/>
        <pt x="418" y="498" on="1"/>
        <pt x="1343" y="498" on="1"/>
        <pt x="1251" y="637" on="0"/>
        <pt x="1210" y="723" on="1"/>
        <pt x="1282" y="723" on="1"/>
        <pt x="1409" y="573" on="0"/>
        <pt x="1630" y="358" on="1"/>
        <pt x="1630" y="322" on="1"/>
        <pt x="1409" y="106" on="0"/>
        <pt x="1282" y="-43" on="1"/>
        <pt x="1210" y="-43" on="1"/>
        <pt x="1251" y="41" on="0"/>
        <pt x="1343" y="182" on="1"/>
        <pt x="418" y="182" on="1"/>
        <pt x="418" y="268" on="1"/>
        <pt x="1403" y="268" on="1"/>
      </contour>
    </TTGlyph>
    <TTGlyph name="arrowdblup" xMin="129" yMin="-61" xMax="895" yMax="1151">
      <contour>
        <pt x="512" y="973" on="1"/>
        <pt x="440" y="924" on="1"/>
        <pt x="440" y="-61" on="1"/>
        <pt x="354" y="-61" on="1"/>
        <pt x="354" y="864" on="1"/>
        <pt x="213" y="772" on="0"/>
        <pt x="129" y="731" on="1"/>
        <pt x="129" y="803" on="1"/>
        <pt x="279" y="930" on="0"/>
        <pt x="494" y="1151" on="1"/>
        <pt x="530" y="1151" on="1"/>
        <pt x="745" y="930" on="0"/>
        <pt x="895" y="803" on="1"/>
        <pt x="895" y="731" on="1"/>
        <pt x="809" y="772" on="0"/>
        <pt x="670" y="864" on="1"/>
        <pt x="670" y="-61" on="1"/>
        <pt x="584" y="-61" on="1"/>
        <pt x="584" y="924" on="1"/>
      </contour>
    </TTGlyph>
    <TTGlyph name="arrowdown" xMin="272" yMin="-61" xMax="752" yMax="1151">
      <contour>
        <pt x="555" y="162" on="1"/>
        <pt x="623" y="219" on="0"/>
        <pt x="752" y="281" on="1"/>
        <pt x="752" y="209" on="1"/>
        <pt x="602" y="82" on="0"/>
        <pt x="530" y="-61" on="1"/>
        <pt x="494" y="-61" on="1"/>
        <pt x="422" y="82" on="0"/>
        <pt x="272" y="209" on="1"/>
        <pt x="272" y="281" on="1"/>
        <pt x="401" y="219" on="0"/>
        <pt x="469" y="162" on="1"/>
        <pt x="469" y="1151" on="1"/>
        <pt x="555" y="1151" on="1"/>
      </contour>
    </TTGlyph>
    <TTGlyph name="arrowleft" xMin="418" yMin="100" xMax="1630" yMax="580">
      <contour>
        <pt x="641" y="297" on="1"/>
        <pt x="698" y="229" on="0"/>
        <pt x="760" y="100" on="1"/>
        <pt x="688" y="100" on="1"/>
        <pt x="561" y="250" on="0"/>
        <pt x="418" y="322" on="1"/>
        <pt x="418" y="358" on="1"/>
        <pt x="561" y="430" on="0"/>
        <pt x="688" y="580" on="1"/>
        <pt x="760" y="580" on="1"/>
        <pt x="698" y="451" on="0"/>
        <pt x="641" y="383" on="1"/>
        <pt x="1630" y="383" on="1"/>
        <pt x="1630" y="297" on="1"/>
      </contour>
    </TTGlyph>
    <TTGlyph name="arrowright" xMin="418" yMin="100" xMax="1630" yMax="580">
      <contour>
        <pt x="1407" y="383" on="1"/>
        <pt x="1350" y="451" on="0"/>
        <pt x="1288" y="580" on="1"/>
        <pt x="1360" y="580" on="1"/>
        <pt x="1487" y="430" on="0"/>
        <pt x="1630" y="358" on="1"/>
        <pt x="1630" y="322" on="1"/>
        <pt x="1487" y="250" on="0"/>
        <pt x="1360" y="100" on="1"/>
        <pt x="1288" y="100" on="1"/>
        <pt x="1350" y="229" on="0"/>
        <pt x="1407" y="297" on="1"/>
        <pt x="418" y="297" on="1"/>
        <pt x="418" y="383" on="1"/>
      </contour>
    </TTGlyph>
    <TTGlyph name="arrowup" xMin="272" yMin="-61" xMax="752" yMax="1151">
      <contour>
        <pt x="469" y="928" on="1"/>
        <pt x="401" y="870" on="0"/>
        <pt x="272" y="809" on="1"/>
        <pt x="272" y="881" on="1"/>
        <pt x="422" y="1008" on="0"/>
        <pt x="494" y="1151" on="1"/>
        <pt x="530" y="1151" on="1"/>
        <pt x="602" y="1008" on="0"/>
        <pt x="752" y="881" on="1"/>
        <pt x="752" y="809" on="1"/>
        <pt x="623" y="870" on="0"/>
        <pt x="555" y="928" on="1"/>
        <pt x="555" y="-61" on="1"/>
        <pt x="469" y="-61" on="1"/>
      </contour>
    </TTGlyph>
    <TTGlyph name="arrowupdn" xMin="272" yMin="-61" xMax="752" yMax="1151">
      <contour>
        <pt x="469" y="928" on="1"/>
        <pt x="401" y="870" on="0"/>
        <pt x="272" y="809" on="1"/>
        <pt x="272" y="881" on="1"/>
        <pt x="422" y="1008" on="0"/>
        <pt x="494" y="1151" on="1"/>
        <pt x="530" y="1151" on="1"/>
        <pt x="602" y="1008" on="0"/>
        <pt x="752" y="881" on="1"/>
        <pt x="752" y="809" on="1"/>
        <pt x="623" y="870" on="0"/>
        <pt x="555" y="928" on="1"/>
        <pt x="555" y="162" on="1"/>
        <pt x="623" y="219" on="0"/>
        <pt x="752" y="281" on="1"/>
        <pt x="752" y="209" on="1"/>
        <pt x="602" y="82" on="0"/>
        <pt x="530" y="-61" on="1"/>
        <pt x="494" y="-61" on="1"/>
        <pt x="422" y="82" on="0"/>
        <pt x="272" y="209" on="1"/>
        <pt x="272" y="281" on="1"/>
        <pt x="401" y="219" on="0"/>
        <pt x="469" y="162" on="1"/>
      </contour>
    </TTGlyph>
    <TTGlyph name="arrowupdnbse" xMin="272" yMin="-184" xMax="752" yMax="1151">
      <contour>
        <pt x="272" y="-104" on="1"/>
        <pt x="494" y="-104" on="1"/>
        <pt x="422" y="39" on="0"/>
        <pt x="272" y="166" on="1"/>
        <pt x="272" y="238" on="1"/>
        <pt x="401" y="176" on="0"/>
        <pt x="469" y="119" on="1"/>
        <pt x="469" y="928" on="1"/>
        <pt x="401" y="870" on="0"/>
        <pt x="272" y="809" on="1"/>
        <pt x="272" y="881" on="1"/>
        <pt x="422" y="1008" on="0"/>
        <pt x="494" y="1151" on="1"/>
        <pt x="530" y="1151" on="1"/>
        <pt x="602" y="1008" on="0"/>
        <pt x="752" y="881" on="1"/>
        <pt x="752" y="809" on="1"/>
        <pt x="623" y="870" on="0"/>
        <pt x="555" y="928" on="1"/>
        <pt x="555" y="119" on="1"/>
        <pt x="623" y="176" on="0"/>
        <pt x="752" y="238" on="1"/>
        <pt x="752" y="166" on="1"/>
        <pt x="602" y="39" on="0"/>
        <pt x="530" y="-104" on="1"/>
        <pt x="752" y="-104" on="1"/>
        <pt x="752" y="-184" on="1"/>
        <pt x="272" y="-184" on="1"/>
      </contour>
    </TTGlyph>
    <TTGlyph name="asteriskmath" xMin="104" yMin="362" xMax="840" yMax="1055">
      <contour>
        <pt x="539" y="786" on="1"/>
        <pt x="795" y="881" on="1"/>
        <pt x="840" y="739" on="1"/>
        <pt x="575" y="659" on="1"/>
        <pt x="745" y="446" on="1"/>
        <pt x="625" y="362" on="1"/>
        <pt x="469" y="586" on="1"/>
        <pt x="319" y="362" on="1"/>
        <pt x="199" y="446" on="1"/>
        <pt x="362" y="659" on="1"/>
        <pt x="104" y="739" on="1"/>
        <pt x="150" y="881" on="1"/>
        <pt x="408" y="786" on="1"/>
        <pt x="399" y="1055" on="1"/>
        <pt x="547" y="1055" on="1"/>
      </contour>
    </TTGlyph>
    <TTGlyph name="carriagereturn" xMin="186" yMin="-61" xMax="838" yMax="666">
      <contour>
        <pt x="752" y="221" on="1"/>
        <pt x="752" y="666" on="1"/>
        <pt x="838" y="666" on="1"/>
        <pt x="838" y="135" on="1"/>
        <pt x="410" y="135" on="1"/>
        <pt x="467" y="68" on="0"/>
        <pt x="528" y="-61" on="1"/>
        <pt x="457" y="-61" on="1"/>
        <pt x="330" y="88" on="0"/>
        <pt x="186" y="160" on="1"/>
        <pt x="186" y="197" on="1"/>
        <pt x="330" y="268" on="0"/>
        <pt x="457" y="418" on="1"/>
        <pt x="528" y="418" on="1"/>
        <pt x="467" y="289" on="0"/>
        <pt x="410" y="221" on="1"/>
      </contour>
    </TTGlyph>
    <TTGlyph name="circlemultiply" xMin="104" yMin="12" xMax="1526" yMax="1434">
      <contour>
        <pt x="104" y="723" on="1"/>
        <pt x="104" y="913" on="0"/>
        <pt x="294" y="1244" on="0"/>
        <pt x="625" y="1434" on="0"/>
        <pt x="815" y="1434" on="1"/>
        <pt x="1005" y="1434" on="0"/>
        <pt x="1336" y="1244" on="0"/>
        <pt x="1526" y="913" on="0"/>
        <pt x="1526" y="723" on="1"/>
        <pt x="1526" y="533" on="0"/>
        <pt x="1336" y="202" on="0"/>
        <pt x="1005" y="12" on="0"/>
        <pt x="815" y="12" on="1"/>
        <pt x="625" y="12" on="0"/>
        <pt x="294" y="202" on="0"/>
        <pt x="104" y="533" on="0"/>
      </contour>
      <contour>
        <pt x="252" y="723" on="1"/>
        <pt x="252" y="526" on="0"/>
        <pt x="373" y="373" on="1"/>
        <pt x="723" y="723" on="1"/>
        <pt x="373" y="1071" on="1"/>
        <pt x="252" y="918" on="0"/>
      </contour>
      <contour>
        <pt x="815" y="160" on="1"/>
        <pt x="1010" y="160" on="0"/>
        <pt x="1163" y="281" on="1"/>
        <pt x="815" y="629" on="1"/>
        <pt x="467" y="281" on="1"/>
        <pt x="620" y="160" on="0"/>
      </contour>
      <contour>
        <pt x="815" y="1286" on="1"/>
        <pt x="620" y="1286" on="0"/>
        <pt x="467" y="1165" on="1"/>
        <pt x="817" y="817" on="1"/>
        <pt x="1163" y="1163" on="1"/>
        <pt x="1013" y="1286" on="0"/>
      </contour>
      <contour>
        <pt x="1378" y="723" on="1"/>
        <pt x="1378" y="918" on="0"/>
        <pt x="1257" y="1071" on="1"/>
        <pt x="909" y="723" on="1"/>
        <pt x="1257" y="375" on="1"/>
        <pt x="1378" y="528" on="0"/>
      </contour>
    </TTGlyph>
    <TTGlyph name="circleplus" xMin="104" yMin="12" xMax="1526" yMax="1434">
      <contour>
        <pt x="104" y="723" on="1"/>
        <pt x="104" y="913" on="0"/>
        <pt x="294" y="1244" on="0"/>
        <pt x="625" y="1434" on="0"/>
        <pt x="815" y="1434" on="1"/>
        <pt x="1005" y="1434" on="0"/>
        <pt x="1336" y="1244" on="0"/>
        <pt x="1526" y="913" on="0"/>
        <pt x="1526" y="723" on="1"/>
        <pt x="1526" y="533" on="0"/>
        <pt x="1336" y="202" on="0"/>
        <pt x="1005" y="12" on="0"/>
        <pt x="815" y="12" on="1"/>
        <pt x="625" y="12" on="0"/>
        <pt x="294" y="202" on="0"/>
        <pt x="104" y="533" on="0"/>
      </contour>
      <contour>
        <pt x="256" y="657" on="1"/>
        <pt x="280" y="463" on="0"/>
        <pt x="554" y="189" on="0"/>
        <pt x="750" y="164" on="1"/>
        <pt x="750" y="657" on="1"/>
      </contour>
      <contour>
        <pt x="750" y="1282" on="1"/>
        <pt x="556" y="1258" on="0"/>
        <pt x="280" y="985" on="0"/>
        <pt x="256" y="791" on="1"/>
        <pt x="750" y="791" on="1"/>
      </contour>
      <contour>
        <pt x="883" y="164" on="1"/>
        <pt x="1077" y="188" on="0"/>
        <pt x="1350" y="465" on="0"/>
        <pt x="1374" y="657" on="1"/>
        <pt x="883" y="657" on="1"/>
      </contour>
      <contour>
        <pt x="1374" y="791" on="1"/>
        <pt x="1350" y="985" on="0"/>
        <pt x="1075" y="1258" on="0"/>
        <pt x="883" y="1282" on="1"/>
        <pt x="883" y="791" on="1"/>
      </contour>
    </TTGlyph>
    <TTGlyph name="club" xMin="104" yMin="0" xMax="1690" yMax="1534">
      <contour>
        <pt x="897" y="1534" on="1"/>
        <pt x="1062" y="1534" on="0"/>
        <pt x="1270" y="1352" on="0"/>
        <pt x="1270" y="1202" on="1"/>
        <pt x="1270" y="1142" on="0"/>
        <pt x="1198" y="1011" on="0"/>
        <pt x="1157" y="983" on="1"/>
        <pt x="1157" y="975" on="1"/>
        <pt x="1208" y="1019" on="0"/>
        <pt x="1299" y="1051" on="0"/>
        <pt x="1360" y="1051" on="1"/>
        <pt x="1445" y="1051" on="0"/>
        <pt x="1600" y="958" on="0"/>
        <pt x="1690" y="793" on="0"/>
        <pt x="1690" y="688" on="1"/>
        <pt x="1690" y="529" on="0"/>
        <pt x="1473" y="328" on="0"/>
        <pt x="1303" y="328" on="1"/>
        <pt x="1186" y="328" on="0"/>
        <pt x="1020" y="417" on="0"/>
        <pt x="989" y="496" on="1"/>
        <pt x="989" y="313" on="0"/>
        <pt x="1169" y="162" on="0"/>
        <pt x="1376" y="162" on="1"/>
        <pt x="1376" y="0" on="1"/>
        <pt x="418" y="0" on="1"/>
        <pt x="418" y="162" on="1"/>
        <pt x="624" y="162" on="0"/>
        <pt x="805" y="313" on="0"/>
        <pt x="805" y="496" on="1"/>
        <pt x="775" y="418" on="0"/>
        <pt x="608" y="328" on="0"/>
        <pt x="492" y="328" on="1"/>
        <pt x="322" y="328" on="0"/>
        <pt x="104" y="528" on="0"/>
        <pt x="104" y="688" on="1"/>
        <pt x="104" y="793" on="0"/>
        <pt x="194" y="958" on="0"/>
        <pt x="348" y="1051" on="0"/>
        <pt x="434" y="1051" on="1"/>
        <pt x="493" y="1051" on="0"/>
        <pt x="585" y="1019" on="0"/>
        <pt x="637" y="975" on="1"/>
        <pt x="637" y="983" on="1"/>
        <pt x="595" y="1012" on="0"/>
        <pt x="524" y="1144" on="0"/>
        <pt x="524" y="1202" on="1"/>
        <pt x="524" y="1352" on="0"/>
        <pt x="732" y="1534" on="0"/>
      </contour>
    </TTGlyph>
    <TTGlyph name="congruent" xMin="104" yMin="324" xMax="1067" yMax="1190">
      <contour>
        <pt x="1067" y="797" on="1"/>
        <pt x="1067" y="651" on="1"/>
        <pt x="104" y="651" on="1"/>
        <pt x="104" y="797" on="1"/>
      </contour>
      <contour>
        <pt x="1067" y="469" on="1"/>
        <pt x="1067" y="324" on="1"/>
        <pt x="104" y="324" on="1"/>
        <pt x="104" y="469" on="1"/>
      </contour>
      <contour>
        <pt x="336" y="1042" on="1"/>
        <pt x="285" y="1042" on="0"/>
        <pt x="163" y="980" on="0"/>
        <pt x="104" y="922" on="1"/>
        <pt x="104" y="1081" on="1"/>
        <pt x="205" y="1190" on="0"/>
        <pt x="348" y="1190" on="1"/>
        <pt x="416" y="1190" on="0"/>
        <pt x="529" y="1162" on="0"/>
        <pt x="618" y="1124" on="1"/>
        <pt x="745" y="1069" on="0"/>
        <pt x="831" y="1069" on="1"/>
        <pt x="885" y="1069" on="0"/>
        <pt x="1013" y="1133" on="0"/>
        <pt x="1067" y="1190" on="1"/>
        <pt x="1067" y="1032" on="1"/>
        <pt x="965" y="922" on="0"/>
        <pt x="821" y="922" on="1"/>
        <pt x="749" y="922" on="0"/>
        <pt x="623" y="955" on="0"/>
        <pt x="551" y="987" on="1"/>
        <pt x="424" y="1042" on="0"/>
      </contour>
    </TTGlyph>
    <TTGlyph name="diamond" xMin="104" yMin="-29" xMax="1137" yMax="1491">
      <contour>
        <pt x="1137" y="731" on="1"/>
        <pt x="621" y="-29" on="1"/>
        <pt x="104" y="731" on="1"/>
        <pt x="621" y="1491" on="1"/>
      </contour>
    </TTGlyph>
    <TTGlyph name="dotmath" xMin="104" yMin="598" xMax="350" yMax="844">
      <contour>
        <pt x="104" y="721" on="1"/>
        <pt x="104" y="771" on="0"/>
        <pt x="177" y="844" on="0"/>
        <pt x="227" y="844" on="1"/>
        <pt x="275" y="844" on="0"/>
        <pt x="350" y="774" on="0"/>
        <pt x="350" y="721" on="1"/>
        <pt x="350" y="670" on="0"/>
        <pt x="278" y="598" on="0"/>
        <pt x="227" y="598" on="1"/>
        <pt x="175" y="598" on="0"/>
        <pt x="104" y="672" on="0"/>
      </contour>
    </TTGlyph>
    <TTGlyph name="element" xMin="104" yMin="127" xMax="1327" yMax="1319">
      <contour>
        <pt x="104" y="723" on="1"/>
        <pt x="104" y="1016" on="0"/>
        <pt x="462" y="1319" on="0"/>
        <pt x="807" y="1319" on="1"/>
        <pt x="1327" y="1319" on="1"/>
        <pt x="1327" y="1174" on="1"/>
        <pt x="807" y="1174" on="1"/>
        <pt x="297" y="1174" on="0"/>
        <pt x="256" y="797" on="1"/>
        <pt x="1327" y="797" on="1"/>
        <pt x="1327" y="651" on="1"/>
        <pt x="256" y="651" on="1"/>
        <pt x="298" y="272" on="0"/>
        <pt x="807" y="272" on="1"/>
        <pt x="1327" y="272" on="1"/>
        <pt x="1327" y="127" on="1"/>
        <pt x="807" y="127" on="1"/>
        <pt x="464" y="127" on="0"/>
        <pt x="104" y="430" on="0"/>
      </contour>
    </TTGlyph>
    <TTGlyph name="emptyset" xMin="104" yMin="-37" xMax="1686" yMax="1544">
      <contour>
        <pt x="104" y="754" on="1"/>
        <pt x="104" y="967" on="0"/>
        <pt x="319" y="1335" on="0"/>
        <pt x="683" y="1544" on="0"/>
        <pt x="895" y="1544" on="1"/>
        <pt x="1181" y="1544" on="0"/>
        <pt x="1405" y="1356" on="1"/>
        <pt x="1542" y="1493" on="1"/>
        <pt x="1632" y="1397" on="1"/>
        <pt x="1497" y="1264" on="1"/>
        <pt x="1686" y="1036" on="0"/>
        <pt x="1686" y="754" on="1"/>
        <pt x="1686" y="542" on="0"/>
        <pt x="1473" y="174" on="0"/>
        <pt x="1109" y="-37" on="0"/>
        <pt x="895" y="-37" on="1"/>
        <pt x="607" y="-37" on="0"/>
        <pt x="381" y="152" on="1"/>
        <pt x="246" y="16" on="1"/>
        <pt x="156" y="113" on="1"/>
        <pt x="289" y="246" on="1"/>
        <pt x="202" y="349" on="0"/>
        <pt x="104" y="607" on="0"/>
      </contour>
      <contour>
        <pt x="1538" y="754" on="1"/>
        <pt x="1538" y="869" on="0"/>
        <pt x="1461" y="1076" on="0"/>
        <pt x="1393" y="1159" on="1"/>
        <pt x="487" y="256" on="1"/>
        <pt x="666" y="111" on="0"/>
        <pt x="895" y="111" on="1"/>
        <pt x="1071" y="111" on="0"/>
        <pt x="1369" y="288" on="0"/>
        <pt x="1538" y="583" on="0"/>
      </contour>
      <contour>
        <pt x="252" y="754" on="1"/>
        <pt x="252" y="529" on="0"/>
        <pt x="393" y="350" on="1"/>
        <pt x="1300" y="1251" on="1"/>
        <pt x="1122" y="1397" on="0"/>
        <pt x="895" y="1397" on="1"/>
        <pt x="723" y="1397" on="0"/>
        <pt x="425" y="1225" on="0"/>
        <pt x="252" y="926" on="0"/>
      </contour>
    </TTGlyph>
    <TTGlyph name="equivalence" xMin="104" yMin="293" xMax="1067" yMax="1151">
      <contour>
        <pt x="104" y="1006" on="1"/>
        <pt x="104" y="1151" on="1"/>
        <pt x="1067" y="1151" on="1"/>
        <pt x="1067" y="1006" on="1"/>
      </contour>
      <contour>
        <pt x="104" y="293" on="1"/>
        <pt x="104" y="438" on="1"/>
        <pt x="1067" y="438" on="1"/>
        <pt x="1067" y="293" on="1"/>
      </contour>
      <contour>
        <pt x="104" y="649" on="1"/>
        <pt x="104" y="795" on="1"/>
        <pt x="1067" y="795" on="1"/>
        <pt x="1067" y="649" on="1"/>
      </contour>
    </TTGlyph>
    <TTGlyph name="existential" xMin="104" yMin="0" xMax="1071" yMax="1464">
      <contour>
        <pt x="901" y="164" on="1"/>
        <pt x="901" y="678" on="1"/>
        <pt x="164" y="678" on="1"/>
        <pt x="164" y="842" on="1"/>
        <pt x="901" y="842" on="1"/>
        <pt x="901" y="1300" on="1"/>
        <pt x="121" y="1300" on="1"/>
        <pt x="121" y="1464" on="1"/>
        <pt x="1071" y="1464" on="1"/>
        <pt x="1071" y="0" on="1"/>
        <pt x="104" y="0" on="1"/>
        <pt x="104" y="164" on="1"/>
      </contour>
    </TTGlyph>
    <TTGlyph name="female" xMin="104" yMin="0" xMax="956" yMax="1341">
      <contour>
        <pt x="233" y="317" on="1"/>
        <pt x="475" y="317" on="1"/>
        <pt x="475" y="498" on="1"/>
        <pt x="317" y="518" on="0"/>
        <pt x="104" y="760" on="0"/>
        <pt x="104" y="922" on="1"/>
        <pt x="104" y="1033" on="0"/>
        <pt x="218" y="1227" on="0"/>
        <pt x="417" y="1341" on="0"/>
        <pt x="530" y="1341" on="1"/>
        <pt x="643" y="1341" on="0"/>
        <pt x="841" y="1229" on="0"/>
        <pt x="956" y="1033" on="0"/>
        <pt x="956" y="922" on="1"/>
        <pt x="956" y="818" on="0"/>
        <pt x="859" y="630" on="0"/>
        <pt x="688" y="511" on="0"/>
        <pt x="586" y="498" on="1"/>
        <pt x="586" y="317" on="1"/>
        <pt x="813" y="317" on="1"/>
        <pt x="813" y="221" on="1"/>
        <pt x="586" y="221" on="1"/>
        <pt x="586" y="0" on="1"/>
        <pt x="475" y="0" on="1"/>
        <pt x="475" y="221" on="1"/>
        <pt x="233" y="221" on="1"/>
      </contour>
      <contour>
        <pt x="207" y="922" on="1"/>
        <pt x="207" y="836" on="0"/>
        <pt x="295" y="684" on="0"/>
        <pt x="446" y="598" on="0"/>
        <pt x="530" y="598" on="1"/>
        <pt x="662" y="598" on="0"/>
        <pt x="854" y="788" on="0"/>
        <pt x="854" y="922" on="1"/>
        <pt x="854" y="1005" on="0"/>
        <pt x="768" y="1152" on="0"/>
        <pt x="617" y="1239" on="0"/>
        <pt x="530" y="1239" on="1"/>
        <pt x="445" y="1239" on="0"/>
        <pt x="295" y="1154" on="0"/>
        <pt x="207" y="1005" on="0"/>
      </contour>
    </TTGlyph>
    <TTGlyph name="gradient" xMin="41" yMin="0" xMax="1149" yMax="1462">
      <contour>
        <pt x="1149" y="1350" on="1"/>
        <pt x="688" y="0" on="1"/>
        <pt x="504" y="0" on="1"/>
        <pt x="41" y="1352" on="1"/>
        <pt x="41" y="1462" on="1"/>
        <pt x="1149" y="1462" on="1"/>
      </contour>
      <contour>
        <pt x="598" y="201" on="1"/>
        <pt x="652" y="412" on="0"/>
        <pt x="692" y="530" on="1"/>
        <pt x="952" y="1300" on="1"/>
        <pt x="244" y="1300" on="1"/>
        <pt x="502" y="530" on="1"/>
        <pt x="566" y="340" on="0"/>
      </contour>
    </TTGlyph>
    <TTGlyph name="greaterequal" xMin="104" yMin="96" xMax="1067" yMax="1348">
      <contour>
        <pt x="104" y="96" on="1"/>
        <pt x="104" y="242" on="1"/>
        <pt x="1067" y="242" on="1"/>
        <pt x="1067" y="96" on="1"/>
      </contour>
      <contour>
        <pt x="104" y="500" on="1"/>
        <pt x="854" y="844" on="1"/>
        <pt x="104" y="1188" on="1"/>
        <pt x="104" y="1348" on="1"/>
        <pt x="1067" y="895" on="1"/>
        <pt x="1067" y="793" on="1"/>
        <pt x="104" y="340" on="1"/>
      </contour>
    </TTGlyph>
    <TTGlyph name="heart" xMin="104" yMin="0" xMax="1411" yMax="1473">
      <contour>
        <pt x="440" y="1473" on="1"/>
        <pt x="536" y="1473" on="0"/>
        <pt x="702" y="1373" on="0"/>
        <pt x="756" y="1274" on="1"/>
        <pt x="811" y="1373" on="0"/>
        <pt x="978" y="1473" on="0"/>
        <pt x="1075" y="1473" on="1"/>
        <pt x="1163" y="1473" on="0"/>
        <pt x="1320" y="1383" on="0"/>
        <pt x="1411" y="1233" on="0"/>
        <pt x="1411" y="1145" on="1"/>
        <pt x="1411" y="1036" on="0"/>
        <pt x="1316" y="803" on="0"/>
        <pt x="1188" y="627" on="1"/>
        <pt x="1002" y="374" on="0"/>
        <pt x="859" y="135" on="0"/>
        <pt x="805" y="0" on="1"/>
        <pt x="709" y="0" on="1"/>
        <pt x="653" y="139" on="0"/>
        <pt x="506" y="382" on="0"/>
        <pt x="328" y="627" on="1"/>
        <pt x="206" y="792" on="0"/>
        <pt x="104" y="1033" on="0"/>
        <pt x="104" y="1145" on="1"/>
        <pt x="104" y="1232" on="0"/>
        <pt x="195" y="1384" on="0"/>
        <pt x="353" y="1473" on="0"/>
      </contour>
    </TTGlyph>
    <TTGlyph name="house" xMin="104" yMin="0" xMax="1362" yMax="1460">
      <contour>
        <pt x="733" y="1276" on="1"/>
        <pt x="250" y="823" on="1"/>
        <pt x="250" y="145" on="1"/>
        <pt x="1217" y="145" on="1"/>
        <pt x="1217" y="823" on="1"/>
      </contour>
      <contour>
        <pt x="733" y="1460" on="1"/>
        <pt x="1362" y="870" on="1"/>
        <pt x="1362" y="0" on="1"/>
        <pt x="104" y="0" on="1"/>
        <pt x="104" y="870" on="1"/>
      </contour>
    </TTGlyph>
    <TTGlyph name="infinity" xMin="104" yMin="401" xMax="1311" yMax="1038">
      <contour>
        <pt x="1311" y="719" on="1"/>
        <pt x="1311" y="585" on="0"/>
        <pt x="1143" y="401" on="0"/>
        <pt x="1014" y="401" on="1"/>
        <pt x="829" y="401" on="0"/>
        <pt x="705" y="618" on="1"/>
        <pt x="645" y="516" on="0"/>
        <pt x="492" y="406" on="0"/>
        <pt x="406" y="406" on="1"/>
        <pt x="271" y="406" on="0"/>
        <pt x="104" y="580" on="0"/>
        <pt x="104" y="723" on="1"/>
        <pt x="104" y="860" on="0"/>
        <pt x="273" y="1038" on="0"/>
        <pt x="406" y="1038" on="1"/>
        <pt x="586" y="1038" on="0"/>
        <pt x="707" y="823" on="1"/>
        <pt x="832" y="1038" on="0"/>
        <pt x="1014" y="1038" on="1"/>
        <pt x="1147" y="1038" on="0"/>
        <pt x="1311" y="859" on="0"/>
      </contour>
      <contour>
        <pt x="414" y="535" on="1"/>
        <pt x="477" y="535" on="0"/>
        <pt x="584" y="626" on="0"/>
        <pt x="637" y="723" on="1"/>
        <pt x="587" y="817" on="0"/>
        <pt x="481" y="909" on="0"/>
        <pt x="412" y="909" on="1"/>
        <pt x="336" y="909" on="0"/>
        <pt x="238" y="804" on="0"/>
        <pt x="238" y="721" on="1"/>
        <pt x="238" y="640" on="0"/>
        <pt x="336" y="535" on="0"/>
      </contour>
      <contour>
        <pt x="1001" y="909" on="1"/>
        <pt x="938" y="909" on="0"/>
        <pt x="832" y="815" on="0"/>
        <pt x="778" y="719" on="1"/>
        <pt x="828" y="625" on="0"/>
        <pt x="935" y="535" on="0"/>
        <pt x="1004" y="535" on="1"/>
        <pt x="1079" y="535" on="0"/>
        <pt x="1178" y="637" on="0"/>
        <pt x="1178" y="719" on="1"/>
        <pt x="1178" y="801" on="0"/>
        <pt x="1077" y="909" on="0"/>
      </contour>
    </TTGlyph>
    <TTGlyph name="integral" xMin="10" yMin="-492" xMax="768" yMax="1556">
      <contour>
        <pt x="639" y="1556" on="1"/>
        <pt x="722" y="1556" on="0"/>
        <pt x="768" y="1538" on="1"/>
        <pt x="768" y="1389" on="1"/>
        <pt x="709" y="1413" on="0"/>
        <pt x="653" y="1413" on="1"/>
        <pt x="483" y="1413" on="0"/>
        <pt x="483" y="1180" on="1"/>
        <pt x="483" y="-127" on="1"/>
        <pt x="483" y="-307" on="0"/>
        <pt x="315" y="-492" on="0"/>
        <pt x="150" y="-492" on="1"/>
        <pt x="71" y="-492" on="0"/>
        <pt x="10" y="-471" on="1"/>
        <pt x="10" y="-324" on="1"/>
        <pt x="71" y="-348" on="0"/>
        <pt x="133" y="-348" on="1"/>
        <pt x="309" y="-348" on="0"/>
        <pt x="309" y="-115" on="1"/>
        <pt x="309" y="1192" on="1"/>
        <pt x="309" y="1556" on="0"/>
      </contour>
    </TTGlyph>
    <TTGlyph name="integralbt" xMin="25" yMin="-492" xMax="483" yMax="1706">
      <contour>
        <pt x="483" y="1706" on="1"/>
        <pt x="483" y="-127" on="1"/>
        <pt x="483" y="-307" on="0"/>
        <pt x="318" y="-492" on="0"/>
        <pt x="154" y="-492" on="1"/>
        <pt x="74" y="-492" on="0"/>
        <pt x="25" y="-473" on="1"/>
        <pt x="25" y="-324" on="1"/>
        <pt x="81" y="-348" on="0"/>
        <pt x="139" y="-348" on="1"/>
        <pt x="309" y="-348" on="0"/>
        <pt x="309" y="-115" on="1"/>
        <pt x="309" y="1706" on="1"/>
      </contour>
    </TTGlyph>
    <TTGlyph name="integraltp" xMin="309" yMin="-492" xMax="768" yMax="1556">
      <contour>
        <pt x="309" y="-492" on="1"/>
        <pt x="309" y="1192" on="1"/>
        <pt x="309" y="1556" on="0"/>
        <pt x="639" y="1556" on="1"/>
        <pt x="722" y="1556" on="0"/>
        <pt x="768" y="1538" on="1"/>
        <pt x="768" y="1389" on="1"/>
        <pt x="709" y="1413" on="0"/>
        <pt x="653" y="1413" on="1"/>
        <pt x="483" y="1413" on="0"/>
        <pt x="483" y="1180" on="1"/>
        <pt x="483" y="-492" on="1"/>
      </contour>
    </TTGlyph>
    <TTGlyph name="intersection" xMin="104" yMin="96" xMax="1296" yMax="1360">
      <contour>
        <pt x="700" y="1360" on="1"/>
        <pt x="995" y="1360" on="0"/>
        <pt x="1296" y="1002" on="0"/>
        <pt x="1296" y="657" on="1"/>
        <pt x="1296" y="96" on="1"/>
        <pt x="1151" y="96" on="1"/>
        <pt x="1151" y="657" on="1"/>
        <pt x="1151" y="937" on="0"/>
        <pt x="928" y="1212" on="0"/>
        <pt x="700" y="1212" on="1"/>
        <pt x="473" y="1212" on="0"/>
        <pt x="250" y="939" on="0"/>
        <pt x="250" y="657" on="1"/>
        <pt x="250" y="96" on="1"/>
        <pt x="104" y="96" on="1"/>
        <pt x="104" y="657" on="1"/>
        <pt x="104" y="1002" on="0"/>
        <pt x="407" y="1360" on="0"/>
      </contour>
    </TTGlyph>
    <TTGlyph name="invsmileface" xMin="104" yMin="12" xMax="1526" yMax="1434">
      <contour>
        <pt x="104" y="723" on="1"/>
        <pt x="104" y="913" on="0"/>
        <pt x="294" y="1244" on="0"/>
        <pt x="625" y="1434" on="0"/>
        <pt x="815" y="1434" on="1"/>
        <pt x="1005" y="1434" on="0"/>
        <pt x="1336" y="1244" on="0"/>
        <pt x="1526" y="913" on="0"/>
        <pt x="1526" y="723" on="1"/>
        <pt x="1526" y="533" on="0"/>
        <pt x="1336" y="202" on="0"/>
        <pt x="1005" y="12" on="0"/>
        <pt x="815" y="12" on="1"/>
        <pt x="625" y="12" on="0"/>
        <pt x="294" y="202" on="0"/>
        <pt x="104" y="533" on="0"/>
      </contour>
      <contour>
        <pt x="453" y="870" on="1"/>
        <pt x="453" y="831" on="0"/>
        <pt x="506" y="778" on="0"/>
        <pt x="545" y="778" on="1"/>
        <pt x="584" y="778" on="0"/>
        <pt x="637" y="831" on="0"/>
        <pt x="637" y="870" on="1"/>
        <pt x="637" y="908" on="0"/>
        <pt x="586" y="963" on="0"/>
        <pt x="545" y="963" on="1"/>
        <pt x="505" y="963" on="0"/>
        <pt x="453" y="908" on="0"/>
      </contour>
      <contour>
        <pt x="993" y="870" on="1"/>
        <pt x="993" y="831" on="0"/>
        <pt x="1046" y="778" on="0"/>
        <pt x="1085" y="778" on="1"/>
        <pt x="1123" y="778" on="0"/>
        <pt x="1178" y="829" on="0"/>
        <pt x="1178" y="870" on="1"/>
        <pt x="1178" y="909" on="0"/>
        <pt x="1124" y="963" on="0"/>
        <pt x="1085" y="963" on="1"/>
        <pt x="1045" y="963" on="0"/>
        <pt x="993" y="908" on="0"/>
      </contour>
      <contour>
        <pt x="485" y="555" on="1"/>
        <pt x="600" y="336" on="0"/>
        <pt x="813" y="336" on="1"/>
        <pt x="1028" y="336" on="0"/>
        <pt x="1143" y="555" on="1"/>
        <pt x="1071" y="594" on="1"/>
        <pt x="983" y="434" on="0"/>
        <pt x="813" y="434" on="1"/>
        <pt x="640" y="434" on="0"/>
        <pt x="555" y="594" on="1"/>
      </contour>
    </TTGlyph>
    <TTGlyph name="lessequal" xMin="104" yMin="96" xMax="1067" yMax="1348">
      <contour>
        <pt x="1067" y="340" on="1"/>
        <pt x="104" y="793" on="1"/>
        <pt x="104" y="895" on="1"/>
        <pt x="1067" y="1348" on="1"/>
        <pt x="1067" y="1188" on="1"/>
        <pt x="317" y="844" on="1"/>
        <pt x="1067" y="500" on="1"/>
      </contour>
      <contour>
        <pt x="104" y="96" on="1"/>
        <pt x="104" y="242" on="1"/>
        <pt x="1067" y="242" on="1"/>
        <pt x="1067" y="96" on="1"/>
      </contour>
    </TTGlyph>
    <TTGlyph name="logicaland" xMin="104" yMin="143" xMax="1356" yMax="1331">
      <contour>
        <pt x="104" y="143" on="1"/>
        <pt x="680" y="1331" on="1"/>
        <pt x="782" y="1331" on="1"/>
        <pt x="1356" y="143" on="1"/>
        <pt x="1186" y="143" on="1"/>
        <pt x="731" y="1122" on="1"/>
        <pt x="274" y="143" on="1"/>
      </contour>
    </TTGlyph>
    <TTGlyph name="logicalor" xMin="104" yMin="143" xMax="1356" yMax="1331">
      <contour>
        <pt x="274" y="1331" on="1"/>
        <pt x="731" y="352" on="1"/>
        <pt x="1186" y="1331" on="1"/>
        <pt x="1356" y="1331" on="1"/>
        <pt x="782" y="143" on="1"/>
        <pt x="680" y="143" on="1"/>
        <pt x="104" y="1331" on="1"/>
      </contour>
    </TTGlyph>
    <TTGlyph name="male" xMin="104" yMin="0" xMax="1159" yMax="1094">
      <contour>
        <pt x="104" y="426" on="1"/>
        <pt x="104" y="537" on="0"/>
        <pt x="218" y="732" on="0"/>
        <pt x="417" y="846" on="0"/>
        <pt x="530" y="846" on="1"/>
        <pt x="669" y="846" on="0"/>
        <pt x="784" y="762" on="1"/>
        <pt x="975" y="975" on="1"/>
        <pt x="813" y="1055" on="1"/>
        <pt x="1157" y="1094" on="1"/>
        <pt x="1159" y="748" on="1"/>
        <pt x="1059" y="901" on="1"/>
        <pt x="864" y="684" on="1"/>
        <pt x="956" y="571" on="0"/>
        <pt x="956" y="426" on="1"/>
        <pt x="956" y="311" on="0"/>
        <pt x="841" y="113" on="0"/>
        <pt x="643" y="0" on="0"/>
        <pt x="530" y="0" on="1"/>
        <pt x="416" y="0" on="0"/>
        <pt x="217" y="115" on="0"/>
        <pt x="104" y="312" on="0"/>
      </contour>
      <contour>
        <pt x="207" y="426" on="1"/>
        <pt x="207" y="340" on="0"/>
        <pt x="295" y="188" on="0"/>
        <pt x="446" y="102" on="0"/>
        <pt x="530" y="102" on="1"/>
        <pt x="662" y="102" on="0"/>
        <pt x="854" y="292" on="0"/>
        <pt x="854" y="426" on="1"/>
        <pt x="854" y="509" on="0"/>
        <pt x="768" y="656" on="0"/>
        <pt x="617" y="743" on="0"/>
        <pt x="530" y="743" on="1"/>
        <pt x="445" y="743" on="0"/>
        <pt x="295" y="658" on="0"/>
        <pt x="207" y="509" on="0"/>
      </contour>
    </TTGlyph>
    <TTGlyph name="minus" xMin="104" yMin="649" xMax="1067" yMax="795">
      <contour>
        <pt x="104" y="649" on="1"/>
        <pt x="104" y="795" on="1"/>
        <pt x="1067" y="795" on="1"/>
        <pt x="1067" y="649" on="1"/>
      </contour>
    </TTGlyph>
    <TTGlyph name="musicalnote" xMin="104" yMin="29" xMax="735" yMax="1153">
      <contour>
        <pt x="397" y="1153" on="1"/>
        <pt x="473" y="1153" on="1"/>
        <pt x="473" y="1053" on="1"/>
        <pt x="627" y="860" on="1"/>
        <pt x="735" y="713" on="0"/>
        <pt x="735" y="543" on="1"/>
        <pt x="735" y="393" on="0"/>
        <pt x="641" y="272" on="1"/>
        <pt x="594" y="272" on="1"/>
        <pt x="651" y="399" on="0"/>
        <pt x="651" y="520" on="1"/>
        <pt x="651" y="639" on="0"/>
        <pt x="537" y="799" on="0"/>
        <pt x="473" y="809" on="1"/>
        <pt x="473" y="303" on="1"/>
        <pt x="473" y="180" on="0"/>
        <pt x="326" y="29" on="0"/>
        <pt x="219" y="29" on="1"/>
        <pt x="162" y="29" on="0"/>
        <pt x="104" y="84" on="0"/>
        <pt x="104" y="129" on="1"/>
        <pt x="104" y="207" on="0"/>
        <pt x="229" y="322" on="0"/>
        <pt x="307" y="322" on="1"/>
        <pt x="350" y="322" on="0"/>
        <pt x="397" y="303" on="1"/>
      </contour>
    </TTGlyph>
    <TTGlyph name="musicalnotedbl" xMin="104" yMin="-43" xMax="1096" yMax="1159">
      <contour>
        <pt x="1022" y="924" on="1"/>
        <pt x="471" y="995" on="1"/>
        <pt x="471" y="322" on="1"/>
        <pt x="471" y="205" on="0"/>
        <pt x="334" y="49" on="0"/>
        <pt x="219" y="49" on="1"/>
        <pt x="162" y="49" on="0"/>
        <pt x="104" y="102" on="0"/>
        <pt x="104" y="147" on="1"/>
        <pt x="104" y="223" on="0"/>
        <pt x="223" y="340" on="0"/>
        <pt x="297" y="340" on="1"/>
        <pt x="351" y="340" on="0"/>
        <pt x="397" y="322" on="1"/>
        <pt x="397" y="1159" on="1"/>
        <pt x="1096" y="1067" on="1"/>
        <pt x="1096" y="231" on="1"/>
        <pt x="1096" y="106" on="0"/>
        <pt x="942" y="-43" on="0"/>
        <pt x="846" y="-43" on="1"/>
        <pt x="731" y="-43" on="0"/>
        <pt x="731" y="57" on="1"/>
        <pt x="731" y="139" on="0"/>
        <pt x="854" y="250" on="0"/>
        <pt x="932" y="250" on="1"/>
        <pt x="979" y="250" on="0"/>
        <pt x="1022" y="231" on="1"/>
      </contour>
    </TTGlyph>
    <TTGlyph name="notelement" xMin="104" yMin="-86" xMax="1327" yMax="1563">
      <contour>
        <pt x="104" y="723" on="1"/>
        <pt x="104" y="1016" on="0"/>
        <pt x="462" y="1319" on="0"/>
        <pt x="807" y="1319" on="1"/>
        <pt x="999" y="1319" on="1"/>
        <pt x="1094" y="1563" on="1"/>
        <pt x="1219" y="1509" on="1"/>
        <pt x="1145" y="1319" on="1"/>
        <pt x="1327" y="1319" on="1"/>
        <pt x="1327" y="1174" on="1"/>
        <pt x="1087" y="1174" on="1"/>
        <pt x="944" y="797" on="1"/>
        <pt x="1327" y="797" on="1"/>
        <pt x="1327" y="651" on="1"/>
        <pt x="887" y="651" on="1"/>
        <pt x="741" y="272" on="1"/>
        <pt x="1327" y="272" on="1"/>
        <pt x="1327" y="127" on="1"/>
        <pt x="807" y="127" on="1"/>
        <pt x="744" y="127" on="0"/>
        <pt x="688" y="131" on="1"/>
        <pt x="604" y="-86" on="1"/>
        <pt x="479" y="-33" on="1"/>
        <pt x="551" y="152" on="1"/>
        <pt x="330" y="203" on="0"/>
        <pt x="104" y="491" on="0"/>
      </contour>
      <contour>
        <pt x="256" y="797" on="1"/>
        <pt x="799" y="797" on="1"/>
        <pt x="944" y="1174" on="1"/>
        <pt x="807" y="1174" on="1"/>
        <pt x="297" y="1174" on="0"/>
      </contour>
      <contour>
        <pt x="604" y="291" on="1"/>
        <pt x="741" y="651" on="1"/>
        <pt x="256" y="651" on="1"/>
        <pt x="271" y="506" on="0"/>
        <pt x="439" y="325" on="0"/>
      </contour>
    </TTGlyph>
    <TTGlyph name="notequal" xMin="104" yMin="158" xMax="1067" yMax="1270">
      <contour>
        <pt x="551" y="444" on="1"/>
        <pt x="436" y="158" on="1"/>
        <pt x="311" y="211" on="1"/>
        <pt x="406" y="444" on="1"/>
        <pt x="104" y="444" on="1"/>
        <pt x="104" y="590" on="1"/>
        <pt x="461" y="590" on="1"/>
        <pt x="561" y="852" on="1"/>
        <pt x="104" y="852" on="1"/>
        <pt x="104" y="997" on="1"/>
        <pt x="618" y="997" on="1"/>
        <pt x="723" y="1270" on="1"/>
        <pt x="848" y="1217" on="1"/>
        <pt x="764" y="997" on="1"/>
        <pt x="1067" y="997" on="1"/>
        <pt x="1067" y="852" on="1"/>
        <pt x="707" y="852" on="1"/>
        <pt x="606" y="590" on="1"/>
        <pt x="1067" y="590" on="1"/>
        <pt x="1067" y="444" on="1"/>
      </contour>
    </TTGlyph>
    <TTGlyph name="notsubset" xMin="104" yMin="-86" xMax="1327" yMax="1563">
      <contour>
        <pt x="104" y="723" on="1"/>
        <pt x="104" y="1016" on="0"/>
        <pt x="462" y="1319" on="0"/>
        <pt x="807" y="1319" on="1"/>
        <pt x="1040" y="1319" on="1"/>
        <pt x="1135" y="1563" on="1"/>
        <pt x="1260" y="1509" on="1"/>
        <pt x="1186" y="1319" on="1"/>
        <pt x="1327" y="1319" on="1"/>
        <pt x="1327" y="1174" on="1"/>
        <pt x="1128" y="1174" on="1"/>
        <pt x="782" y="272" on="1"/>
        <pt x="1327" y="272" on="1"/>
        <pt x="1327" y="127" on="1"/>
        <pt x="727" y="127" on="1"/>
        <pt x="645" y="-86" on="1"/>
        <pt x="520" y="-33" on="1"/>
        <pt x="588" y="145" on="1"/>
        <pt x="349" y="188" on="0"/>
        <pt x="104" y="484" on="0"/>
      </contour>
      <contour>
        <pt x="252" y="723" on="1"/>
        <pt x="252" y="341" on="0"/>
        <pt x="641" y="283" on="1"/>
        <pt x="985" y="1174" on="1"/>
        <pt x="807" y="1174" on="1"/>
        <pt x="527" y="1174" on="0"/>
        <pt x="252" y="951" on="0"/>
      </contour>
    </TTGlyph>
    <TTGlyph name="orthogonal" xMin="104" yMin="0" xMax="1231" yMax="1126">
      <contour>
        <pt x="104" y="0" on="1"/>
        <pt x="104" y="1126" on="1"/>
        <pt x="250" y="1126" on="1"/>
        <pt x="250" y="145" on="1"/>
        <pt x="1231" y="145" on="1"/>
        <pt x="1231" y="0" on="1"/>
      </contour>
    </TTGlyph>
    <TTGlyph name="partialdiff" xMin="104" yMin="-20" xMax="1087" yMax="1479">
      <contour>
        <pt x="1087" y="932" on="1"/>
        <pt x="1087" y="669" on="0"/>
        <pt x="920" y="212" on="0"/>
        <pt x="644" y="-20" on="0"/>
        <pt x="467" y="-20" on="1"/>
        <pt x="291" y="-20" on="0"/>
        <pt x="104" y="183" on="0"/>
        <pt x="104" y="375" on="1"/>
        <pt x="104" y="544" on="0"/>
        <pt x="240" y="851" on="0"/>
        <pt x="476" y="1012" on="0"/>
        <pt x="627" y="1012" on="1"/>
        <pt x="716" y="1012" on="0"/>
        <pt x="857" y="931" on="0"/>
        <pt x="903" y="862" on="1"/>
        <pt x="907" y="938" on="1"/>
        <pt x="903" y="1327" on="0"/>
        <pt x="633" y="1327" on="1"/>
        <pt x="575" y="1327" on="0"/>
        <pt x="434" y="1285" on="0"/>
        <pt x="375" y="1245" on="1"/>
        <pt x="375" y="1417" on="1"/>
        <pt x="436" y="1446" on="0"/>
        <pt x="590" y="1479" on="0"/>
        <pt x="657" y="1479" on="1"/>
        <pt x="867" y="1479" on="0"/>
        <pt x="1087" y="1204" on="0"/>
      </contour>
      <contour>
        <pt x="477" y="131" on="1"/>
        <pt x="619" y="131" on="0"/>
        <pt x="837" y="445" on="0"/>
        <pt x="872" y="678" on="1"/>
        <pt x="852" y="764" on="0"/>
        <pt x="727" y="872" on="0"/>
        <pt x="647" y="872" on="1"/>
        <pt x="550" y="872" on="0"/>
        <pt x="390" y="744" on="0"/>
        <pt x="291" y="501" on="0"/>
        <pt x="291" y="373" on="1"/>
        <pt x="291" y="257" on="0"/>
        <pt x="388" y="131" on="0"/>
      </contour>
    </TTGlyph>
    <TTGlyph name="perpendicular" xMin="104" yMin="53" xMax="1444" yMax="1393">
      <contour>
        <pt x="846" y="199" on="1"/>
        <pt x="1444" y="199" on="1"/>
        <pt x="1444" y="53" on="1"/>
        <pt x="104" y="53" on="1"/>
        <pt x="104" y="199" on="1"/>
        <pt x="700" y="199" on="1"/>
        <pt x="700" y="1393" on="1"/>
        <pt x="846" y="1393" on="1"/>
      </contour>
    </TTGlyph>
    <TTGlyph name="product" xMin="104" yMin="-492" xMax="1225" yMax="1462">
      <contour>
        <pt x="1040" y="-492" on="1"/>
        <pt x="1040" y="1298" on="1"/>
        <pt x="289" y="1298" on="1"/>
        <pt x="289" y="-492" on="1"/>
        <pt x="104" y="-492" on="1"/>
        <pt x="104" y="1462" on="1"/>
        <pt x="1225" y="1462" on="1"/>
        <pt x="1225" y="-492" on="1"/>
      </contour>
    </TTGlyph>
    <TTGlyph name="propersubset" xMin="104" yMin="127" xMax="1327" yMax="1319">
      <contour>
        <pt x="104" y="723" on="1"/>
        <pt x="104" y="1015" on="0"/>
        <pt x="443" y="1319" on="0"/>
        <pt x="776" y="1319" on="1"/>
        <pt x="1327" y="1319" on="1"/>
        <pt x="1327" y="1174" on="1"/>
        <pt x="776" y="1174" on="1"/>
        <pt x="507" y="1174" on="0"/>
        <pt x="252" y="957" on="0"/>
        <pt x="252" y="723" on="1"/>
        <pt x="252" y="488" on="0"/>
        <pt x="507" y="270" on="0"/>
        <pt x="776" y="270" on="1"/>
        <pt x="1327" y="270" on="1"/>
        <pt x="1327" y="127" on="1"/>
        <pt x="776" y="127" on="1"/>
        <pt x="443" y="127" on="0"/>
        <pt x="104" y="432" on="0"/>
      </contour>
    </TTGlyph>
    <TTGlyph name="propersuperset" xMin="104" yMin="127" xMax="1327" yMax="1319">
      <contour>
        <pt x="1327" y="723" on="1"/>
        <pt x="1327" y="430" on="0"/>
        <pt x="968" y="127" on="0"/>
        <pt x="625" y="127" on="1"/>
        <pt x="104" y="127" on="1"/>
        <pt x="104" y="272" on="1"/>
        <pt x="625" y="272" on="1"/>
        <pt x="906" y="272" on="0"/>
        <pt x="1180" y="497" on="0"/>
        <pt x="1180" y="723" on="1"/>
        <pt x="1180" y="950" on="0"/>
        <pt x="905" y="1174" on="0"/>
        <pt x="625" y="1174" on="1"/>
        <pt x="104" y="1174" on="1"/>
        <pt x="104" y="1319" on="1"/>
        <pt x="625" y="1319" on="1"/>
        <pt x="969" y="1319" on="0"/>
        <pt x="1327" y="1017" on="0"/>
      </contour>
    </TTGlyph>
    <TTGlyph name="proportional" xMin="104" yMin="406" xMax="1001" yMax="1038">
      <contour>
        <pt x="414" y="535" on="1"/>
        <pt x="477" y="535" on="0"/>
        <pt x="584" y="626" on="0"/>
        <pt x="637" y="723" on="1"/>
        <pt x="587" y="817" on="0"/>
        <pt x="481" y="909" on="0"/>
        <pt x="412" y="909" on="1"/>
        <pt x="335" y="909" on="0"/>
        <pt x="238" y="804" on="0"/>
        <pt x="238" y="723" on="1"/>
        <pt x="238" y="642" on="0"/>
        <pt x="334" y="535" on="0"/>
      </contour>
      <contour>
        <pt x="1001" y="406" on="1"/>
        <pt x="824" y="412" on="0"/>
        <pt x="705" y="618" on="1"/>
        <pt x="645" y="516" on="0"/>
        <pt x="492" y="406" on="0"/>
        <pt x="406" y="406" on="1"/>
        <pt x="271" y="406" on="0"/>
        <pt x="104" y="580" on="0"/>
        <pt x="104" y="723" on="1"/>
        <pt x="104" y="860" on="0"/>
        <pt x="273" y="1038" on="0"/>
        <pt x="406" y="1038" on="1"/>
        <pt x="586" y="1038" on="0"/>
        <pt x="707" y="823" on="1"/>
        <pt x="828" y="1028" on="0"/>
        <pt x="1001" y="1038" on="1"/>
        <pt x="1001" y="909" on="1"/>
        <pt x="937" y="905" on="0"/>
        <pt x="833" y="817" on="0"/>
        <pt x="778" y="719" on="1"/>
        <pt x="828" y="626" on="0"/>
        <pt x="935" y="537" on="0"/>
        <pt x="1001" y="535" on="1"/>
      </contour>
    </TTGlyph>
    <TTGlyph name="radical" xMin="37" yMin="-14" xMax="1219" yMax="1694">
      <contour>
        <pt x="627" y="-14" on="1"/>
        <pt x="494" y="-14" on="1"/>
        <pt x="217" y="764" on="1"/>
        <pt x="37" y="764" on="1"/>
        <pt x="37" y="907" on="1"/>
        <pt x="330" y="907" on="1"/>
        <pt x="561" y="233" on="1"/>
        <pt x="1073" y="1694" on="1"/>
        <pt x="1219" y="1694" on="1"/>
      </contour>
    </TTGlyph>
    <TTGlyph name="reflexsubset" xMin="104" yMin="0" xMax="1327" yMax="1479">
      <contour>
        <pt x="186" y="0" on="1"/>
        <pt x="186" y="145" on="1"/>
        <pt x="1327" y="145" on="1"/>
        <pt x="1327" y="0" on="1"/>
      </contour>
      <contour>
        <pt x="104" y="883" on="1"/>
        <pt x="104" y="1175" on="0"/>
        <pt x="443" y="1479" on="0"/>
        <pt x="776" y="1479" on="1"/>
        <pt x="1327" y="1479" on="1"/>
        <pt x="1327" y="1333" on="1"/>
        <pt x="776" y="1333" on="1"/>
        <pt x="509" y="1333" on="0"/>
        <pt x="252" y="1119" on="0"/>
        <pt x="252" y="883" on="1"/>
        <pt x="252" y="649" on="0"/>
        <pt x="506" y="432" on="0"/>
        <pt x="776" y="432" on="1"/>
        <pt x="1327" y="432" on="1"/>
        <pt x="1327" y="287" on="1"/>
        <pt x="776" y="287" on="1"/>
        <pt x="443" y="287" on="0"/>
        <pt x="104" y="592" on="0"/>
      </contour>
    </TTGlyph>
    <TTGlyph name="reflexsuperset" xMin="104" yMin="0" xMax="1327" yMax="1479">
      <contour>
        <pt x="104" y="0" on="1"/>
        <pt x="104" y="145" on="1"/>
        <pt x="1245" y="145" on="1"/>
        <pt x="1245" y="0" on="1"/>
      </contour>
      <contour>
        <pt x="1327" y="883" on="1"/>
        <pt x="1327" y="591" on="0"/>
        <pt x="988" y="287" on="0"/>
        <pt x="655" y="287" on="1"/>
        <pt x="104" y="287" on="1"/>
        <pt x="104" y="432" on="1"/>
        <pt x="655" y="432" on="1"/>
        <pt x="923" y="432" on="0"/>
        <pt x="1180" y="647" on="0"/>
        <pt x="1180" y="883" on="1"/>
        <pt x="1180" y="1119" on="0"/>
        <pt x="921" y="1333" on="0"/>
        <pt x="655" y="1333" on="1"/>
        <pt x="104" y="1333" on="1"/>
        <pt x="104" y="1479" on="1"/>
        <pt x="655" y="1479" on="1"/>
        <pt x="989" y="1479" on="0"/>
        <pt x="1327" y="1175" on="0"/>
      </contour>
    </TTGlyph>
    <TTGlyph name="revlogicalnot" xMin="104" yMin="262" xMax="1067" yMax="795">
      <contour>
        <pt x="1067" y="795" on="1"/>
        <pt x="1067" y="649" on="1"/>
        <pt x="250" y="649" on="1"/>
        <pt x="250" y="262" on="1"/>
        <pt x="104" y="262" on="1"/>
        <pt x="104" y="795" on="1"/>
      </contour>
    </TTGlyph>
    <TTGlyph name="similar" xMin="104" yMin="588" xMax="1067" yMax="856">
      <contour>
        <pt x="336" y="709" on="1"/>
        <pt x="283" y="709" on="0"/>
        <pt x="160" y="644" on="0"/>
        <pt x="104" y="588" on="1"/>
        <pt x="104" y="748" on="1"/>
        <pt x="204" y="856" on="0"/>
        <pt x="348" y="856" on="1"/>
        <pt x="418" y="856" on="0"/>
        <pt x="537" y="825" on="0"/>
        <pt x="618" y="791" on="1"/>
        <pt x="691" y="760" on="0"/>
        <pt x="785" y="735" on="0"/>
        <pt x="831" y="735" on="1"/>
        <pt x="885" y="735" on="0"/>
        <pt x="1013" y="799" on="0"/>
        <pt x="1067" y="856" on="1"/>
        <pt x="1067" y="698" on="1"/>
        <pt x="965" y="588" on="0"/>
        <pt x="821" y="588" on="1"/>
        <pt x="749" y="588" on="0"/>
        <pt x="623" y="621" on="0"/>
        <pt x="551" y="653" on="1"/>
        <pt x="478" y="685" on="0"/>
        <pt x="384" y="709" on="0"/>
      </contour>
    </TTGlyph>
    <TTGlyph name="smileface" xMin="104" yMin="12" xMax="1526" yMax="1434">
      <contour>
        <pt x="104" y="723" on="1"/>
        <pt x="104" y="913" on="0"/>
        <pt x="294" y="1244" on="0"/>
        <pt x="625" y="1434" on="0"/>
        <pt x="815" y="1434" on="1"/>
        <pt x="1005" y="1434" on="0"/>
        <pt x="1336" y="1244" on="0"/>
        <pt x="1526" y="913" on="0"/>
        <pt x="1526" y="723" on="1"/>
        <pt x="1526" y="533" on="0"/>
        <pt x="1336" y="202" on="0"/>
        <pt x="1005" y="12" on="0"/>
        <pt x="815" y="12" on="1"/>
        <pt x="625" y="12" on="0"/>
        <pt x="294" y="202" on="0"/>
        <pt x="104" y="533" on="0"/>
      </contour>
      <contour>
        <pt x="215" y="723" on="1"/>
        <pt x="215" y="563" on="0"/>
        <pt x="377" y="284" on="0"/>
        <pt x="657" y="123" on="0"/>
        <pt x="815" y="123" on="1"/>
        <pt x="975" y="123" on="0"/>
        <pt x="1254" y="285" on="0"/>
        <pt x="1415" y="565" on="0"/>
        <pt x="1415" y="723" on="1"/>
        <pt x="1415" y="883" on="0"/>
        <pt x="1253" y="1162" on="0"/>
        <pt x="973" y="1323" on="0"/>
        <pt x="815" y="1323" on="1"/>
        <pt x="655" y="1323" on="0"/>
        <pt x="376" y="1161" on="0"/>
        <pt x="215" y="881" on="0"/>
      </contour>
      <contour>
        <pt x="453" y="870" on="1"/>
        <pt x="453" y="908" on="0"/>
        <pt x="504" y="963" on="0"/>
        <pt x="545" y="963" on="1"/>
        <pt x="585" y="963" on="0"/>
        <pt x="637" y="908" on="0"/>
        <pt x="637" y="870" on="1"/>
        <pt x="637" y="831" on="0"/>
        <pt x="584" y="778" on="0"/>
        <pt x="545" y="778" on="1"/>
        <pt x="506" y="778" on="0"/>
        <pt x="453" y="831" on="0"/>
      </contour>
      <contour>
        <pt x="993" y="870" on="1"/>
        <pt x="993" y="908" on="0"/>
        <pt x="1044" y="963" on="0"/>
        <pt x="1085" y="963" on="1"/>
        <pt x="1124" y="963" on="0"/>
        <pt x="1178" y="909" on="0"/>
        <pt x="1178" y="870" on="1"/>
        <pt x="1178" y="830" on="0"/>
        <pt x="1123" y="778" on="0"/>
        <pt x="1085" y="778" on="1"/>
        <pt x="1046" y="778" on="0"/>
        <pt x="993" y="831" on="0"/>
      </contour>
      <contour>
        <pt x="555" y="594" on="1"/>
        <pt x="640" y="434" on="0"/>
        <pt x="813" y="434" on="1"/>
        <pt x="983" y="434" on="0"/>
        <pt x="1071" y="594" on="1"/>
        <pt x="1143" y="555" on="1"/>
        <pt x="1028" y="336" on="0"/>
        <pt x="813" y="336" on="1"/>
        <pt x="600" y="336" on="0"/>
        <pt x="485" y="555" on="1"/>
      </contour>
    </TTGlyph>
    <TTGlyph name="spade" xMin="104" yMin="0" xMax="1386" yMax="1485">
      <contour>
        <pt x="788" y="1485" on="1"/>
        <pt x="851" y="1368" on="0"/>
        <pt x="1099" y="1078" on="0"/>
        <pt x="1223" y="972" on="1"/>
        <pt x="1308" y="899" on="0"/>
        <pt x="1386" y="751" on="0"/>
        <pt x="1386" y="659" on="1"/>
        <pt x="1386" y="527" on="0"/>
        <pt x="1216" y="360" on="0"/>
        <pt x="1090" y="360" on="1"/>
        <pt x="1008" y="360" on="0"/>
        <pt x="861" y="443" on="0"/>
        <pt x="838" y="498" on="1"/>
        <pt x="848" y="390" on="0"/>
        <pt x="903" y="273" on="0"/>
        <pt x="992" y="202" on="0"/>
        <pt x="1124" y="162" on="0"/>
        <pt x="1217" y="162" on="1"/>
        <pt x="1217" y="0" on="1"/>
        <pt x="274" y="0" on="1"/>
        <pt x="274" y="162" on="1"/>
        <pt x="365" y="162" on="0"/>
        <pt x="497" y="202" on="0"/>
        <pt x="586" y="271" on="0"/>
        <pt x="642" y="387" on="0"/>
        <pt x="653" y="498" on="1"/>
        <pt x="630" y="443" on="0"/>
        <pt x="483" y="360" on="0"/>
        <pt x="401" y="360" on="1"/>
        <pt x="320" y="360" on="0"/>
        <pt x="183" y="435" on="0"/>
        <pt x="104" y="571" on="0"/>
        <pt x="104" y="659" on="1"/>
        <pt x="104" y="751" on="0"/>
        <pt x="181" y="897" on="0"/>
        <pt x="268" y="972" on="1"/>
        <pt x="397" y="1084" on="0"/>
        <pt x="631" y="1357" on="0"/>
        <pt x="702" y="1485" on="1"/>
      </contour>
    </TTGlyph>
    <TTGlyph name="suchthat" xMin="104" yMin="127" xMax="1327" yMax="1319">
      <contour>
        <pt x="1327" y="723" on="1"/>
        <pt x="1327" y="430" on="0"/>
        <pt x="968" y="127" on="0"/>
        <pt x="625" y="127" on="1"/>
        <pt x="104" y="127" on="1"/>
        <pt x="104" y="272" on="1"/>
        <pt x="625" y="272" on="1"/>
        <pt x="1134" y="272" on="0"/>
        <pt x="1176" y="651" on="1"/>
        <pt x="104" y="651" on="1"/>
        <pt x="104" y="797" on="1"/>
        <pt x="1176" y="797" on="1"/>
        <pt x="1135" y="1174" on="0"/>
        <pt x="625" y="1174" on="1"/>
        <pt x="104" y="1174" on="1"/>
        <pt x="104" y="1319" on="1"/>
        <pt x="625" y="1319" on="1"/>
        <pt x="969" y="1319" on="0"/>
        <pt x="1327" y="1017" on="0"/>
      </contour>
    </TTGlyph>
    <TTGlyph name="summation" xMin="104" yMin="-492" xMax="1282" yMax="1462">
      <contour>
        <pt x="104" y="-492" on="1"/>
        <pt x="104" y="-379" on="1"/>
        <pt x="731" y="537" on="1"/>
        <pt x="121" y="1348" on="1"/>
        <pt x="121" y="1462" on="1"/>
        <pt x="1217" y="1462" on="1"/>
        <pt x="1217" y="1300" on="1"/>
        <pt x="379" y="1300" on="1"/>
        <pt x="948" y="541" on="1"/>
        <pt x="354" y="-330" on="1"/>
        <pt x="1282" y="-330" on="1"/>
        <pt x="1282" y="-492" on="1"/>
      </contour>
    </TTGlyph>
    <TTGlyph name="sun" xMin="326" yMin="-141" xMax="1550" yMax="1083">
      <contour>
        <pt x="905" y="1083" on="1"/>
        <pt x="971" y="1083" on="1"/>
        <pt x="971" y="866" on="1"/>
        <pt x="1036" y="860" on="0"/>
        <pt x="1137" y="821" on="0"/>
        <pt x="1196" y="776" on="1"/>
        <pt x="1382" y="958" on="1"/>
        <pt x="1427" y="913" on="1"/>
        <pt x="1243" y="729" on="1"/>
        <pt x="1329" y="616" on="0"/>
        <pt x="1335" y="500" on="1"/>
        <pt x="1550" y="500" on="1"/>
        <pt x="1550" y="438" on="1"/>
        <pt x="1335" y="438" on="1"/>
        <pt x="1319" y="313" on="0"/>
        <pt x="1243" y="217" on="1"/>
        <pt x="1427" y="29" on="1"/>
        <pt x="1378" y="-14" on="1"/>
        <pt x="1196" y="168" on="1"/>
        <pt x="1146" y="131" on="0"/>
        <pt x="1059" y="89" on="0"/>
        <pt x="971" y="76" on="1"/>
        <pt x="971" y="-141" on="1"/>
        <pt x="905" y="-141" on="1"/>
        <pt x="905" y="76" on="1"/>
        <pt x="784" y="92" on="0"/>
        <pt x="684" y="166" on="1"/>
        <pt x="496" y="-14" on="1"/>
        <pt x="453" y="31" on="1"/>
        <pt x="635" y="215" on="1"/>
        <pt x="557" y="315" on="0"/>
        <pt x="541" y="440" on="1"/>
        <pt x="326" y="440" on="1"/>
        <pt x="326" y="502" on="1"/>
        <pt x="541" y="502" on="1"/>
        <pt x="553" y="631" on="0"/>
        <pt x="633" y="725" on="1"/>
        <pt x="453" y="909" on="1"/>
        <pt x="494" y="958" on="1"/>
        <pt x="682" y="776" on="1"/>
        <pt x="793" y="854" on="0"/>
        <pt x="905" y="866" on="1"/>
      </contour>
      <contour>
        <pt x="936" y="805" on="1"/>
        <pt x="797" y="805" on="0"/>
        <pt x="604" y="606" on="0"/>
        <pt x="604" y="471" on="1"/>
        <pt x="604" y="336" on="0"/>
        <pt x="799" y="139" on="0"/>
        <pt x="936" y="139" on="1"/>
        <pt x="1075" y="139" on="0"/>
        <pt x="1273" y="339" on="0"/>
        <pt x="1270" y="471" on="1"/>
        <pt x="1270" y="606" on="0"/>
        <pt x="1073" y="805" on="0"/>
      </contour>
    </TTGlyph>
    <TTGlyph name="therefore" xMin="104" yMin="250" xMax="1065" yMax="1194">
      <contour>
        <pt x="461" y="1071" on="1"/>
        <pt x="461" y="1122" on="0"/>
        <pt x="533" y="1194" on="0"/>
        <pt x="584" y="1194" on="1"/>
        <pt x="637" y="1194" on="0"/>
        <pt x="707" y="1118" on="0"/>
        <pt x="707" y="1071" on="1"/>
        <pt x="707" y="1021" on="0"/>
        <pt x="634" y="948" on="0"/>
        <pt x="584" y="948" on="1"/>
        <pt x="535" y="948" on="0"/>
        <pt x="461" y="1019" on="0"/>
      </contour>
      <contour>
        <pt x="104" y="373" on="1"/>
        <pt x="104" y="423" on="0"/>
        <pt x="177" y="496" on="0"/>
        <pt x="227" y="496" on="1"/>
        <pt x="275" y="496" on="0"/>
        <pt x="350" y="426" on="0"/>
        <pt x="350" y="373" on="1"/>
        <pt x="350" y="322" on="0"/>
        <pt x="278" y="250" on="0"/>
        <pt x="227" y="250" on="1"/>
        <pt x="175" y="250" on="0"/>
        <pt x="104" y="324" on="0"/>
      </contour>
      <contour>
        <pt x="819" y="373" on="1"/>
        <pt x="819" y="425" on="0"/>
        <pt x="893" y="496" on="0"/>
        <pt x="942" y="496" on="1"/>
        <pt x="990" y="496" on="0"/>
        <pt x="1065" y="426" on="0"/>
        <pt x="1065" y="373" on="1"/>
        <pt x="1065" y="322" on="0"/>
        <pt x="993" y="250" on="0"/>
        <pt x="942" y="250" on="1"/>
        <pt x="891" y="250" on="0"/>
        <pt x="819" y="322" on="0"/>
      </contour>
    </TTGlyph>
    <TTGlyph name="uni0338" xMin="104" yMin="0" xMax="1151" yMax="1462">
      <contour>
        <pt x="1151" y="1462" on="1"/>
        <pt x="258" y="0" on="1"/>
        <pt x="104" y="0" on="1"/>
        <pt x="997" y="1462" on="1"/>
      </contour>
    </TTGlyph>
    <TTGlyph name="uni2196" xMin="317" yMin="86" xMax="1219" yMax="987">
      <contour>
        <pt x="459" y="784" on="1"/>
        <pt x="451" y="696" on="0"/>
        <pt x="403" y="561" on="1"/>
        <pt x="352" y="612" on="1"/>
        <pt x="356" y="661" on="0"/>
        <pt x="356" y="706" on="1"/>
        <pt x="356" y="846" on="0"/>
        <pt x="317" y="961" on="1"/>
        <pt x="344" y="987" on="1"/>
        <pt x="460" y="948" on="0"/>
        <pt x="601" y="948" on="1"/>
        <pt x="692" y="952" on="1"/>
        <pt x="743" y="901" on="1"/>
        <pt x="608" y="854" on="0"/>
        <pt x="520" y="846" on="1"/>
        <pt x="1219" y="147" on="1"/>
        <pt x="1157" y="86" on="1"/>
      </contour>
    </TTGlyph>
    <TTGlyph name="uni2197" xMin="317" yMin="86" xMax="1219" yMax="987">
      <contour>
        <pt x="379" y="86" on="1"/>
        <pt x="317" y="147" on="1"/>
        <pt x="1016" y="846" on="1"/>
        <pt x="928" y="854" on="0"/>
        <pt x="793" y="901" on="1"/>
        <pt x="844" y="952" on="1"/>
        <pt x="935" y="948" on="1"/>
        <pt x="1076" y="948" on="0"/>
        <pt x="1192" y="987" on="1"/>
        <pt x="1219" y="961" on="1"/>
        <pt x="1180" y="846" on="0"/>
        <pt x="1180" y="706" on="1"/>
        <pt x="1180" y="661" on="0"/>
        <pt x="1184" y="612" on="1"/>
        <pt x="1133" y="561" on="1"/>
        <pt x="1085" y="696" on="0"/>
        <pt x="1077" y="784" on="1"/>
      </contour>
    </TTGlyph>
    <TTGlyph name="uni2198" xMin="317" yMin="86" xMax="1219" yMax="987">
      <contour>
        <pt x="1077" y="289" on="1"/>
        <pt x="1085" y="377" on="0"/>
        <pt x="1133" y="512" on="1"/>
        <pt x="1184" y="461" on="1"/>
        <pt x="1180" y="412" on="0"/>
        <pt x="1180" y="367" on="1"/>
        <pt x="1180" y="227" on="0"/>
        <pt x="1219" y="113" on="1"/>
        <pt x="1192" y="86" on="1"/>
        <pt x="1076" y="125" on="0"/>
        <pt x="935" y="125" on="1"/>
        <pt x="844" y="121" on="1"/>
        <pt x="793" y="172" on="1"/>
        <pt x="928" y="219" on="0"/>
        <pt x="1016" y="227" on="1"/>
        <pt x="317" y="926" on="1"/>
        <pt x="379" y="987" on="1"/>
      </contour>
    </TTGlyph>
    <TTGlyph name="uni2199" xMin="317" yMin="86" xMax="1219" yMax="987">
      <contour>
        <pt x="1157" y="987" on="1"/>
        <pt x="1219" y="926" on="1"/>
        <pt x="520" y="227" on="1"/>
        <pt x="608" y="219" on="0"/>
        <pt x="743" y="172" on="1"/>
        <pt x="692" y="121" on="1"/>
        <pt x="601" y="125" on="1"/>
        <pt x="460" y="125" on="0"/>
        <pt x="344" y="86" on="1"/>
        <pt x="317" y="113" on="1"/>
        <pt x="356" y="227" on="0"/>
        <pt x="356" y="367" on="1"/>
        <pt x="356" y="412" on="0"/>
        <pt x="352" y="461" on="1"/>
        <pt x="403" y="512" on="1"/>
        <pt x="451" y="377" on="0"/>
        <pt x="459" y="289" on="1"/>
      </contour>
    </TTGlyph>
    <TTGlyph name="uni219A" xMin="418" yMin="100" xMax="1630" yMax="580">
      <contour>
        <pt x="760" y="100" on="1"/>
        <pt x="688" y="100" on="1"/>
        <pt x="561" y="250" on="0"/>
        <pt x="418" y="322" on="1"/>
        <pt x="418" y="358" on="1"/>
        <pt x="561" y="430" on="0"/>
        <pt x="688" y="580" on="1"/>
        <pt x="760" y="580" on="1"/>
        <pt x="698" y="451" on="0"/>
        <pt x="641" y="383" on="1"/>
        <pt x="1087" y="383" on="1"/>
        <pt x="1194" y="580" on="1"/>
        <pt x="1290" y="580" on="1"/>
        <pt x="1186" y="383" on="1"/>
        <pt x="1630" y="383" on="1"/>
        <pt x="1630" y="297" on="1"/>
        <pt x="1141" y="297" on="1"/>
        <pt x="1036" y="100" on="1"/>
        <pt x="936" y="100" on="1"/>
        <pt x="1040" y="297" on="1"/>
        <pt x="641" y="297" on="1"/>
        <pt x="698" y="229" on="0"/>
      </contour>
    </TTGlyph>
    <TTGlyph name="uni219B" xMin="418" yMin="100" xMax="1630" yMax="580">
      <contour>
        <pt x="862" y="297" on="1"/>
        <pt x="418" y="297" on="1"/>
        <pt x="418" y="383" on="1"/>
        <pt x="909" y="383" on="1"/>
        <pt x="1016" y="580" on="1"/>
        <pt x="1112" y="580" on="1"/>
        <pt x="1008" y="383" on="1"/>
        <pt x="1407" y="383" on="1"/>
        <pt x="1350" y="451" on="0"/>
        <pt x="1288" y="580" on="1"/>
        <pt x="1360" y="580" on="1"/>
        <pt x="1487" y="430" on="0"/>
        <pt x="1630" y="358" on="1"/>
        <pt x="1630" y="322" on="1"/>
        <pt x="1487" y="250" on="0"/>
        <pt x="1360" y="100" on="1"/>
        <pt x="1288" y="100" on="1"/>
        <pt x="1350" y="229" on="0"/>
        <pt x="1407" y="297" on="1"/>
        <pt x="963" y="297" on="1"/>
        <pt x="858" y="100" on="1"/>
        <pt x="758" y="100" on="1"/>
      </contour>
    </TTGlyph>
    <TTGlyph name="uni219C" xMin="426" yMin="164" xMax="1624" yMax="594">
      <contour>
        <pt x="512" y="168" on="1"/>
        <pt x="461" y="219" on="1"/>
        <pt x="465" y="310" on="1"/>
        <pt x="465" y="452" on="0"/>
        <pt x="426" y="567" on="1"/>
        <pt x="453" y="594" on="1"/>
        <pt x="568" y="555" on="0"/>
        <pt x="710" y="555" on="1"/>
        <pt x="801" y="559" on="1"/>
        <pt x="852" y="508" on="1"/>
        <pt x="717" y="461" on="0"/>
        <pt x="629" y="453" on="1"/>
        <pt x="758" y="322" on="0"/>
        <pt x="815" y="277" on="0"/>
        <pt x="867" y="250" on="0"/>
        <pt x="889" y="250" on="1"/>
        <pt x="939" y="250" on="0"/>
        <pt x="1026" y="332" on="1"/>
        <pt x="1102" y="397" on="1"/>
        <pt x="1216" y="500" on="0"/>
        <pt x="1303" y="500" on="1"/>
        <pt x="1393" y="500" on="0"/>
        <pt x="1469" y="419" on="1"/>
        <pt x="1624" y="260" on="1"/>
        <pt x="1563" y="201" on="1"/>
        <pt x="1422" y="344" on="1"/>
        <pt x="1353" y="414" on="0"/>
        <pt x="1303" y="414" on="1"/>
        <pt x="1267" y="414" on="0"/>
        <pt x="1195" y="366" on="0"/>
        <pt x="1163" y="338" on="1"/>
        <pt x="1077" y="264" on="1"/>
        <pt x="965" y="164" on="0"/>
        <pt x="889" y="164" on="1"/>
        <pt x="848" y="164" on="0"/>
        <pt x="781" y="190" on="0"/>
        <pt x="715" y="240" on="0"/>
        <pt x="655" y="303" on="1"/>
        <pt x="567" y="391" on="1"/>
        <pt x="559" y="303" on="0"/>
      </contour>
    </TTGlyph>
    <TTGlyph name="uni219D" xMin="426" yMin="164" xMax="1624" yMax="594">
      <contour>
        <pt x="1161" y="164" on="1"/>
        <pt x="1085" y="164" on="0"/>
        <pt x="973" y="264" on="1"/>
        <pt x="887" y="338" on="1"/>
        <pt x="855" y="366" on="0"/>
        <pt x="783" y="414" on="0"/>
        <pt x="748" y="414" on="1"/>
        <pt x="697" y="414" on="0"/>
        <pt x="629" y="344" on="1"/>
        <pt x="487" y="201" on="1"/>
        <pt x="426" y="260" on="1"/>
        <pt x="582" y="419" on="1"/>
        <pt x="623" y="462" on="0"/>
        <pt x="702" y="500" on="0"/>
        <pt x="748" y="500" on="1"/>
        <pt x="834" y="500" on="0"/>
        <pt x="948" y="397" on="1"/>
        <pt x="1024" y="332" on="1"/>
        <pt x="1111" y="250" on="0"/>
        <pt x="1161" y="250" on="1"/>
        <pt x="1191" y="250" on="0"/>
        <pt x="1272" y="302" on="0"/>
        <pt x="1357" y="391" on="0"/>
        <pt x="1421" y="453" on="1"/>
        <pt x="1333" y="461" on="0"/>
        <pt x="1198" y="508" on="1"/>
        <pt x="1249" y="559" on="1"/>
        <pt x="1340" y="555" on="1"/>
        <pt x="1482" y="555" on="0"/>
        <pt x="1597" y="594" on="1"/>
        <pt x="1624" y="567" on="1"/>
        <pt x="1585" y="452" on="0"/>
        <pt x="1585" y="310" on="1"/>
        <pt x="1589" y="219" on="1"/>
        <pt x="1538" y="168" on="1"/>
        <pt x="1491" y="303" on="0"/>
        <pt x="1483" y="391" on="1"/>
        <pt x="1395" y="303" on="1"/>
        <pt x="1332" y="237" on="0"/>
        <pt x="1268" y="189" on="0"/>
        <pt x="1200" y="164" on="0"/>
      </contour>
    </TTGlyph>
    <TTGlyph name="uni219E" xMin="418" yMin="100" xMax="1630" yMax="580">
      <contour>
        <pt x="893" y="297" on="1"/>
        <pt x="950" y="229" on="0"/>
        <pt x="1012" y="100" on="1"/>
        <pt x="940" y="100" on="1"/>
        <pt x="834" y="225" on="0"/>
        <pt x="715" y="297" on="1"/>
        <pt x="641" y="297" on="1"/>
        <pt x="698" y="229" on="0"/>
        <pt x="760" y="100" on="1"/>
        <pt x="688" y="100" on="1"/>
        <pt x="561" y="250" on="0"/>
        <pt x="418" y="322" on="1"/>
        <pt x="418" y="358" on="1"/>
        <pt x="561" y="430" on="0"/>
        <pt x="688" y="580" on="1"/>
        <pt x="760" y="580" on="1"/>
        <pt x="698" y="451" on="0"/>
        <pt x="641" y="383" on="1"/>
        <pt x="715" y="383" on="1"/>
        <pt x="834" y="455" on="0"/>
        <pt x="940" y="580" on="1"/>
        <pt x="1012" y="580" on="1"/>
        <pt x="950" y="451" on="0"/>
        <pt x="893" y="383" on="1"/>
        <pt x="1630" y="383" on="1"/>
        <pt x="1630" y="297" on="1"/>
      </contour>
    </TTGlyph>
    <TTGlyph name="uni219F" xMin="272" yMin="-61" xMax="752" yMax="1151">
      <contour>
        <pt x="555" y="-61" on="1"/>
        <pt x="469" y="-61" on="1"/>
        <pt x="469" y="676" on="1"/>
        <pt x="401" y="618" on="0"/>
        <pt x="272" y="557" on="1"/>
        <pt x="272" y="629" on="1"/>
        <pt x="397" y="735" on="0"/>
        <pt x="469" y="854" on="1"/>
        <pt x="469" y="928" on="1"/>
        <pt x="401" y="870" on="0"/>
        <pt x="272" y="809" on="1"/>
        <pt x="272" y="881" on="1"/>
        <pt x="422" y="1008" on="0"/>
        <pt x="494" y="1151" on="1"/>
        <pt x="530" y="1151" on="1"/>
        <pt x="602" y="1008" on="0"/>
        <pt x="752" y="881" on="1"/>
        <pt x="752" y="809" on="1"/>
        <pt x="623" y="870" on="0"/>
        <pt x="555" y="928" on="1"/>
        <pt x="555" y="854" on="1"/>
        <pt x="627" y="735" on="0"/>
        <pt x="752" y="629" on="1"/>
        <pt x="752" y="557" on="1"/>
        <pt x="623" y="618" on="0"/>
        <pt x="555" y="676" on="1"/>
      </contour>
    </TTGlyph>
    <TTGlyph name="uni21A0" xMin="418" yMin="100" xMax="1630" yMax="580">
      <contour>
        <pt x="418" y="297" on="1"/>
        <pt x="418" y="383" on="1"/>
        <pt x="1155" y="383" on="1"/>
        <pt x="1098" y="451" on="0"/>
        <pt x="1036" y="580" on="1"/>
        <pt x="1108" y="580" on="1"/>
        <pt x="1214" y="455" on="0"/>
        <pt x="1333" y="383" on="1"/>
        <pt x="1407" y="383" on="1"/>
        <pt x="1350" y="451" on="0"/>
        <pt x="1288" y="580" on="1"/>
        <pt x="1360" y="580" on="1"/>
        <pt x="1487" y="430" on="0"/>
        <pt x="1630" y="358" on="1"/>
        <pt x="1630" y="322" on="1"/>
        <pt x="1487" y="250" on="0"/>
        <pt x="1360" y="100" on="1"/>
        <pt x="1288" y="100" on="1"/>
        <pt x="1350" y="229" on="0"/>
        <pt x="1407" y="297" on="1"/>
        <pt x="1333" y="297" on="1"/>
        <pt x="1214" y="225" on="0"/>
        <pt x="1108" y="100" on="1"/>
        <pt x="1036" y="100" on="1"/>
        <pt x="1098" y="229" on="0"/>
        <pt x="1155" y="297" on="1"/>
      </contour>
    </TTGlyph>
    <TTGlyph name="uni21A1" xMin="272" yMin="-61" xMax="752" yMax="1151">
      <contour>
        <pt x="555" y="414" on="1"/>
        <pt x="623" y="471" on="0"/>
        <pt x="752" y="532" on="1"/>
        <pt x="752" y="461" on="1"/>
        <pt x="627" y="354" on="0"/>
        <pt x="555" y="236" on="1"/>
        <pt x="555" y="162" on="1"/>
        <pt x="623" y="219" on="0"/>
        <pt x="752" y="281" on="1"/>
        <pt x="752" y="209" on="1"/>
        <pt x="602" y="82" on="0"/>
        <pt x="530" y="-61" on="1"/>
        <pt x="494" y="-61" on="1"/>
        <pt x="422" y="82" on="0"/>
        <pt x="272" y="209" on="1"/>
        <pt x="272" y="281" on="1"/>
        <pt x="401" y="219" on="0"/>
        <pt x="469" y="162" on="1"/>
        <pt x="469" y="236" on="1"/>
        <pt x="397" y="354" on="0"/>
        <pt x="272" y="461" on="1"/>
        <pt x="272" y="532" on="1"/>
        <pt x="401" y="471" on="0"/>
        <pt x="469" y="414" on="1"/>
        <pt x="469" y="1151" on="1"/>
        <pt x="555" y="1151" on="1"/>
      </contour>
    </TTGlyph>
    <TTGlyph name="uni21A2" xMin="418" yMin="100" xMax="1630" yMax="580">
      <contour>
        <pt x="1366" y="297" on="1"/>
        <pt x="641" y="297" on="1"/>
        <pt x="698" y="229" on="0"/>
        <pt x="760" y="100" on="1"/>
        <pt x="688" y="100" on="1"/>
        <pt x="561" y="250" on="0"/>
        <pt x="418" y="322" on="1"/>
        <pt x="418" y="358" on="1"/>
        <pt x="561" y="430" on="0"/>
        <pt x="688" y="580" on="1"/>
        <pt x="760" y="580" on="1"/>
        <pt x="698" y="451" on="0"/>
        <pt x="641" y="383" on="1"/>
        <pt x="1366" y="383" on="1"/>
        <pt x="1526" y="580" on="1"/>
        <pt x="1630" y="580" on="1"/>
        <pt x="1436" y="340" on="1"/>
        <pt x="1630" y="100" on="1"/>
        <pt x="1526" y="100" on="1"/>
      </contour>
    </TTGlyph>
    <TTGlyph name="uni21A3" xMin="418" yMin="100" xMax="1630" yMax="580">
      <contour>
        <pt x="522" y="100" on="1"/>
        <pt x="418" y="100" on="1"/>
        <pt x="612" y="340" on="1"/>
        <pt x="418" y="580" on="1"/>
        <pt x="522" y="580" on="1"/>
        <pt x="682" y="383" on="1"/>
        <pt x="1407" y="383" on="1"/>
        <pt x="1350" y="451" on="0"/>
        <pt x="1288" y="580" on="1"/>
        <pt x="1360" y="580" on="1"/>
        <pt x="1487" y="430" on="0"/>
        <pt x="1630" y="358" on="1"/>
        <pt x="1630" y="322" on="1"/>
        <pt x="1487" y="250" on="0"/>
        <pt x="1360" y="100" on="1"/>
        <pt x="1288" y="100" on="1"/>
        <pt x="1350" y="229" on="0"/>
        <pt x="1407" y="297" on="1"/>
        <pt x="682" y="297" on="1"/>
      </contour>
    </TTGlyph>
    <TTGlyph name="uni21A4" xMin="418" yMin="100" xMax="1630" yMax="580">
      <contour>
        <pt x="1550" y="297" on="1"/>
        <pt x="641" y="297" on="1"/>
        <pt x="698" y="229" on="0"/>
        <pt x="760" y="100" on="1"/>
        <pt x="688" y="100" on="1"/>
        <pt x="561" y="250" on="0"/>
        <pt x="418" y="322" on="1"/>
        <pt x="418" y="358" on="1"/>
        <pt x="561" y="430" on="0"/>
        <pt x="688" y="580" on="1"/>
        <pt x="760" y="580" on="1"/>
        <pt x="698" y="451" on="0"/>
        <pt x="641" y="383" on="1"/>
        <pt x="1550" y="383" on="1"/>
        <pt x="1550" y="580" on="1"/>
        <pt x="1630" y="580" on="1"/>
        <pt x="1630" y="100" on="1"/>
        <pt x="1550" y="100" on="1"/>
      </contour>
    </TTGlyph>
    <TTGlyph name="uni21A5" xMin="272" yMin="-61" xMax="752" yMax="1151">
      <contour>
        <pt x="752" y="18" on="1"/>
        <pt x="752" y="-61" on="1"/>
        <pt x="272" y="-61" on="1"/>
        <pt x="272" y="18" on="1"/>
        <pt x="469" y="18" on="1"/>
        <pt x="469" y="928" on="1"/>
        <pt x="401" y="870" on="0"/>
        <pt x="272" y="809" on="1"/>
        <pt x="272" y="881" on="1"/>
        <pt x="422" y="1008" on="0"/>
        <pt x="494" y="1151" on="1"/>
        <pt x="530" y="1151" on="1"/>
        <pt x="602" y="1008" on="0"/>
        <pt x="752" y="881" on="1"/>
        <pt x="752" y="809" on="1"/>
        <pt x="623" y="870" on="0"/>
        <pt x="555" y="928" on="1"/>
        <pt x="555" y="18" on="1"/>
      </contour>
    </TTGlyph>
    <TTGlyph name="uni21A6" xMin="418" yMin="100" xMax="1630" yMax="580">
      <contour>
        <pt x="498" y="100" on="1"/>
        <pt x="418" y="100" on="1"/>
        <pt x="418" y="580" on="1"/>
        <pt x="498" y="580" on="1"/>
        <pt x="498" y="383" on="1"/>
        <pt x="1407" y="383" on="1"/>
        <pt x="1350" y="451" on="0"/>
        <pt x="1288" y="580" on="1"/>
        <pt x="1360" y="580" on="1"/>
        <pt x="1487" y="430" on="0"/>
        <pt x="1630" y="358" on="1"/>
        <pt x="1630" y="322" on="1"/>
        <pt x="1487" y="250" on="0"/>
        <pt x="1360" y="100" on="1"/>
        <pt x="1288" y="100" on="1"/>
        <pt x="1350" y="229" on="0"/>
        <pt x="1407" y="297" on="1"/>
        <pt x="498" y="297" on="1"/>
      </contour>
    </TTGlyph>
    <TTGlyph name="uni21A7" xMin="272" yMin="-61" xMax="752" yMax="1151">
      <contour>
        <pt x="555" y="1071" on="1"/>
        <pt x="555" y="162" on="1"/>
        <pt x="623" y="219" on="0"/>
        <pt x="752" y="281" on="1"/>
        <pt x="752" y="209" on="1"/>
        <pt x="602" y="82" on="0"/>
        <pt x="530" y="-61" on="1"/>
        <pt x="494" y="-61" on="1"/>
        <pt x="422" y="82" on="0"/>
        <pt x="272" y="209" on="1"/>
        <pt x="272" y="281" on="1"/>
        <pt x="401" y="219" on="0"/>
        <pt x="469" y="162" on="1"/>
        <pt x="469" y="1071" on="1"/>
        <pt x="272" y="1071" on="1"/>
        <pt x="272" y="1151" on="1"/>
        <pt x="752" y="1151" on="1"/>
        <pt x="752" y="1071" on="1"/>
      </contour>
    </TTGlyph>
    <TTGlyph name="uni21A9" xMin="418" yMin="100" xMax="1630" yMax="698">
      <contour>
        <pt x="1243" y="698" on="1"/>
        <pt x="1382" y="698" on="1"/>
        <pt x="1508" y="698" on="0"/>
        <pt x="1630" y="603" on="0"/>
        <pt x="1630" y="498" on="1"/>
        <pt x="1630" y="395" on="0"/>
        <pt x="1508" y="297" on="0"/>
        <pt x="1366" y="297" on="1"/>
        <pt x="641" y="297" on="1"/>
        <pt x="698" y="229" on="0"/>
        <pt x="760" y="100" on="1"/>
        <pt x="688" y="100" on="1"/>
        <pt x="561" y="252" on="0"/>
        <pt x="418" y="322" on="1"/>
        <pt x="418" y="358" on="1"/>
        <pt x="561" y="430" on="0"/>
        <pt x="688" y="580" on="1"/>
        <pt x="760" y="580" on="1"/>
        <pt x="698" y="451" on="0"/>
        <pt x="641" y="383" on="1"/>
        <pt x="1366" y="383" on="1"/>
        <pt x="1463" y="383" on="0"/>
        <pt x="1544" y="434" on="0"/>
        <pt x="1544" y="498" on="1"/>
        <pt x="1544" y="559" on="0"/>
        <pt x="1467" y="612" on="0"/>
        <pt x="1382" y="612" on="1"/>
        <pt x="1243" y="612" on="1"/>
      </contour>
    </TTGlyph>
    <TTGlyph name="uni21AA" xMin="418" yMin="100" xMax="1630" yMax="698">
      <contour>
        <pt x="805" y="612" on="1"/>
        <pt x="666" y="612" on="1"/>
        <pt x="582" y="612" on="0"/>
        <pt x="504" y="559" on="0"/>
        <pt x="504" y="498" on="1"/>
        <pt x="504" y="434" on="0"/>
        <pt x="585" y="383" on="0"/>
        <pt x="682" y="383" on="1"/>
        <pt x="1407" y="383" on="1"/>
        <pt x="1350" y="451" on="0"/>
        <pt x="1288" y="580" on="1"/>
        <pt x="1360" y="580" on="1"/>
        <pt x="1487" y="430" on="0"/>
        <pt x="1630" y="358" on="1"/>
        <pt x="1630" y="322" on="1"/>
        <pt x="1487" y="252" on="0"/>
        <pt x="1360" y="100" on="1"/>
        <pt x="1288" y="100" on="1"/>
        <pt x="1350" y="229" on="0"/>
        <pt x="1407" y="297" on="1"/>
        <pt x="682" y="297" on="1"/>
        <pt x="541" y="297" on="0"/>
        <pt x="418" y="395" on="0"/>
        <pt x="418" y="498" on="1"/>
        <pt x="418" y="603" on="0"/>
        <pt x="539" y="698" on="0"/>
        <pt x="666" y="698" on="1"/>
        <pt x="805" y="698" on="1"/>
      </contour>
    </TTGlyph>
    <TTGlyph name="uni21AB" xMin="418" yMin="100" xMax="1630" yMax="698">
      <contour>
        <pt x="641" y="297" on="1"/>
        <pt x="698" y="229" on="0"/>
        <pt x="760" y="100" on="1"/>
        <pt x="688" y="100" on="1"/>
        <pt x="561" y="252" on="0"/>
        <pt x="418" y="322" on="1"/>
        <pt x="418" y="358" on="1"/>
        <pt x="561" y="430" on="0"/>
        <pt x="688" y="580" on="1"/>
        <pt x="760" y="580" on="1"/>
        <pt x="698" y="451" on="0"/>
        <pt x="641" y="383" on="1"/>
        <pt x="1208" y="383" on="1"/>
        <pt x="1208" y="440" on="1"/>
        <pt x="1208" y="560" on="0"/>
        <pt x="1323" y="698" on="0"/>
        <pt x="1427" y="698" on="1"/>
        <pt x="1491" y="698" on="0"/>
        <pt x="1581" y="647" on="0"/>
        <pt x="1630" y="557" on="0"/>
        <pt x="1630" y="504" on="1"/>
        <pt x="1630" y="403" on="0"/>
        <pt x="1497" y="297" on="0"/>
        <pt x="1366" y="297" on="1"/>
        <pt x="1294" y="297" on="1"/>
        <pt x="1294" y="100" on="1"/>
        <pt x="1208" y="100" on="1"/>
        <pt x="1208" y="297" on="1"/>
      </contour>
      <contour>
        <pt x="1294" y="383" on="1"/>
        <pt x="1366" y="383" on="1"/>
        <pt x="1544" y="383" on="0"/>
        <pt x="1544" y="504" on="1"/>
        <pt x="1544" y="554" on="0"/>
        <pt x="1478" y="616" on="0"/>
        <pt x="1427" y="616" on="1"/>
        <pt x="1364" y="616" on="0"/>
        <pt x="1294" y="522" on="0"/>
        <pt x="1294" y="440" on="1"/>
      </contour>
    </TTGlyph>
    <TTGlyph name="uni21AC" xMin="418" yMin="100" xMax="1630" yMax="698">
      <contour>
        <pt x="840" y="297" on="1"/>
        <pt x="840" y="100" on="1"/>
        <pt x="754" y="100" on="1"/>
        <pt x="754" y="297" on="1"/>
        <pt x="682" y="297" on="1"/>
        <pt x="552" y="297" on="0"/>
        <pt x="418" y="403" on="0"/>
        <pt x="418" y="504" on="1"/>
        <pt x="418" y="556" on="0"/>
        <pt x="466" y="646" on="0"/>
        <pt x="555" y="698" on="0"/>
        <pt x="621" y="698" on="1"/>
        <pt x="725" y="698" on="0"/>
        <pt x="840" y="559" on="0"/>
        <pt x="840" y="440" on="1"/>
        <pt x="840" y="383" on="1"/>
        <pt x="1407" y="383" on="1"/>
        <pt x="1350" y="451" on="0"/>
        <pt x="1288" y="580" on="1"/>
        <pt x="1360" y="580" on="1"/>
        <pt x="1487" y="430" on="0"/>
        <pt x="1630" y="358" on="1"/>
        <pt x="1630" y="322" on="1"/>
        <pt x="1487" y="252" on="0"/>
        <pt x="1360" y="100" on="1"/>
        <pt x="1288" y="100" on="1"/>
        <pt x="1350" y="229" on="0"/>
        <pt x="1407" y="297" on="1"/>
      </contour>
      <contour>
        <pt x="754" y="440" on="1"/>
        <pt x="754" y="523" on="0"/>
        <pt x="684" y="616" on="0"/>
        <pt x="621" y="616" on="1"/>
        <pt x="569" y="616" on="0"/>
        <pt x="504" y="554" on="0"/>
        <pt x="504" y="504" on="1"/>
        <pt x="504" y="383" on="0"/>
        <pt x="682" y="383" on="1"/>
        <pt x="754" y="383" on="1"/>
      </contour>
    </TTGlyph>
    <TTGlyph name="uni21AD" xMin="418" yMin="100" xMax="1630" yMax="580">
      <contour>
        <pt x="1024" y="414" on="1"/>
        <pt x="1010" y="414" on="0"/>
        <pt x="1000" y="390" on="1"/>
        <pt x="945" y="259" on="0"/>
        <pt x="908" y="195" on="0"/>
        <pt x="869" y="160" on="0"/>
        <pt x="844" y="160" on="1"/>
        <pt x="784" y="160" on="0"/>
        <pt x="742" y="252" on="1"/>
        <pt x="719" y="297" on="1"/>
        <pt x="641" y="297" on="1"/>
        <pt x="698" y="229" on="0"/>
        <pt x="760" y="100" on="1"/>
        <pt x="688" y="100" on="1"/>
        <pt x="561" y="250" on="0"/>
        <pt x="418" y="322" on="1"/>
        <pt x="418" y="358" on="1"/>
        <pt x="561" y="430" on="0"/>
        <pt x="688" y="580" on="1"/>
        <pt x="760" y="580" on="1"/>
        <pt x="698" y="451" on="0"/>
        <pt x="641" y="383" on="1"/>
        <pt x="772" y="383" on="1"/>
        <pt x="784" y="326" on="0"/>
        <pt x="821" y="246" on="0"/>
        <pt x="840" y="246" on="1"/>
        <pt x="855" y="246" on="0"/>
        <pt x="884" y="310" on="0"/>
        <pt x="907" y="367" on="1"/>
        <pt x="925" y="411" on="1"/>
        <pt x="960" y="500" on="0"/>
        <pt x="1024" y="500" on="1"/>
        <pt x="1088" y="500" on="0"/>
        <pt x="1123" y="411" on="1"/>
        <pt x="1141" y="367" on="1"/>
        <pt x="1164" y="310" on="0"/>
        <pt x="1193" y="246" on="0"/>
        <pt x="1208" y="246" on="1"/>
        <pt x="1226" y="246" on="0"/>
        <pt x="1263" y="323" on="0"/>
        <pt x="1276" y="383" on="1"/>
        <pt x="1407" y="383" on="1"/>
        <pt x="1350" y="451" on="0"/>
        <pt x="1288" y="580" on="1"/>
        <pt x="1360" y="580" on="1"/>
        <pt x="1487" y="430" on="0"/>
        <pt x="1630" y="358" on="1"/>
        <pt x="1630" y="322" on="1"/>
        <pt x="1487" y="250" on="0"/>
        <pt x="1360" y="100" on="1"/>
        <pt x="1288" y="100" on="1"/>
        <pt x="1350" y="229" on="0"/>
        <pt x="1407" y="297" on="1"/>
        <pt x="1329" y="297" on="1"/>
        <pt x="1307" y="252" on="1"/>
        <pt x="1264" y="160" on="0"/>
        <pt x="1204" y="160" on="1"/>
        <pt x="1174" y="160" on="0"/>
        <pt x="1120" y="221" on="0"/>
        <pt x="1079" y="315" on="1"/>
        <pt x="1058" y="366" on="0"/>
        <pt x="1038" y="414" on="0"/>
      </contour>
    </TTGlyph>
    <TTGlyph name="uni21AE" xMin="418" yMin="100" xMax="1630" yMax="580">
      <contour>
        <pt x="760" y="100" on="1"/>
        <pt x="688" y="100" on="1"/>
        <pt x="561" y="250" on="0"/>
        <pt x="418" y="322" on="1"/>
        <pt x="418" y="358" on="1"/>
        <pt x="561" y="430" on="0"/>
        <pt x="688" y="580" on="1"/>
        <pt x="760" y="580" on="1"/>
        <pt x="698" y="451" on="0"/>
        <pt x="641" y="383" on="1"/>
        <pt x="999" y="383" on="1"/>
        <pt x="1106" y="580" on="1"/>
        <pt x="1202" y="580" on="1"/>
        <pt x="1098" y="383" on="1"/>
        <pt x="1407" y="383" on="1"/>
        <pt x="1350" y="451" on="0"/>
        <pt x="1288" y="580" on="1"/>
        <pt x="1360" y="580" on="1"/>
        <pt x="1487" y="430" on="0"/>
        <pt x="1630" y="358" on="1"/>
        <pt x="1630" y="322" on="1"/>
        <pt x="1487" y="250" on="0"/>
        <pt x="1360" y="100" on="1"/>
        <pt x="1288" y="100" on="1"/>
        <pt x="1350" y="229" on="0"/>
        <pt x="1407" y="297" on="1"/>
        <pt x="1053" y="297" on="1"/>
        <pt x="948" y="100" on="1"/>
        <pt x="848" y="100" on="1"/>
        <pt x="952" y="297" on="1"/>
        <pt x="641" y="297" on="1"/>
        <pt x="698" y="229" on="0"/>
      </contour>
    </TTGlyph>
    <TTGlyph name="uni21AF" xMin="190" yMin="-61" xMax="831" yMax="1151">
      <contour>
        <pt x="543" y="139" on="1"/>
        <pt x="627" y="164" on="0"/>
        <pt x="770" y="172" on="1"/>
        <pt x="743" y="106" on="1"/>
        <pt x="559" y="45" on="0"/>
        <pt x="438" y="-61" on="1"/>
        <pt x="403" y="-47" on="1"/>
        <pt x="391" y="113" on="0"/>
        <pt x="301" y="289" on="1"/>
        <pt x="328" y="354" on="1"/>
        <pt x="424" y="246" on="0"/>
        <pt x="463" y="170" on="1"/>
        <pt x="666" y="666" on="1"/>
        <pt x="190" y="442" on="1"/>
        <pt x="412" y="1151" on="1"/>
        <pt x="498" y="1130" on="1"/>
        <pt x="330" y="596" on="1"/>
        <pt x="831" y="836" on="1"/>
        <pt x="541" y="139" on="1"/>
      </contour>
    </TTGlyph>
    <TTGlyph name="uni21B0" xMin="186" yMin="-61" xMax="838" yMax="1151">
      <contour>
        <pt x="410" y="868" on="1"/>
        <pt x="467" y="801" on="0"/>
        <pt x="528" y="672" on="1"/>
        <pt x="457" y="672" on="1"/>
        <pt x="330" y="821" on="0"/>
        <pt x="186" y="893" on="1"/>
        <pt x="186" y="930" on="1"/>
        <pt x="330" y="1001" on="0"/>
        <pt x="457" y="1151" on="1"/>
        <pt x="528" y="1151" on="1"/>
        <pt x="467" y="1022" on="0"/>
        <pt x="410" y="954" on="1"/>
        <pt x="838" y="954" on="1"/>
        <pt x="838" y="-61" on="1"/>
        <pt x="752" y="-61" on="1"/>
        <pt x="752" y="868" on="1"/>
      </contour>
    </TTGlyph>
    <TTGlyph name="uni21B1" xMin="186" yMin="-61" xMax="838" yMax="1151">
      <contour>
        <pt x="272" y="868" on="1"/>
        <pt x="272" y="-61" on="1"/>
        <pt x="186" y="-61" on="1"/>
        <pt x="186" y="954" on="1"/>
        <pt x="614" y="954" on="1"/>
        <pt x="557" y="1022" on="0"/>
        <pt x="496" y="1151" on="1"/>
        <pt x="567" y="1151" on="1"/>
        <pt x="694" y="1001" on="0"/>
        <pt x="838" y="930" on="1"/>
        <pt x="838" y="893" on="1"/>
        <pt x="694" y="821" on="0"/>
        <pt x="567" y="672" on="1"/>
        <pt x="496" y="672" on="1"/>
        <pt x="557" y="801" on="0"/>
        <pt x="614" y="868" on="1"/>
      </contour>
    </TTGlyph>
    <TTGlyph name="uni21B2" xMin="186" yMin="-61" xMax="838" yMax="1151">
      <contour>
        <pt x="752" y="221" on="1"/>
        <pt x="752" y="1151" on="1"/>
        <pt x="838" y="1151" on="1"/>
        <pt x="838" y="135" on="1"/>
        <pt x="410" y="135" on="1"/>
        <pt x="467" y="68" on="0"/>
        <pt x="528" y="-61" on="1"/>
        <pt x="457" y="-61" on="1"/>
        <pt x="330" y="88" on="0"/>
        <pt x="186" y="160" on="1"/>
        <pt x="186" y="197" on="1"/>
        <pt x="330" y="268" on="0"/>
        <pt x="457" y="418" on="1"/>
        <pt x="528" y="418" on="1"/>
        <pt x="467" y="289" on="0"/>
        <pt x="410" y="221" on="1"/>
      </contour>
    </TTGlyph>
    <TTGlyph name="uni21B3" xMin="186" yMin="-61" xMax="838" yMax="1151">
      <contour>
        <pt x="614" y="221" on="1"/>
        <pt x="557" y="289" on="0"/>
        <pt x="496" y="418" on="1"/>
        <pt x="567" y="418" on="1"/>
        <pt x="694" y="268" on="0"/>
        <pt x="838" y="197" on="1"/>
        <pt x="838" y="160" on="1"/>
        <pt x="694" y="88" on="0"/>
        <pt x="567" y="-61" on="1"/>
        <pt x="496" y="-61" on="1"/>
        <pt x="557" y="68" on="0"/>
        <pt x="614" y="135" on="1"/>
        <pt x="186" y="135" on="1"/>
        <pt x="186" y="1151" on="1"/>
        <pt x="272" y="1151" on="1"/>
        <pt x="272" y="221" on="1"/>
      </contour>
    </TTGlyph>
    <TTGlyph name="uni21B4" xMin="186" yMin="14" xMax="913" yMax="666">
      <contour>
        <pt x="631" y="580" on="1"/>
        <pt x="186" y="580" on="1"/>
        <pt x="186" y="666" on="1"/>
        <pt x="717" y="666" on="1"/>
        <pt x="717" y="238" on="1"/>
        <pt x="784" y="295" on="0"/>
        <pt x="913" y="356" on="1"/>
        <pt x="913" y="285" on="1"/>
        <pt x="764" y="158" on="0"/>
        <pt x="692" y="14" on="1"/>
        <pt x="655" y="14" on="1"/>
        <pt x="584" y="158" on="0"/>
        <pt x="434" y="285" on="1"/>
        <pt x="434" y="356" on="1"/>
        <pt x="563" y="295" on="0"/>
        <pt x="631" y="238" on="1"/>
      </contour>
    </TTGlyph>
    <TTGlyph name="uni21B6" xMin="418" yMin="-61" xMax="1630" yMax="848">
      <contour>
        <pt x="614" y="307" on="1"/>
        <pt x="614" y="571" on="0"/>
        <pt x="880" y="848" on="0"/>
        <pt x="1126" y="848" on="1"/>
        <pt x="1293" y="848" on="0"/>
        <pt x="1518" y="724" on="0"/>
        <pt x="1630" y="462" on="0"/>
        <pt x="1630" y="231" on="1"/>
        <pt x="1544" y="231" on="1"/>
        <pt x="1544" y="515" on="0"/>
        <pt x="1343" y="762" on="0"/>
        <pt x="1126" y="762" on="1"/>
        <pt x="914" y="762" on="0"/>
        <pt x="700" y="533" on="0"/>
        <pt x="700" y="307" on="1"/>
        <pt x="700" y="162" on="1"/>
        <pt x="768" y="219" on="0"/>
        <pt x="897" y="281" on="1"/>
        <pt x="897" y="209" on="1"/>
        <pt x="748" y="82" on="0"/>
        <pt x="676" y="-61" on="1"/>
        <pt x="639" y="-61" on="1"/>
        <pt x="567" y="82" on="0"/>
        <pt x="418" y="209" on="1"/>
        <pt x="418" y="281" on="1"/>
        <pt x="547" y="219" on="0"/>
        <pt x="614" y="162" on="1"/>
      </contour>
    </TTGlyph>
    <TTGlyph name="uni21B7" xMin="418" yMin="-61" xMax="1630" yMax="848">
      <contour>
        <pt x="1434" y="162" on="1"/>
        <pt x="1501" y="219" on="0"/>
        <pt x="1630" y="281" on="1"/>
        <pt x="1630" y="209" on="1"/>
        <pt x="1481" y="82" on="0"/>
        <pt x="1409" y="-61" on="1"/>
        <pt x="1372" y="-61" on="1"/>
        <pt x="1300" y="82" on="0"/>
        <pt x="1151" y="209" on="1"/>
        <pt x="1151" y="281" on="1"/>
        <pt x="1280" y="219" on="0"/>
        <pt x="1348" y="162" on="1"/>
        <pt x="1348" y="307" on="1"/>
        <pt x="1348" y="533" on="0"/>
        <pt x="1134" y="762" on="0"/>
        <pt x="922" y="762" on="1"/>
        <pt x="704" y="762" on="0"/>
        <pt x="504" y="514" on="0"/>
        <pt x="504" y="231" on="1"/>
        <pt x="418" y="231" on="1"/>
        <pt x="418" y="463" on="0"/>
        <pt x="530" y="724" on="0"/>
        <pt x="754" y="848" on="0"/>
        <pt x="922" y="848" on="1"/>
        <pt x="1168" y="848" on="0"/>
        <pt x="1434" y="572" on="0"/>
        <pt x="1434" y="307" on="1"/>
      </contour>
    </TTGlyph>
    <TTGlyph name="uni21B8" xMin="287" yMin="86" xMax="1249" yMax="1188">
      <contour>
        <pt x="449" y="784" on="1"/>
        <pt x="440" y="696" on="0"/>
        <pt x="393" y="561" on="1"/>
        <pt x="342" y="612" on="1"/>
        <pt x="346" y="704" on="1"/>
        <pt x="346" y="845" on="0"/>
        <pt x="307" y="961" on="1"/>
        <pt x="334" y="987" on="1"/>
        <pt x="449" y="948" on="0"/>
        <pt x="591" y="948" on="1"/>
        <pt x="682" y="952" on="1"/>
        <pt x="733" y="901" on="1"/>
        <pt x="598" y="854" on="0"/>
        <pt x="510" y="846" on="1"/>
        <pt x="1208" y="147" on="1"/>
        <pt x="1147" y="86" on="1"/>
      </contour>
      <contour>
        <pt x="287" y="1188" on="1"/>
        <pt x="1249" y="1188" on="1"/>
        <pt x="1249" y="1102" on="1"/>
        <pt x="287" y="1102" on="1"/>
      </contour>
    </TTGlyph>
    <TTGlyph name="uni21B9" xMin="418" yMin="0" xMax="1630" yMax="1010">
      <contour>
        <pt x="504" y="788" on="1"/>
        <pt x="647" y="860" on="0"/>
        <pt x="774" y="1010" on="1"/>
        <pt x="846" y="1010" on="1"/>
        <pt x="784" y="881" on="0"/>
        <pt x="727" y="813" on="1"/>
        <pt x="1630" y="813" on="1"/>
        <pt x="1630" y="727" on="1"/>
        <pt x="727" y="727" on="1"/>
        <pt x="784" y="659" on="0"/>
        <pt x="846" y="530" on="1"/>
        <pt x="774" y="530" on="1"/>
        <pt x="647" y="680" on="0"/>
        <pt x="504" y="752" on="1"/>
        <pt x="504" y="530" on="1"/>
        <pt x="418" y="530" on="1"/>
        <pt x="418" y="1010" on="1"/>
        <pt x="504" y="1010" on="1"/>
      </contour>
      <contour>
        <pt x="1544" y="221" on="1"/>
        <pt x="1401" y="150" on="0"/>
        <pt x="1274" y="0" on="1"/>
        <pt x="1202" y="0" on="1"/>
        <pt x="1264" y="129" on="0"/>
        <pt x="1321" y="197" on="1"/>
        <pt x="418" y="197" on="1"/>
        <pt x="418" y="283" on="1"/>
        <pt x="1321" y="283" on="1"/>
        <pt x="1264" y="350" on="0"/>
        <pt x="1202" y="479" on="1"/>
        <pt x="1274" y="479" on="1"/>
        <pt x="1401" y="330" on="0"/>
        <pt x="1544" y="258" on="1"/>
        <pt x="1544" y="479" on="1"/>
        <pt x="1630" y="479" on="1"/>
        <pt x="1630" y="0" on="1"/>
        <pt x="1544" y="0" on="1"/>
      </contour>
    </TTGlyph>
    <TTGlyph name="uni21BA" xMin="440" yMin="-61" xMax="1606" yMax="1051">
      <contour>
        <pt x="1458" y="494" on="1"/>
        <pt x="1458" y="684" on="0"/>
        <pt x="1325" y="817" on="1"/>
        <pt x="1309" y="834" on="1"/>
        <pt x="1294" y="754" on="0"/>
        <pt x="1235" y="623" on="1"/>
        <pt x="1190" y="678" on="1"/>
        <pt x="1206" y="772" on="0"/>
        <pt x="1206" y="857" on="1"/>
        <pt x="1206" y="948" on="0"/>
        <pt x="1188" y="1028" on="1"/>
        <pt x="1217" y="1051" on="1"/>
        <pt x="1362" y="987" on="0"/>
        <pt x="1559" y="983" on="1"/>
        <pt x="1606" y="928" on="1"/>
        <pt x="1464" y="893" on="0"/>
        <pt x="1380" y="893" on="1"/>
        <pt x="1389" y="883" on="1"/>
        <pt x="1464" y="807" on="0"/>
        <pt x="1550" y="608" on="0"/>
        <pt x="1550" y="494" on="1"/>
        <pt x="1550" y="349" on="0"/>
        <pt x="1405" y="92" on="0"/>
        <pt x="1145" y="-61" on="0"/>
        <pt x="995" y="-61" on="1"/>
        <pt x="845" y="-61" on="0"/>
        <pt x="585" y="92" on="0"/>
        <pt x="440" y="350" on="0"/>
        <pt x="440" y="494" on="1"/>
        <pt x="440" y="627" on="0"/>
        <pt x="567" y="870" on="0"/>
        <pt x="680" y="950" on="1"/>
        <pt x="731" y="872" on="1"/>
        <pt x="636" y="805" on="0"/>
        <pt x="532" y="603" on="0"/>
        <pt x="532" y="494" on="1"/>
        <pt x="532" y="371" on="0"/>
        <pt x="656" y="156" on="0"/>
        <pt x="872" y="31" on="0"/>
        <pt x="995" y="31" on="1"/>
        <pt x="1118" y="31" on="0"/>
        <pt x="1333" y="155" on="0"/>
        <pt x="1458" y="371" on="0"/>
      </contour>
    </TTGlyph>
    <TTGlyph name="uni21BB" xMin="442" yMin="-61" xMax="1608" yMax="1051">
      <contour>
        <pt x="590" y="494" on="1"/>
        <pt x="590" y="371" on="0"/>
        <pt x="714" y="156" on="0"/>
        <pt x="930" y="31" on="0"/>
        <pt x="1053" y="31" on="1"/>
        <pt x="1176" y="31" on="0"/>
        <pt x="1391" y="155" on="0"/>
        <pt x="1516" y="371" on="0"/>
        <pt x="1516" y="494" on="1"/>
        <pt x="1516" y="604" on="0"/>
        <pt x="1411" y="805" on="0"/>
        <pt x="1317" y="872" on="1"/>
        <pt x="1368" y="950" on="1"/>
        <pt x="1481" y="871" on="0"/>
        <pt x="1608" y="628" on="0"/>
        <pt x="1608" y="494" on="1"/>
        <pt x="1608" y="349" on="0"/>
        <pt x="1463" y="92" on="0"/>
        <pt x="1203" y="-61" on="0"/>
        <pt x="1053" y="-61" on="1"/>
        <pt x="903" y="-61" on="0"/>
        <pt x="643" y="92" on="0"/>
        <pt x="498" y="350" on="0"/>
        <pt x="498" y="494" on="1"/>
        <pt x="498" y="608" on="0"/>
        <pt x="584" y="807" on="0"/>
        <pt x="659" y="883" on="1"/>
        <pt x="668" y="893" on="1"/>
        <pt x="584" y="893" on="0"/>
        <pt x="442" y="928" on="1"/>
        <pt x="489" y="983" on="1"/>
        <pt x="686" y="987" on="0"/>
        <pt x="831" y="1051" on="1"/>
        <pt x="860" y="1028" on="1"/>
        <pt x="842" y="948" on="0"/>
        <pt x="842" y="857" on="1"/>
        <pt x="842" y="772" on="0"/>
        <pt x="858" y="678" on="1"/>
        <pt x="813" y="623" on="1"/>
        <pt x="754" y="754" on="0"/>
        <pt x="739" y="834" on="1"/>
        <pt x="723" y="817" on="1"/>
        <pt x="590" y="684" on="0"/>
      </contour>
    </TTGlyph>
    <TTGlyph name="uni21BC" xMin="418" yMin="297" xMax="1630" yMax="580">
      <contour>
        <pt x="418" y="297" on="1"/>
        <pt x="418" y="358" on="1"/>
        <pt x="561" y="430" on="0"/>
        <pt x="688" y="580" on="1"/>
        <pt x="760" y="580" on="1"/>
        <pt x="698" y="451" on="0"/>
        <pt x="641" y="383" on="1"/>
        <pt x="1630" y="383" on="1"/>
        <pt x="1630" y="297" on="1"/>
      </contour>
    </TTGlyph>
    <TTGlyph name="uni21BD" xMin="418" yMin="100" xMax="1630" yMax="383">
      <contour>
        <pt x="641" y="297" on="1"/>
        <pt x="698" y="229" on="0"/>
        <pt x="760" y="100" on="1"/>
        <pt x="688" y="100" on="1"/>
        <pt x="561" y="250" on="0"/>
        <pt x="418" y="322" on="1"/>
        <pt x="418" y="383" on="1"/>
        <pt x="1630" y="383" on="1"/>
        <pt x="1630" y="297" on="1"/>
      </contour>
    </TTGlyph>
    <TTGlyph name="uni21BE" xMin="469" yMin="-61" xMax="752" yMax="1151">
      <contour>
        <pt x="469" y="1151" on="1"/>
        <pt x="530" y="1151" on="1"/>
        <pt x="602" y="1008" on="0"/>
        <pt x="752" y="881" on="1"/>
        <pt x="752" y="809" on="1"/>
        <pt x="623" y="870" on="0"/>
        <pt x="555" y="928" on="1"/>
        <pt x="555" y="-61" on="1"/>
        <pt x="469" y="-61" on="1"/>
      </contour>
    </TTGlyph>
    <TTGlyph name="uni21BF" xMin="272" yMin="-61" xMax="555" yMax="1151">
      <contour>
        <pt x="555" y="-61" on="1"/>
        <pt x="469" y="-61" on="1"/>
        <pt x="469" y="928" on="1"/>
        <pt x="401" y="870" on="0"/>
        <pt x="272" y="809" on="1"/>
        <pt x="272" y="881" on="1"/>
        <pt x="422" y="1008" on="0"/>
        <pt x="494" y="1151" on="1"/>
        <pt x="555" y="1151" on="1"/>
      </contour>
    </TTGlyph>
    <TTGlyph name="uni21C0" xMin="418" yMin="297" xMax="1630" yMax="580">
      <contour>
        <pt x="418" y="297" on="1"/>
        <pt x="418" y="383" on="1"/>
        <pt x="1407" y="383" on="1"/>
        <pt x="1350" y="451" on="0"/>
        <pt x="1288" y="580" on="1"/>
        <pt x="1360" y="580" on="1"/>
        <pt x="1487" y="430" on="0"/>
        <pt x="1630" y="358" on="1"/>
        <pt x="1630" y="297" on="1"/>
      </contour>
    </TTGlyph>
    <TTGlyph name="uni21C1" xMin="418" yMin="100" xMax="1630" yMax="383">
      <contour>
        <pt x="418" y="297" on="1"/>
        <pt x="418" y="383" on="1"/>
        <pt x="1630" y="383" on="1"/>
        <pt x="1630" y="322" on="1"/>
        <pt x="1487" y="250" on="0"/>
        <pt x="1360" y="100" on="1"/>
        <pt x="1288" y="100" on="1"/>
        <pt x="1350" y="229" on="0"/>
        <pt x="1407" y="297" on="1"/>
      </contour>
    </TTGlyph>
    <TTGlyph name="uni21C2" xMin="469" yMin="-61" xMax="752" yMax="1151">
      <contour>
        <pt x="469" y="1151" on="1"/>
        <pt x="555" y="1151" on="1"/>
        <pt x="555" y="162" on="1"/>
        <pt x="623" y="219" on="0"/>
        <pt x="752" y="281" on="1"/>
        <pt x="752" y="209" on="1"/>
        <pt x="602" y="82" on="0"/>
        <pt x="530" y="-61" on="1"/>
        <pt x="469" y="-61" on="1"/>
      </contour>
    </TTGlyph>
    <TTGlyph name="uni21C3" xMin="272" yMin="-61" xMax="555" yMax="1151">
      <contour>
        <pt x="555" y="-61" on="1"/>
        <pt x="494" y="-61" on="1"/>
        <pt x="422" y="82" on="0"/>
        <pt x="272" y="209" on="1"/>
        <pt x="272" y="281" on="1"/>
        <pt x="401" y="219" on="0"/>
        <pt x="469" y="162" on="1"/>
        <pt x="469" y="1151" on="1"/>
        <pt x="555" y="1151" on="1"/>
      </contour>
    </TTGlyph>
    <TTGlyph name="uni21C4" xMin="418" yMin="0" xMax="1630" yMax="1010">
      <contour>
        <pt x="641" y="197" on="1"/>
        <pt x="698" y="129" on="0"/>
        <pt x="760" y="0" on="1"/>
        <pt x="688" y="0" on="1"/>
        <pt x="561" y="150" on="0"/>
        <pt x="418" y="221" on="1"/>
        <pt x="418" y="258" on="1"/>
        <pt x="561" y="330" on="0"/>
        <pt x="688" y="479" on="1"/>
        <pt x="760" y="479" on="1"/>
        <pt x="698" y="350" on="0"/>
        <pt x="641" y="283" on="1"/>
        <pt x="1630" y="283" on="1"/>
        <pt x="1630" y="197" on="1"/>
      </contour>
      <contour>
        <pt x="418" y="727" on="1"/>
        <pt x="418" y="813" on="1"/>
        <pt x="1407" y="813" on="1"/>
        <pt x="1350" y="881" on="0"/>
        <pt x="1288" y="1010" on="1"/>
        <pt x="1360" y="1010" on="1"/>
        <pt x="1487" y="860" on="0"/>
        <pt x="1630" y="788" on="1"/>
        <pt x="1630" y="752" on="1"/>
        <pt x="1487" y="680" on="0"/>
        <pt x="1360" y="530" on="1"/>
        <pt x="1288" y="530" on="1"/>
        <pt x="1350" y="659" on="0"/>
        <pt x="1407" y="727" on="1"/>
      </contour>
    </TTGlyph>
    <TTGlyph name="uni21C5" xMin="262" yMin="-102" xMax="1272" yMax="1110">
      <contour>
        <pt x="459" y="887" on="1"/>
        <pt x="391" y="829" on="0"/>
        <pt x="262" y="768" on="1"/>
        <pt x="262" y="840" on="1"/>
        <pt x="412" y="967" on="0"/>
        <pt x="483" y="1110" on="1"/>
        <pt x="520" y="1110" on="1"/>
        <pt x="592" y="967" on="0"/>
        <pt x="741" y="840" on="1"/>
        <pt x="741" y="768" on="1"/>
        <pt x="612" y="829" on="0"/>
        <pt x="545" y="887" on="1"/>
        <pt x="545" y="-102" on="1"/>
        <pt x="459" y="-102" on="1"/>
      </contour>
      <contour>
        <pt x="989" y="1110" on="1"/>
        <pt x="1075" y="1110" on="1"/>
        <pt x="1075" y="121" on="1"/>
        <pt x="1143" y="178" on="0"/>
        <pt x="1272" y="242" on="1"/>
        <pt x="1272" y="170" on="1"/>
        <pt x="1122" y="41" on="0"/>
        <pt x="1051" y="-102" on="1"/>
        <pt x="1014" y="-102" on="1"/>
        <pt x="942" y="41" on="0"/>
        <pt x="793" y="168" on="1"/>
        <pt x="793" y="240" on="1"/>
        <pt x="922" y="178" on="0"/>
        <pt x="989" y="121" on="1"/>
      </contour>
    </TTGlyph>
    <TTGlyph name="uni21C6" xMin="418" yMin="0" xMax="1630" yMax="1010">
      <contour>
        <pt x="418" y="197" on="1"/>
        <pt x="418" y="283" on="1"/>
        <pt x="1407" y="283" on="1"/>
        <pt x="1350" y="350" on="0"/>
        <pt x="1288" y="479" on="1"/>
        <pt x="1360" y="479" on="1"/>
        <pt x="1487" y="330" on="0"/>
        <pt x="1630" y="258" on="1"/>
        <pt x="1630" y="221" on="1"/>
        <pt x="1487" y="150" on="0"/>
        <pt x="1360" y="0" on="1"/>
        <pt x="1288" y="0" on="1"/>
        <pt x="1350" y="129" on="0"/>
        <pt x="1407" y="197" on="1"/>
      </contour>
      <contour>
        <pt x="641" y="727" on="1"/>
        <pt x="698" y="659" on="0"/>
        <pt x="760" y="530" on="1"/>
        <pt x="688" y="530" on="1"/>
        <pt x="561" y="680" on="0"/>
        <pt x="418" y="752" on="1"/>
        <pt x="418" y="788" on="1"/>
        <pt x="561" y="860" on="0"/>
        <pt x="688" y="1010" on="1"/>
        <pt x="760" y="1010" on="1"/>
        <pt x="698" y="881" on="0"/>
        <pt x="641" y="813" on="1"/>
        <pt x="1630" y="813" on="1"/>
        <pt x="1630" y="727" on="1"/>
      </contour>
    </TTGlyph>
    <TTGlyph name="uni21C7" xMin="418" yMin="0" xMax="1630" yMax="1010">
      <contour>
        <pt x="641" y="197" on="1"/>
        <pt x="698" y="129" on="0"/>
        <pt x="760" y="0" on="1"/>
        <pt x="688" y="0" on="1"/>
        <pt x="561" y="150" on="0"/>
        <pt x="418" y="221" on="1"/>
        <pt x="418" y="258" on="1"/>
        <pt x="561" y="330" on="0"/>
        <pt x="688" y="479" on="1"/>
        <pt x="760" y="479" on="1"/>
        <pt x="698" y="350" on="0"/>
        <pt x="641" y="283" on="1"/>
        <pt x="1630" y="283" on="1"/>
        <pt x="1630" y="197" on="1"/>
      </contour>
      <contour>
        <pt x="641" y="727" on="1"/>
        <pt x="698" y="659" on="0"/>
        <pt x="760" y="530" on="1"/>
        <pt x="688" y="530" on="1"/>
        <pt x="561" y="680" on="0"/>
        <pt x="418" y="752" on="1"/>
        <pt x="418" y="788" on="1"/>
        <pt x="561" y="860" on="0"/>
        <pt x="688" y="1010" on="1"/>
        <pt x="760" y="1010" on="1"/>
        <pt x="698" y="881" on="0"/>
        <pt x="641" y="813" on="1"/>
        <pt x="1630" y="813" on="1"/>
        <pt x="1630" y="727" on="1"/>
      </contour>
    </TTGlyph>
    <TTGlyph name="uni21C8" xMin="262" yMin="-102" xMax="1272" yMax="1110">
      <contour>
        <pt x="459" y="887" on="1"/>
        <pt x="391" y="829" on="0"/>
        <pt x="262" y="768" on="1"/>
        <pt x="262" y="840" on="1"/>
        <pt x="412" y="967" on="0"/>
        <pt x="483" y="1110" on="1"/>
        <pt x="520" y="1110" on="1"/>
        <pt x="592" y="967" on="0"/>
        <pt x="741" y="840" on="1"/>
        <pt x="741" y="768" on="1"/>
        <pt x="612" y="829" on="0"/>
        <pt x="545" y="887" on="1"/>
        <pt x="545" y="-102" on="1"/>
        <pt x="459" y="-102" on="1"/>
      </contour>
      <contour>
        <pt x="989" y="887" on="1"/>
        <pt x="922" y="829" on="0"/>
        <pt x="793" y="768" on="1"/>
        <pt x="793" y="840" on="1"/>
        <pt x="942" y="967" on="0"/>
        <pt x="1014" y="1110" on="1"/>
        <pt x="1051" y="1110" on="1"/>
        <pt x="1122" y="967" on="0"/>
        <pt x="1272" y="838" on="1"/>
        <pt x="1272" y="766" on="1"/>
        <pt x="1143" y="829" on="0"/>
        <pt x="1075" y="887" on="1"/>
        <pt x="1075" y="-102" on="1"/>
        <pt x="989" y="-102" on="1"/>
      </contour>
    </TTGlyph>
    <TTGlyph name="uni21C9" xMin="418" yMin="0" xMax="1630" yMax="1010">
      <contour>
        <pt x="418" y="197" on="1"/>
        <pt x="418" y="283" on="1"/>
        <pt x="1407" y="283" on="1"/>
        <pt x="1350" y="350" on="0"/>
        <pt x="1288" y="479" on="1"/>
        <pt x="1360" y="479" on="1"/>
        <pt x="1487" y="330" on="0"/>
        <pt x="1630" y="258" on="1"/>
        <pt x="1630" y="221" on="1"/>
        <pt x="1487" y="150" on="0"/>
        <pt x="1360" y="0" on="1"/>
        <pt x="1288" y="0" on="1"/>
        <pt x="1350" y="129" on="0"/>
        <pt x="1407" y="197" on="1"/>
      </contour>
      <contour>
        <pt x="418" y="727" on="1"/>
        <pt x="418" y="813" on="1"/>
        <pt x="1407" y="813" on="1"/>
        <pt x="1350" y="881" on="0"/>
        <pt x="1288" y="1010" on="1"/>
        <pt x="1360" y="1010" on="1"/>
        <pt x="1487" y="860" on="0"/>
        <pt x="1630" y="788" on="1"/>
        <pt x="1630" y="752" on="1"/>
        <pt x="1487" y="680" on="0"/>
        <pt x="1360" y="530" on="1"/>
        <pt x="1288" y="530" on="1"/>
        <pt x="1350" y="659" on="0"/>
        <pt x="1407" y="727" on="1"/>
      </contour>
    </TTGlyph>
    <TTGlyph name="uni21CA" xMin="262" yMin="-102" xMax="1272" yMax="1110">
      <contour>
        <pt x="459" y="1110" on="1"/>
        <pt x="545" y="1110" on="1"/>
        <pt x="545" y="121" on="1"/>
        <pt x="612" y="178" on="0"/>
        <pt x="741" y="240" on="1"/>
        <pt x="741" y="168" on="1"/>
        <pt x="592" y="41" on="0"/>
        <pt x="520" y="-102" on="1"/>
        <pt x="483" y="-102" on="1"/>
        <pt x="412" y="41" on="0"/>
        <pt x="262" y="168" on="1"/>
        <pt x="262" y="240" on="1"/>
        <pt x="391" y="178" on="0"/>
        <pt x="459" y="121" on="1"/>
      </contour>
      <contour>
        <pt x="989" y="1110" on="1"/>
        <pt x="1075" y="1110" on="1"/>
        <pt x="1075" y="121" on="1"/>
        <pt x="1143" y="178" on="0"/>
        <pt x="1272" y="242" on="1"/>
        <pt x="1272" y="170" on="1"/>
        <pt x="1122" y="41" on="0"/>
        <pt x="1051" y="-102" on="1"/>
        <pt x="1014" y="-102" on="1"/>
        <pt x="942" y="41" on="0"/>
        <pt x="793" y="168" on="1"/>
        <pt x="793" y="240" on="1"/>
        <pt x="922" y="178" on="0"/>
        <pt x="989" y="121" on="1"/>
      </contour>
    </TTGlyph>
    <TTGlyph name="uni21CB" xMin="418" yMin="86" xMax="1630" yMax="924">
      <contour>
        <pt x="418" y="283" on="1"/>
        <pt x="418" y="369" on="1"/>
        <pt x="1630" y="369" on="1"/>
        <pt x="1630" y="307" on="1"/>
        <pt x="1487" y="236" on="0"/>
        <pt x="1360" y="86" on="1"/>
        <pt x="1288" y="86" on="1"/>
        <pt x="1350" y="215" on="0"/>
        <pt x="1407" y="283" on="1"/>
      </contour>
      <contour>
        <pt x="418" y="641" on="1"/>
        <pt x="418" y="702" on="1"/>
        <pt x="561" y="774" on="0"/>
        <pt x="688" y="924" on="1"/>
        <pt x="760" y="924" on="1"/>
        <pt x="698" y="795" on="0"/>
        <pt x="641" y="727" on="1"/>
        <pt x="1630" y="727" on="1"/>
        <pt x="1630" y="641" on="1"/>
      </contour>
    </TTGlyph>
    <TTGlyph name="uni21CC" xMin="418" yMin="86" xMax="1630" yMax="924">
      <contour>
        <pt x="641" y="283" on="1"/>
        <pt x="698" y="215" on="0"/>
        <pt x="760" y="86" on="1"/>
        <pt x="688" y="86" on="1"/>
        <pt x="561" y="236" on="0"/>
        <pt x="418" y="307" on="1"/>
        <pt x="418" y="369" on="1"/>
        <pt x="1630" y="369" on="1"/>
        <pt x="1630" y="283" on="1"/>
      </contour>
      <contour>
        <pt x="418" y="641" on="1"/>
        <pt x="418" y="727" on="1"/>
        <pt x="1407" y="727" on="1"/>
        <pt x="1350" y="795" on="0"/>
        <pt x="1288" y="924" on="1"/>
        <pt x="1360" y="924" on="1"/>
        <pt x="1487" y="774" on="0"/>
        <pt x="1630" y="702" on="1"/>
        <pt x="1630" y="641" on="1"/>
      </contour>
    </TTGlyph>
    <TTGlyph name="uni21CD" xMin="418" yMin="-43" xMax="1630" yMax="723">
      <contour>
        <pt x="1194" y="580" on="1"/>
        <pt x="1290" y="580" on="1"/>
        <pt x="1247" y="498" on="1"/>
        <pt x="1630" y="498" on="1"/>
        <pt x="1630" y="412" on="1"/>
        <pt x="1200" y="412" on="1"/>
        <pt x="1124" y="268" on="1"/>
        <pt x="1630" y="268" on="1"/>
        <pt x="1630" y="182" on="1"/>
        <pt x="1079" y="182" on="1"/>
        <pt x="1036" y="100" on="1"/>
        <pt x="936" y="100" on="1"/>
        <pt x="979" y="182" on="1"/>
        <pt x="705" y="182" on="1"/>
        <pt x="797" y="41" on="0"/>
        <pt x="838" y="-43" on="1"/>
        <pt x="766" y="-43" on="1"/>
        <pt x="639" y="106" on="0"/>
        <pt x="418" y="322" on="1"/>
        <pt x="418" y="358" on="1"/>
        <pt x="639" y="573" on="0"/>
        <pt x="766" y="723" on="1"/>
        <pt x="838" y="723" on="1"/>
        <pt x="797" y="637" on="0"/>
        <pt x="705" y="498" on="1"/>
        <pt x="1149" y="498" on="1"/>
      </contour>
      <contour>
        <pt x="596" y="340" on="1"/>
        <pt x="645" y="268" on="1"/>
        <pt x="1026" y="268" on="1"/>
        <pt x="1104" y="412" on="1"/>
        <pt x="645" y="412" on="1"/>
      </contour>
    </TTGlyph>
    <TTGlyph name="uni21CE" xMin="418" yMin="-43" xMax="1630" yMax="723">
      <contour>
        <pt x="1104" y="580" on="1"/>
        <pt x="1200" y="580" on="1"/>
        <pt x="1157" y="498" on="1"/>
        <pt x="1343" y="498" on="1"/>
        <pt x="1251" y="637" on="0"/>
        <pt x="1210" y="723" on="1"/>
        <pt x="1282" y="723" on="1"/>
        <pt x="1409" y="573" on="0"/>
        <pt x="1630" y="358" on="1"/>
        <pt x="1630" y="322" on="1"/>
        <pt x="1409" y="106" on="0"/>
        <pt x="1282" y="-43" on="1"/>
        <pt x="1210" y="-43" on="1"/>
        <pt x="1251" y="41" on="0"/>
        <pt x="1343" y="182" on="1"/>
        <pt x="989" y="182" on="1"/>
        <pt x="946" y="100" on="1"/>
        <pt x="846" y="100" on="1"/>
        <pt x="889" y="182" on="1"/>
        <pt x="705" y="182" on="1"/>
        <pt x="797" y="41" on="0"/>
        <pt x="838" y="-43" on="1"/>
        <pt x="766" y="-43" on="1"/>
        <pt x="639" y="106" on="0"/>
        <pt x="418" y="322" on="1"/>
        <pt x="418" y="358" on="1"/>
        <pt x="639" y="573" on="0"/>
        <pt x="766" y="723" on="1"/>
        <pt x="838" y="723" on="1"/>
        <pt x="797" y="637" on="0"/>
        <pt x="705" y="498" on="1"/>
        <pt x="1059" y="498" on="1"/>
      </contour>
      <contour>
        <pt x="596" y="340" on="1"/>
        <pt x="645" y="268" on="1"/>
        <pt x="936" y="268" on="1"/>
        <pt x="1014" y="412" on="1"/>
        <pt x="645" y="412" on="1"/>
      </contour>
      <contour>
        <pt x="1452" y="340" on="1"/>
        <pt x="1401" y="412" on="1"/>
        <pt x="1110" y="412" on="1"/>
        <pt x="1034" y="268" on="1"/>
        <pt x="1401" y="268" on="1"/>
      </contour>
    </TTGlyph>
    <TTGlyph name="uni21CF" xMin="418" yMin="-43" xMax="1630" yMax="723">
      <contour>
        <pt x="418" y="182" on="1"/>
        <pt x="418" y="268" on="1"/>
        <pt x="848" y="268" on="1"/>
        <pt x="926" y="412" on="1"/>
        <pt x="418" y="412" on="1"/>
        <pt x="418" y="498" on="1"/>
        <pt x="971" y="498" on="1"/>
        <pt x="1016" y="580" on="1"/>
        <pt x="1112" y="580" on="1"/>
        <pt x="1069" y="498" on="1"/>
        <pt x="1343" y="498" on="1"/>
        <pt x="1251" y="637" on="0"/>
        <pt x="1210" y="723" on="1"/>
        <pt x="1282" y="723" on="1"/>
        <pt x="1409" y="573" on="0"/>
        <pt x="1630" y="358" on="1"/>
        <pt x="1630" y="322" on="1"/>
        <pt x="1409" y="106" on="0"/>
        <pt x="1282" y="-43" on="1"/>
        <pt x="1210" y="-43" on="1"/>
        <pt x="1251" y="41" on="0"/>
        <pt x="1343" y="182" on="1"/>
        <pt x="901" y="182" on="1"/>
        <pt x="858" y="100" on="1"/>
        <pt x="758" y="100" on="1"/>
        <pt x="801" y="182" on="1"/>
      </contour>
      <contour>
        <pt x="1452" y="340" on="1"/>
        <pt x="1401" y="412" on="1"/>
        <pt x="1022" y="412" on="1"/>
        <pt x="946" y="268" on="1"/>
        <pt x="1401" y="268" on="1"/>
      </contour>
    </TTGlyph>
    <TTGlyph name="uni21D5" xMin="129" yMin="-61" xMax="895" yMax="1151">
      <contour>
        <pt x="129" y="731" on="1"/>
        <pt x="129" y="803" on="1"/>
        <pt x="279" y="930" on="0"/>
        <pt x="494" y="1151" on="1"/>
        <pt x="530" y="1151" on="1"/>
        <pt x="745" y="930" on="0"/>
        <pt x="895" y="803" on="1"/>
        <pt x="895" y="731" on="1"/>
        <pt x="809" y="772" on="0"/>
        <pt x="670" y="864" on="1"/>
        <pt x="670" y="225" on="1"/>
        <pt x="809" y="317" on="0"/>
        <pt x="895" y="358" on="1"/>
        <pt x="895" y="287" on="1"/>
        <pt x="745" y="160" on="0"/>
        <pt x="530" y="-61" on="1"/>
        <pt x="494" y="-61" on="1"/>
        <pt x="279" y="160" on="0"/>
        <pt x="129" y="287" on="1"/>
        <pt x="129" y="358" on="1"/>
        <pt x="213" y="317" on="0"/>
        <pt x="354" y="225" on="1"/>
        <pt x="354" y="864" on="1"/>
        <pt x="213" y="772" on="0"/>
      </contour>
      <contour>
        <pt x="512" y="117" on="1"/>
        <pt x="584" y="168" on="1"/>
        <pt x="584" y="924" on="1"/>
        <pt x="512" y="973" on="1"/>
        <pt x="440" y="924" on="1"/>
        <pt x="440" y="168" on="1"/>
      </contour>
    </TTGlyph>
    <TTGlyph name="uni21D6" xMin="270" yMin="4" xMax="1264" yMax="997">
      <contour>
        <pt x="403" y="762" on="1"/>
        <pt x="1102" y="66" on="1"/>
        <pt x="1040" y="4" on="1"/>
        <pt x="385" y="659" on="1"/>
        <pt x="350" y="494" on="0"/>
        <pt x="319" y="406" on="1"/>
        <pt x="270" y="457" on="1"/>
        <pt x="282" y="610" on="0"/>
        <pt x="282" y="836" on="1"/>
        <pt x="281" y="961" on="1"/>
        <pt x="307" y="987" on="1"/>
        <pt x="439" y="986" on="1"/>
        <pt x="659" y="986" on="0"/>
        <pt x="811" y="997" on="1"/>
        <pt x="862" y="948" on="1"/>
        <pt x="772" y="915" on="0"/>
        <pt x="608" y="883" on="1"/>
        <pt x="1264" y="227" on="1"/>
        <pt x="1202" y="166" on="1"/>
        <pt x="506" y="864" on="1"/>
        <pt x="465" y="854" on="0"/>
        <pt x="420" y="848" on="1"/>
        <pt x="414" y="803" on="0"/>
      </contour>
    </TTGlyph>
    <TTGlyph name="uni21D7" xMin="272" yMin="4" xMax="1266" yMax="997">
      <contour>
        <pt x="1030" y="864" on="1"/>
        <pt x="334" y="166" on="1"/>
        <pt x="272" y="227" on="1"/>
        <pt x="928" y="883" on="1"/>
        <pt x="764" y="915" on="0"/>
        <pt x="674" y="948" on="1"/>
        <pt x="725" y="997" on="1"/>
        <pt x="877" y="986" on="0"/>
        <pt x="1097" y="986" on="1"/>
        <pt x="1229" y="987" on="1"/>
        <pt x="1255" y="961" on="1"/>
        <pt x="1254" y="836" on="1"/>
        <pt x="1254" y="610" on="0"/>
        <pt x="1266" y="457" on="1"/>
        <pt x="1217" y="406" on="1"/>
        <pt x="1186" y="494" on="0"/>
        <pt x="1151" y="659" on="1"/>
        <pt x="496" y="4" on="1"/>
        <pt x="434" y="66" on="1"/>
        <pt x="1133" y="762" on="1"/>
        <pt x="1122" y="803" on="0"/>
        <pt x="1116" y="848" on="1"/>
        <pt x="1071" y="854" on="0"/>
      </contour>
    </TTGlyph>
    <TTGlyph name="uni21D8" xMin="272" yMin="4" xMax="1266" yMax="997">
      <contour>
        <pt x="1133" y="240" on="1"/>
        <pt x="434" y="936" on="1"/>
        <pt x="496" y="997" on="1"/>
        <pt x="1151" y="342" on="1"/>
        <pt x="1186" y="508" on="0"/>
        <pt x="1217" y="596" on="1"/>
        <pt x="1266" y="545" on="1"/>
        <pt x="1254" y="391" on="0"/>
        <pt x="1254" y="166" on="1"/>
        <pt x="1255" y="41" on="1"/>
        <pt x="1229" y="14" on="1"/>
        <pt x="1097" y="15" on="1"/>
        <pt x="877" y="15" on="0"/>
        <pt x="725" y="4" on="1"/>
        <pt x="674" y="53" on="1"/>
        <pt x="764" y="86" on="0"/>
        <pt x="928" y="119" on="1"/>
        <pt x="272" y="774" on="1"/>
        <pt x="334" y="836" on="1"/>
        <pt x="1030" y="137" on="1"/>
        <pt x="1116" y="154" on="1"/>
        <pt x="1122" y="199" on="0"/>
      </contour>
    </TTGlyph>
    <TTGlyph name="uni21D9" xMin="270" yMin="4" xMax="1264" yMax="997">
      <contour>
        <pt x="506" y="137" on="1"/>
        <pt x="1202" y="836" on="1"/>
        <pt x="1264" y="774" on="1"/>
        <pt x="608" y="119" on="1"/>
        <pt x="772" y="86" on="0"/>
        <pt x="862" y="53" on="1"/>
        <pt x="811" y="4" on="1"/>
        <pt x="659" y="15" on="0"/>
        <pt x="439" y="15" on="1"/>
        <pt x="307" y="14" on="1"/>
        <pt x="281" y="41" on="1"/>
        <pt x="282" y="166" on="1"/>
        <pt x="282" y="391" on="0"/>
        <pt x="270" y="545" on="1"/>
        <pt x="319" y="596" on="1"/>
        <pt x="350" y="508" on="0"/>
        <pt x="385" y="342" on="1"/>
        <pt x="1040" y="997" on="1"/>
        <pt x="1102" y="936" on="1"/>
        <pt x="403" y="240" on="1"/>
        <pt x="414" y="199" on="0"/>
        <pt x="420" y="154" on="1"/>
      </contour>
    </TTGlyph>
    <TTGlyph name="uni21DA" xMin="418" yMin="-129" xMax="1630" yMax="809">
      <contour>
        <pt x="692" y="166" on="1"/>
        <pt x="1630" y="166" on="1"/>
        <pt x="1630" y="80" on="1"/>
        <pt x="739" y="80" on="1"/>
        <pt x="811" y="-57" on="0"/>
        <pt x="838" y="-129" on="1"/>
        <pt x="766" y="-129" on="1"/>
        <pt x="418" y="322" on="1"/>
        <pt x="418" y="358" on="1"/>
        <pt x="653" y="659" on="0"/>
        <pt x="766" y="809" on="1"/>
        <pt x="838" y="809" on="1"/>
        <pt x="811" y="737" on="0"/>
        <pt x="739" y="600" on="1"/>
        <pt x="1630" y="600" on="1"/>
        <pt x="1630" y="514" on="1"/>
        <pt x="692" y="514" on="1"/>
        <pt x="621" y="383" on="1"/>
        <pt x="1630" y="383" on="1"/>
        <pt x="1630" y="297" on="1"/>
        <pt x="621" y="297" on="1"/>
      </contour>
    </TTGlyph>
    <TTGlyph name="uni21DB" xMin="418" yMin="-129" xMax="1630" yMax="809">
      <contour>
        <pt x="1356" y="166" on="1"/>
        <pt x="1427" y="297" on="1"/>
        <pt x="418" y="297" on="1"/>
        <pt x="418" y="383" on="1"/>
        <pt x="1427" y="383" on="1"/>
        <pt x="1356" y="514" on="1"/>
        <pt x="418" y="514" on="1"/>
        <pt x="418" y="600" on="1"/>
        <pt x="1309" y="600" on="1"/>
        <pt x="1237" y="737" on="0"/>
        <pt x="1210" y="809" on="1"/>
        <pt x="1282" y="809" on="1"/>
        <pt x="1395" y="659" on="0"/>
        <pt x="1630" y="358" on="1"/>
        <pt x="1630" y="322" on="1"/>
        <pt x="1282" y="-129" on="1"/>
        <pt x="1210" y="-129" on="1"/>
        <pt x="1237" y="-57" on="0"/>
        <pt x="1309" y="80" on="1"/>
        <pt x="418" y="80" on="1"/>
        <pt x="418" y="166" on="1"/>
      </contour>
    </TTGlyph>
    <TTGlyph name="uni21DC" xMin="418" yMin="100" xMax="1630" yMax="580">
      <contour>
        <pt x="1427" y="373" on="1"/>
        <pt x="1303" y="152" on="1"/>
        <pt x="1180" y="352" on="1"/>
        <pt x="1063" y="152" on="1"/>
        <pt x="946" y="352" on="1"/>
        <pt x="836" y="152" on="1"/>
        <pt x="745" y="297" on="1"/>
        <pt x="641" y="297" on="1"/>
        <pt x="698" y="229" on="0"/>
        <pt x="760" y="100" on="1"/>
        <pt x="688" y="100" on="1"/>
        <pt x="561" y="250" on="0"/>
        <pt x="418" y="322" on="1"/>
        <pt x="418" y="358" on="1"/>
        <pt x="561" y="430" on="0"/>
        <pt x="688" y="580" on="1"/>
        <pt x="760" y="580" on="1"/>
        <pt x="698" y="451" on="0"/>
        <pt x="641" y="383" on="1"/>
        <pt x="776" y="383" on="1"/>
        <pt x="836" y="287" on="1"/>
        <pt x="946" y="489" on="1"/>
        <pt x="1063" y="287" on="1"/>
        <pt x="1180" y="489" on="1"/>
        <pt x="1303" y="287" on="1"/>
        <pt x="1415" y="489" on="1"/>
        <pt x="1509" y="383" on="1"/>
        <pt x="1630" y="383" on="1"/>
        <pt x="1630" y="297" on="1"/>
        <pt x="1497" y="297" on="1"/>
      </contour>
    </TTGlyph>
    <TTGlyph name="uni21DD" xMin="418" yMin="100" xMax="1630" yMax="580">
      <contour>
        <pt x="551" y="297" on="1"/>
        <pt x="418" y="297" on="1"/>
        <pt x="418" y="383" on="1"/>
        <pt x="539" y="383" on="1"/>
        <pt x="633" y="489" on="1"/>
        <pt x="745" y="287" on="1"/>
        <pt x="868" y="489" on="1"/>
        <pt x="985" y="287" on="1"/>
        <pt x="1102" y="489" on="1"/>
        <pt x="1212" y="287" on="1"/>
        <pt x="1272" y="383" on="1"/>
        <pt x="1407" y="383" on="1"/>
        <pt x="1350" y="451" on="0"/>
        <pt x="1288" y="580" on="1"/>
        <pt x="1360" y="580" on="1"/>
        <pt x="1487" y="430" on="0"/>
        <pt x="1630" y="358" on="1"/>
        <pt x="1630" y="322" on="1"/>
        <pt x="1487" y="250" on="0"/>
        <pt x="1360" y="100" on="1"/>
        <pt x="1288" y="100" on="1"/>
        <pt x="1350" y="229" on="0"/>
        <pt x="1407" y="297" on="1"/>
        <pt x="1303" y="297" on="1"/>
        <pt x="1212" y="152" on="1"/>
        <pt x="1102" y="352" on="1"/>
        <pt x="985" y="152" on="1"/>
        <pt x="868" y="352" on="1"/>
        <pt x="745" y="152" on="1"/>
        <pt x="621" y="373" on="1"/>
      </contour>
    </TTGlyph>
    <TTGlyph name="uni21DE" xMin="272" yMin="-61" xMax="752" yMax="1151">
      <contour>
        <pt x="469" y="664" on="1"/>
        <pt x="469" y="928" on="1"/>
        <pt x="401" y="870" on="0"/>
        <pt x="272" y="809" on="1"/>
        <pt x="272" y="881" on="1"/>
        <pt x="422" y="1008" on="0"/>
        <pt x="494" y="1151" on="1"/>
        <pt x="530" y="1151" on="1"/>
        <pt x="602" y="1008" on="0"/>
        <pt x="752" y="881" on="1"/>
        <pt x="752" y="809" on="1"/>
        <pt x="623" y="870" on="0"/>
        <pt x="555" y="928" on="1"/>
        <pt x="555" y="664" on="1"/>
        <pt x="752" y="664" on="1"/>
        <pt x="752" y="584" on="1"/>
        <pt x="555" y="584" on="1"/>
        <pt x="555" y="457" on="1"/>
        <pt x="752" y="457" on="1"/>
        <pt x="752" y="377" on="1"/>
        <pt x="555" y="377" on="1"/>
        <pt x="555" y="-61" on="1"/>
        <pt x="469" y="-61" on="1"/>
        <pt x="469" y="377" on="1"/>
        <pt x="272" y="377" on="1"/>
        <pt x="272" y="457" on="1"/>
        <pt x="469" y="457" on="1"/>
        <pt x="469" y="584" on="1"/>
        <pt x="272" y="584" on="1"/>
        <pt x="272" y="664" on="1"/>
      </contour>
    </TTGlyph>
    <TTGlyph name="uni21DF" xMin="272" yMin="-61" xMax="752" yMax="1151">
      <contour>
        <pt x="272" y="426" on="1"/>
        <pt x="272" y="506" on="1"/>
        <pt x="469" y="506" on="1"/>
        <pt x="469" y="633" on="1"/>
        <pt x="272" y="633" on="1"/>
        <pt x="272" y="713" on="1"/>
        <pt x="469" y="713" on="1"/>
        <pt x="469" y="1151" on="1"/>
        <pt x="555" y="1151" on="1"/>
        <pt x="555" y="713" on="1"/>
        <pt x="752" y="713" on="1"/>
        <pt x="752" y="633" on="1"/>
        <pt x="555" y="633" on="1"/>
        <pt x="555" y="506" on="1"/>
        <pt x="752" y="506" on="1"/>
        <pt x="752" y="426" on="1"/>
        <pt x="555" y="426" on="1"/>
        <pt x="555" y="162" on="1"/>
        <pt x="623" y="219" on="0"/>
        <pt x="752" y="281" on="1"/>
        <pt x="752" y="209" on="1"/>
        <pt x="602" y="82" on="0"/>
        <pt x="530" y="-61" on="1"/>
        <pt x="494" y="-61" on="1"/>
        <pt x="422" y="82" on="0"/>
        <pt x="272" y="209" on="1"/>
        <pt x="272" y="281" on="1"/>
        <pt x="401" y="219" on="0"/>
        <pt x="469" y="162" on="1"/>
        <pt x="469" y="426" on="1"/>
      </contour>
    </TTGlyph>
    <TTGlyph name="uni21E0" xMin="418" yMin="100" xMax="1630" yMax="580">
      <contour>
        <pt x="1630" y="383" on="1"/>
        <pt x="1630" y="297" on="1"/>
        <pt x="1444" y="297" on="1"/>
        <pt x="1444" y="383" on="1"/>
      </contour>
      <contour>
        <pt x="1176" y="297" on="1"/>
        <pt x="1176" y="383" on="1"/>
        <pt x="1362" y="383" on="1"/>
        <pt x="1362" y="297" on="1"/>
      </contour>
      <contour>
        <pt x="909" y="297" on="1"/>
        <pt x="909" y="383" on="1"/>
        <pt x="1096" y="383" on="1"/>
        <pt x="1096" y="297" on="1"/>
      </contour>
      <contour>
        <pt x="641" y="297" on="1"/>
        <pt x="698" y="229" on="0"/>
        <pt x="760" y="100" on="1"/>
        <pt x="688" y="100" on="1"/>
        <pt x="561" y="250" on="0"/>
        <pt x="418" y="322" on="1"/>
        <pt x="418" y="358" on="1"/>
        <pt x="561" y="430" on="0"/>
        <pt x="688" y="580" on="1"/>
        <pt x="760" y="580" on="1"/>
        <pt x="698" y="451" on="0"/>
        <pt x="641" y="383" on="1"/>
        <pt x="827" y="383" on="1"/>
        <pt x="827" y="297" on="1"/>
      </contour>
    </TTGlyph>
    <TTGlyph name="uni21E1" xMin="272" yMin="-61" xMax="752" yMax="1151">
      <contour>
        <pt x="469" y="125" on="1"/>
        <pt x="555" y="125" on="1"/>
        <pt x="555" y="-61" on="1"/>
        <pt x="469" y="-61" on="1"/>
      </contour>
      <contour>
        <pt x="555" y="207" on="1"/>
        <pt x="469" y="207" on="1"/>
        <pt x="469" y="393" on="1"/>
        <pt x="555" y="393" on="1"/>
      </contour>
      <contour>
        <pt x="555" y="473" on="1"/>
        <pt x="469" y="473" on="1"/>
        <pt x="469" y="659" on="1"/>
        <pt x="555" y="659" on="1"/>
      </contour>
      <contour>
        <pt x="555" y="741" on="1"/>
        <pt x="469" y="741" on="1"/>
        <pt x="469" y="928" on="1"/>
        <pt x="401" y="870" on="0"/>
        <pt x="272" y="809" on="1"/>
        <pt x="272" y="881" on="1"/>
        <pt x="422" y="1008" on="0"/>
        <pt x="494" y="1151" on="1"/>
        <pt x="530" y="1151" on="1"/>
        <pt x="602" y="1008" on="0"/>
        <pt x="752" y="881" on="1"/>
        <pt x="752" y="809" on="1"/>
        <pt x="623" y="870" on="0"/>
        <pt x="555" y="928" on="1"/>
      </contour>
    </TTGlyph>
    <TTGlyph name="uni21E2" xMin="418" yMin="100" xMax="1630" yMax="580">
      <contour>
        <pt x="604" y="383" on="1"/>
        <pt x="604" y="297" on="1"/>
        <pt x="418" y="297" on="1"/>
        <pt x="418" y="383" on="1"/>
      </contour>
      <contour>
        <pt x="686" y="297" on="1"/>
        <pt x="686" y="383" on="1"/>
        <pt x="872" y="383" on="1"/>
        <pt x="872" y="297" on="1"/>
      </contour>
      <contour>
        <pt x="952" y="297" on="1"/>
        <pt x="952" y="383" on="1"/>
        <pt x="1139" y="383" on="1"/>
        <pt x="1139" y="297" on="1"/>
      </contour>
      <contour>
        <pt x="1221" y="297" on="1"/>
        <pt x="1221" y="383" on="1"/>
        <pt x="1407" y="383" on="1"/>
        <pt x="1350" y="451" on="0"/>
        <pt x="1288" y="580" on="1"/>
        <pt x="1360" y="580" on="1"/>
        <pt x="1487" y="430" on="0"/>
        <pt x="1630" y="358" on="1"/>
        <pt x="1630" y="322" on="1"/>
        <pt x="1487" y="250" on="0"/>
        <pt x="1360" y="100" on="1"/>
        <pt x="1288" y="100" on="1"/>
        <pt x="1350" y="229" on="0"/>
        <pt x="1407" y="297" on="1"/>
      </contour>
    </TTGlyph>
    <TTGlyph name="uni21E3" xMin="272" yMin="-61" xMax="752" yMax="1151">
      <contour>
        <pt x="469" y="1151" on="1"/>
        <pt x="555" y="1151" on="1"/>
        <pt x="555" y="965" on="1"/>
        <pt x="469" y="965" on="1"/>
      </contour>
      <contour>
        <pt x="555" y="696" on="1"/>
        <pt x="469" y="696" on="1"/>
        <pt x="469" y="883" on="1"/>
        <pt x="555" y="883" on="1"/>
      </contour>
      <contour>
        <pt x="555" y="430" on="1"/>
        <pt x="469" y="430" on="1"/>
        <pt x="469" y="616" on="1"/>
        <pt x="555" y="616" on="1"/>
      </contour>
      <contour>
        <pt x="555" y="162" on="1"/>
        <pt x="623" y="219" on="0"/>
        <pt x="752" y="281" on="1"/>
        <pt x="752" y="209" on="1"/>
        <pt x="602" y="82" on="0"/>
        <pt x="530" y="-61" on="1"/>
        <pt x="494" y="-61" on="1"/>
        <pt x="422" y="82" on="0"/>
        <pt x="272" y="209" on="1"/>
        <pt x="272" y="281" on="1"/>
        <pt x="401" y="219" on="0"/>
        <pt x="469" y="162" on="1"/>
        <pt x="469" y="348" on="1"/>
        <pt x="555" y="348" on="1"/>
      </contour>
    </TTGlyph>
    <TTGlyph name="uni21E4" xMin="418" yMin="100" xMax="1630" yMax="580">
      <contour>
        <pt x="731" y="297" on="1"/>
        <pt x="788" y="229" on="0"/>
        <pt x="850" y="100" on="1"/>
        <pt x="778" y="100" on="1"/>
        <pt x="651" y="250" on="0"/>
        <pt x="508" y="322" on="1"/>
        <pt x="508" y="358" on="1"/>
        <pt x="651" y="430" on="0"/>
        <pt x="778" y="580" on="1"/>
        <pt x="850" y="580" on="1"/>
        <pt x="788" y="451" on="0"/>
        <pt x="731" y="383" on="1"/>
        <pt x="1630" y="383" on="1"/>
        <pt x="1630" y="297" on="1"/>
      </contour>
      <contour>
        <pt x="418" y="580" on="1"/>
        <pt x="498" y="580" on="1"/>
        <pt x="498" y="100" on="1"/>
        <pt x="418" y="100" on="1"/>
      </contour>
    </TTGlyph>
    <TTGlyph name="uni21E5" xMin="418" yMin="100" xMax="1630" yMax="580">
      <contour>
        <pt x="418" y="297" on="1"/>
        <pt x="418" y="383" on="1"/>
        <pt x="1317" y="383" on="1"/>
        <pt x="1260" y="451" on="0"/>
        <pt x="1198" y="580" on="1"/>
        <pt x="1270" y="580" on="1"/>
        <pt x="1397" y="430" on="0"/>
        <pt x="1540" y="358" on="1"/>
        <pt x="1540" y="322" on="1"/>
        <pt x="1397" y="250" on="0"/>
        <pt x="1270" y="100" on="1"/>
        <pt x="1198" y="100" on="1"/>
        <pt x="1260" y="229" on="0"/>
        <pt x="1317" y="297" on="1"/>
      </contour>
      <contour>
        <pt x="1630" y="100" on="1"/>
        <pt x="1550" y="100" on="1"/>
        <pt x="1550" y="580" on="1"/>
        <pt x="1630" y="580" on="1"/>
      </contour>
    </TTGlyph>
    <TTGlyph name="uni21E6" xMin="418" yMin="-43" xMax="1630" yMax="723">
      <contour>
        <pt x="735" y="514" on="1"/>
        <pt x="1630" y="514" on="1"/>
        <pt x="1630" y="166" on="1"/>
        <pt x="735" y="166" on="1"/>
        <pt x="735" y="-43" on="1"/>
        <pt x="684" y="-43" on="1"/>
        <pt x="418" y="322" on="1"/>
        <pt x="418" y="358" on="1"/>
        <pt x="684" y="723" on="1"/>
        <pt x="735" y="723" on="1"/>
      </contour>
      <contour>
        <pt x="1587" y="207" on="1"/>
        <pt x="1587" y="473" on="1"/>
        <pt x="692" y="473" on="1"/>
        <pt x="692" y="662" on="1"/>
        <pt x="465" y="340" on="1"/>
        <pt x="692" y="18" on="1"/>
        <pt x="692" y="207" on="1"/>
      </contour>
    </TTGlyph>
    <TTGlyph name="uni21E7" xMin="129" yMin="-61" xMax="895" yMax="1151">
      <contour>
        <pt x="129" y="834" on="1"/>
        <pt x="129" y="885" on="1"/>
        <pt x="494" y="1151" on="1"/>
        <pt x="530" y="1151" on="1"/>
        <pt x="895" y="885" on="1"/>
        <pt x="895" y="834" on="1"/>
        <pt x="686" y="834" on="1"/>
        <pt x="686" y="-61" on="1"/>
        <pt x="338" y="-61" on="1"/>
        <pt x="338" y="834" on="1"/>
      </contour>
      <contour>
        <pt x="645" y="877" on="1"/>
        <pt x="834" y="877" on="1"/>
        <pt x="512" y="1104" on="1"/>
        <pt x="190" y="877" on="1"/>
        <pt x="379" y="877" on="1"/>
        <pt x="379" y="-18" on="1"/>
        <pt x="645" y="-18" on="1"/>
      </contour>
    </TTGlyph>
    <TTGlyph name="uni21E8" xMin="418" yMin="-43" xMax="1630" yMax="723">
      <contour>
        <pt x="1313" y="723" on="1"/>
        <pt x="1364" y="723" on="1"/>
        <pt x="1630" y="358" on="1"/>
        <pt x="1630" y="322" on="1"/>
        <pt x="1364" y="-43" on="1"/>
        <pt x="1313" y="-43" on="1"/>
        <pt x="1313" y="166" on="1"/>
        <pt x="418" y="166" on="1"/>
        <pt x="418" y="514" on="1"/>
        <pt x="1313" y="514" on="1"/>
      </contour>
      <contour>
        <pt x="1356" y="207" on="1"/>
        <pt x="1356" y="18" on="1"/>
        <pt x="1583" y="340" on="1"/>
        <pt x="1356" y="662" on="1"/>
        <pt x="1356" y="473" on="1"/>
        <pt x="461" y="473" on="1"/>
        <pt x="461" y="207" on="1"/>
      </contour>
    </TTGlyph>
    <TTGlyph name="uni21E9" xMin="129" yMin="-61" xMax="895" yMax="1151">
      <contour>
        <pt x="338" y="256" on="1"/>
        <pt x="338" y="1151" on="1"/>
        <pt x="686" y="1151" on="1"/>
        <pt x="686" y="256" on="1"/>
        <pt x="895" y="256" on="1"/>
        <pt x="895" y="205" on="1"/>
        <pt x="530" y="-61" on="1"/>
        <pt x="494" y="-61" on="1"/>
        <pt x="129" y="205" on="1"/>
        <pt x="129" y="256" on="1"/>
      </contour>
      <contour>
        <pt x="645" y="1108" on="1"/>
        <pt x="379" y="1108" on="1"/>
        <pt x="379" y="213" on="1"/>
        <pt x="190" y="213" on="1"/>
        <pt x="512" y="-14" on="1"/>
        <pt x="834" y="213" on="1"/>
        <pt x="645" y="213" on="1"/>
      </contour>
    </TTGlyph>
    <TTGlyph name="uni21EA" xMin="129" yMin="-61" xMax="895" yMax="1151">
      <contour>
        <pt x="338" y="834" on="1"/>
        <pt x="129" y="834" on="1"/>
        <pt x="129" y="885" on="1"/>
        <pt x="494" y="1151" on="1"/>
        <pt x="530" y="1151" on="1"/>
        <pt x="895" y="885" on="1"/>
        <pt x="895" y="834" on="1"/>
        <pt x="686" y="834" on="1"/>
        <pt x="686" y="356" on="1"/>
        <pt x="338" y="356" on="1"/>
      </contour>
      <contour>
        <pt x="834" y="877" on="1"/>
        <pt x="512" y="1104" on="1"/>
        <pt x="190" y="877" on="1"/>
        <pt x="379" y="877" on="1"/>
        <pt x="379" y="397" on="1"/>
        <pt x="645" y="397" on="1"/>
        <pt x="645" y="877" on="1"/>
      </contour>
      <contour>
        <pt x="686" y="260" on="1"/>
        <pt x="686" y="-61" on="1"/>
        <pt x="338" y="-61" on="1"/>
        <pt x="338" y="260" on="1"/>
      </contour>
      <contour>
        <pt x="645" y="-18" on="1"/>
        <pt x="645" y="219" on="1"/>
        <pt x="379" y="219" on="1"/>
        <pt x="379" y="-18" on="1"/>
      </contour>
    </TTGlyph>
    <TTGlyph name="uni21EB" xMin="129" yMin="-61" xMax="895" yMax="1151">
      <contour>
        <pt x="338" y="127" on="1"/>
        <pt x="338" y="834" on="1"/>
        <pt x="129" y="834" on="1"/>
        <pt x="129" y="885" on="1"/>
        <pt x="494" y="1151" on="1"/>
        <pt x="530" y="1151" on="1"/>
        <pt x="895" y="885" on="1"/>
        <pt x="895" y="834" on="1"/>
        <pt x="686" y="834" on="1"/>
        <pt x="686" y="127" on="1"/>
        <pt x="895" y="127" on="1"/>
        <pt x="895" y="-61" on="1"/>
        <pt x="129" y="-61" on="1"/>
        <pt x="129" y="127" on="1"/>
      </contour>
      <contour>
        <pt x="379" y="86" on="1"/>
        <pt x="170" y="86" on="1"/>
        <pt x="170" y="-18" on="1"/>
        <pt x="854" y="-18" on="1"/>
        <pt x="854" y="86" on="1"/>
        <pt x="645" y="86" on="1"/>
        <pt x="645" y="877" on="1"/>
        <pt x="834" y="877" on="1"/>
        <pt x="512" y="1104" on="1"/>
        <pt x="190" y="877" on="1"/>
        <pt x="379" y="877" on="1"/>
      </contour>
    </TTGlyph>
    <TTGlyph name="uni21EC" xMin="129" yMin="-61" xMax="895" yMax="1151">
      <contour>
        <pt x="338" y="127" on="1"/>
        <pt x="338" y="834" on="1"/>
        <pt x="129" y="834" on="1"/>
        <pt x="129" y="885" on="1"/>
        <pt x="494" y="1151" on="1"/>
        <pt x="530" y="1151" on="1"/>
        <pt x="895" y="885" on="1"/>
        <pt x="895" y="834" on="1"/>
        <pt x="686" y="834" on="1"/>
        <pt x="686" y="127" on="1"/>
        <pt x="895" y="127" on="1"/>
        <pt x="895" y="-61" on="1"/>
        <pt x="129" y="-61" on="1"/>
        <pt x="129" y="127" on="1"/>
      </contour>
      <contour>
        <pt x="379" y="86" on="1"/>
        <pt x="170" y="86" on="1"/>
        <pt x="170" y="-18" on="1"/>
        <pt x="854" y="-18" on="1"/>
        <pt x="854" y="86" on="1"/>
        <pt x="645" y="86" on="1"/>
        <pt x="645" y="877" on="1"/>
        <pt x="834" y="877" on="1"/>
        <pt x="725" y="952" on="1"/>
        <pt x="297" y="952" on="1"/>
        <pt x="190" y="877" on="1"/>
        <pt x="379" y="877" on="1"/>
      </contour>
      <contour>
        <pt x="358" y="995" on="1"/>
        <pt x="666" y="995" on="1"/>
        <pt x="512" y="1104" on="1"/>
      </contour>
    </TTGlyph>
    <TTGlyph name="uni21ED" xMin="129" yMin="-61" xMax="895" yMax="1151">
      <contour>
        <pt x="338" y="834" on="1"/>
        <pt x="129" y="834" on="1"/>
        <pt x="129" y="885" on="1"/>
        <pt x="494" y="1151" on="1"/>
        <pt x="530" y="1151" on="1"/>
        <pt x="895" y="885" on="1"/>
        <pt x="895" y="834" on="1"/>
        <pt x="686" y="834" on="1"/>
        <pt x="686" y="127" on="1"/>
        <pt x="895" y="127" on="1"/>
        <pt x="895" y="-61" on="1"/>
        <pt x="129" y="-61" on="1"/>
        <pt x="129" y="127" on="1"/>
        <pt x="338" y="127" on="1"/>
      </contour>
      <contour>
        <pt x="532" y="1090" on="1"/>
        <pt x="532" y="-18" on="1"/>
        <pt x="854" y="-18" on="1"/>
        <pt x="854" y="86" on="1"/>
        <pt x="645" y="86" on="1"/>
        <pt x="645" y="877" on="1"/>
        <pt x="834" y="877" on="1"/>
      </contour>
      <contour>
        <pt x="170" y="86" on="1"/>
        <pt x="170" y="-18" on="1"/>
        <pt x="492" y="-18" on="1"/>
        <pt x="492" y="1090" on="1"/>
        <pt x="190" y="877" on="1"/>
        <pt x="379" y="877" on="1"/>
        <pt x="379" y="86" on="1"/>
      </contour>
    </TTGlyph>
    <TTGlyph name="uni21EE" xMin="129" yMin="-61" xMax="895" yMax="1151">
      <contour>
        <pt x="338" y="-61" on="1"/>
        <pt x="338" y="670" on="1"/>
        <pt x="129" y="670" on="1"/>
        <pt x="129" y="721" on="1"/>
        <pt x="283" y="834" on="1"/>
        <pt x="129" y="834" on="1"/>
        <pt x="129" y="885" on="1"/>
        <pt x="494" y="1151" on="1"/>
        <pt x="530" y="1151" on="1"/>
        <pt x="895" y="885" on="1"/>
        <pt x="895" y="834" on="1"/>
        <pt x="739" y="834" on="1"/>
        <pt x="895" y="721" on="1"/>
        <pt x="895" y="670" on="1"/>
        <pt x="686" y="670" on="1"/>
        <pt x="686" y="-61" on="1"/>
      </contour>
      <contour>
        <pt x="190" y="877" on="1"/>
        <pt x="342" y="877" on="1"/>
        <pt x="494" y="987" on="1"/>
        <pt x="530" y="987" on="1"/>
        <pt x="682" y="877" on="1"/>
        <pt x="834" y="877" on="1"/>
        <pt x="512" y="1104" on="1"/>
      </contour>
      <contour>
        <pt x="512" y="940" on="1"/>
        <pt x="190" y="713" on="1"/>
        <pt x="379" y="713" on="1"/>
        <pt x="379" y="-18" on="1"/>
        <pt x="645" y="-18" on="1"/>
        <pt x="645" y="713" on="1"/>
        <pt x="834" y="713" on="1"/>
      </contour>
    </TTGlyph>
    <TTGlyph name="uni21EF" xMin="129" yMin="-61" xMax="895" yMax="1151">
      <contour>
        <pt x="645" y="713" on="1"/>
        <pt x="834" y="713" on="1"/>
        <pt x="512" y="940" on="1"/>
        <pt x="190" y="713" on="1"/>
        <pt x="379" y="713" on="1"/>
        <pt x="379" y="86" on="1"/>
        <pt x="170" y="86" on="1"/>
        <pt x="170" y="-18" on="1"/>
        <pt x="854" y="-18" on="1"/>
        <pt x="854" y="86" on="1"/>
        <pt x="645" y="86" on="1"/>
      </contour>
      <contour>
        <pt x="686" y="127" on="1"/>
        <pt x="895" y="127" on="1"/>
        <pt x="895" y="-61" on="1"/>
        <pt x="129" y="-61" on="1"/>
        <pt x="129" y="127" on="1"/>
        <pt x="338" y="127" on="1"/>
        <pt x="338" y="670" on="1"/>
        <pt x="129" y="670" on="1"/>
        <pt x="129" y="721" on="1"/>
        <pt x="283" y="834" on="1"/>
        <pt x="129" y="834" on="1"/>
        <pt x="129" y="885" on="1"/>
        <pt x="494" y="1151" on="1"/>
        <pt x="530" y="1151" on="1"/>
        <pt x="895" y="885" on="1"/>
        <pt x="895" y="834" on="1"/>
        <pt x="739" y="834" on="1"/>
        <pt x="895" y="721" on="1"/>
        <pt x="895" y="670" on="1"/>
        <pt x="686" y="670" on="1"/>
      </contour>
      <contour>
        <pt x="190" y="877" on="1"/>
        <pt x="342" y="877" on="1"/>
        <pt x="494" y="987" on="1"/>
        <pt x="530" y="987" on="1"/>
        <pt x="682" y="877" on="1"/>
        <pt x="834" y="877" on="1"/>
        <pt x="512" y="1104" on="1"/>
      </contour>
    </TTGlyph>
    <TTGlyph name="uni21F0" xMin="418" yMin="-43" xMax="1630" yMax="723">
      <contour>
        <pt x="606" y="-43" on="1"/>
        <pt x="418" y="-43" on="1"/>
        <pt x="418" y="723" on="1"/>
        <pt x="606" y="723" on="1"/>
        <pt x="606" y="514" on="1"/>
        <pt x="1313" y="514" on="1"/>
        <pt x="1313" y="723" on="1"/>
        <pt x="1364" y="723" on="1"/>
        <pt x="1630" y="358" on="1"/>
        <pt x="1630" y="322" on="1"/>
        <pt x="1364" y="-43" on="1"/>
        <pt x="1313" y="-43" on="1"/>
        <pt x="1313" y="166" on="1"/>
        <pt x="606" y="166" on="1"/>
      </contour>
      <contour>
        <pt x="1356" y="207" on="1"/>
        <pt x="1356" y="18" on="1"/>
        <pt x="1583" y="340" on="1"/>
        <pt x="1356" y="662" on="1"/>
        <pt x="1356" y="473" on="1"/>
        <pt x="565" y="473" on="1"/>
        <pt x="565" y="682" on="1"/>
        <pt x="461" y="682" on="1"/>
        <pt x="461" y="-2" on="1"/>
        <pt x="565" y="-2" on="1"/>
        <pt x="565" y="207" on="1"/>
      </contour>
    </TTGlyph>
    <TTGlyph name="uni21F1" xMin="166" yMin="0" xMax="1368" yMax="1233">
      <contour>
        <pt x="549" y="784" on="1"/>
        <pt x="541" y="696" on="0"/>
        <pt x="494" y="561" on="1"/>
        <pt x="442" y="612" on="1"/>
        <pt x="446" y="661" on="0"/>
        <pt x="446" y="708" on="1"/>
        <pt x="446" y="847" on="0"/>
        <pt x="408" y="961" on="1"/>
        <pt x="434" y="987" on="1"/>
        <pt x="550" y="948" on="0"/>
        <pt x="691" y="948" on="1"/>
        <pt x="782" y="952" on="1"/>
        <pt x="834" y="901" on="1"/>
        <pt x="698" y="854" on="0"/>
        <pt x="610" y="846" on="1"/>
        <pt x="1309" y="147" on="1"/>
        <pt x="1247" y="86" on="1"/>
      </contour>
      <contour>
        <pt x="1368" y="1147" on="1"/>
        <pt x="252" y="1147" on="1"/>
        <pt x="252" y="0" on="1"/>
        <pt x="166" y="0" on="1"/>
        <pt x="166" y="1233" on="1"/>
        <pt x="1368" y="1233" on="1"/>
      </contour>
    </TTGlyph>
    <TTGlyph name="uni21F2" xMin="168" yMin="0" xMax="1370" yMax="1233">
      <contour>
        <pt x="987" y="449" on="1"/>
        <pt x="995" y="537" on="0"/>
        <pt x="1042" y="672" on="1"/>
        <pt x="1094" y="621" on="1"/>
        <pt x="1090" y="572" on="0"/>
        <pt x="1090" y="525" on="1"/>
        <pt x="1090" y="386" on="0"/>
        <pt x="1128" y="272" on="1"/>
        <pt x="1102" y="246" on="1"/>
        <pt x="986" y="285" on="0"/>
        <pt x="845" y="285" on="1"/>
        <pt x="754" y="281" on="1"/>
        <pt x="702" y="332" on="1"/>
        <pt x="838" y="379" on="0"/>
        <pt x="926" y="387" on="1"/>
        <pt x="227" y="1085" on="1"/>
        <pt x="289" y="1147" on="1"/>
      </contour>
      <contour>
        <pt x="168" y="86" on="1"/>
        <pt x="1284" y="86" on="1"/>
        <pt x="1284" y="1233" on="1"/>
        <pt x="1370" y="1233" on="1"/>
        <pt x="1370" y="0" on="1"/>
        <pt x="168" y="0" on="1"/>
      </contour>
    </TTGlyph>
    <TTGlyph name="uni21F3" xMin="129" yMin="-61" xMax="895" yMax="1151">
      <contour>
        <pt x="338" y="834" on="1"/>
        <pt x="129" y="834" on="1"/>
        <pt x="129" y="885" on="1"/>
        <pt x="494" y="1151" on="1"/>
        <pt x="530" y="1151" on="1"/>
        <pt x="895" y="885" on="1"/>
        <pt x="895" y="834" on="1"/>
        <pt x="686" y="834" on="1"/>
        <pt x="686" y="256" on="1"/>
        <pt x="895" y="256" on="1"/>
        <pt x="895" y="205" on="1"/>
        <pt x="530" y="-61" on="1"/>
        <pt x="494" y="-61" on="1"/>
        <pt x="129" y="205" on="1"/>
        <pt x="129" y="256" on="1"/>
        <pt x="338" y="256" on="1"/>
      </contour>
      <contour>
        <pt x="645" y="877" on="1"/>
        <pt x="834" y="877" on="1"/>
        <pt x="512" y="1104" on="1"/>
        <pt x="190" y="877" on="1"/>
        <pt x="379" y="877" on="1"/>
        <pt x="379" y="213" on="1"/>
        <pt x="190" y="213" on="1"/>
        <pt x="512" y="-14" on="1"/>
        <pt x="834" y="213" on="1"/>
        <pt x="645" y="213" on="1"/>
      </contour>
    </TTGlyph>
    <TTGlyph name="uni21F4" xMin="418" yMin="74" xMax="1630" yMax="610">
      <contour>
        <pt x="602" y="383" on="1"/>
        <pt x="618" y="477" on="0"/>
        <pt x="767" y="610" on="0"/>
        <pt x="868" y="610" on="1"/>
        <pt x="966" y="610" on="0"/>
        <pt x="1117" y="479" on="0"/>
        <pt x="1133" y="383" on="1"/>
        <pt x="1407" y="383" on="1"/>
        <pt x="1350" y="451" on="0"/>
        <pt x="1288" y="580" on="1"/>
        <pt x="1360" y="580" on="1"/>
        <pt x="1487" y="430" on="0"/>
        <pt x="1630" y="358" on="1"/>
        <pt x="1630" y="322" on="1"/>
        <pt x="1487" y="250" on="0"/>
        <pt x="1360" y="100" on="1"/>
        <pt x="1288" y="100" on="1"/>
        <pt x="1350" y="229" on="0"/>
        <pt x="1407" y="297" on="1"/>
        <pt x="1133" y="297" on="1"/>
        <pt x="1117" y="202" on="0"/>
        <pt x="966" y="74" on="0"/>
        <pt x="868" y="74" on="1"/>
        <pt x="771" y="74" on="0"/>
        <pt x="620" y="198" on="0"/>
        <pt x="602" y="297" on="1"/>
        <pt x="418" y="297" on="1"/>
        <pt x="418" y="383" on="1"/>
      </contour>
      <contour>
        <pt x="868" y="524" on="1"/>
        <pt x="805" y="524" on="0"/>
        <pt x="705" y="445" on="0"/>
        <pt x="690" y="383" on="1"/>
        <pt x="1047" y="383" on="1"/>
        <pt x="1033" y="445" on="0"/>
        <pt x="930" y="524" on="0"/>
      </contour>
      <contour>
        <pt x="868" y="160" on="1"/>
        <pt x="932" y="160" on="0"/>
        <pt x="1028" y="237" on="0"/>
        <pt x="1044" y="297" on="1"/>
        <pt x="690" y="297" on="1"/>
        <pt x="706" y="237" on="0"/>
        <pt x="802" y="160" on="0"/>
      </contour>
    </TTGlyph>
    <TTGlyph name="uni21F5" xMin="262" yMin="-102" xMax="1272" yMax="1110">
      <contour>
        <pt x="459" y="1110" on="1"/>
        <pt x="545" y="1110" on="1"/>
        <pt x="545" y="121" on="1"/>
        <pt x="612" y="178" on="0"/>
        <pt x="741" y="240" on="1"/>
        <pt x="741" y="168" on="1"/>
        <pt x="592" y="41" on="0"/>
        <pt x="520" y="-102" on="1"/>
        <pt x="483" y="-102" on="1"/>
        <pt x="412" y="41" on="0"/>
        <pt x="262" y="168" on="1"/>
        <pt x="262" y="240" on="1"/>
        <pt x="391" y="178" on="0"/>
        <pt x="459" y="121" on="1"/>
      </contour>
      <contour>
        <pt x="989" y="887" on="1"/>
        <pt x="922" y="829" on="0"/>
        <pt x="793" y="768" on="1"/>
        <pt x="793" y="840" on="1"/>
        <pt x="942" y="967" on="0"/>
        <pt x="1014" y="1110" on="1"/>
        <pt x="1051" y="1110" on="1"/>
        <pt x="1122" y="967" on="0"/>
        <pt x="1272" y="838" on="1"/>
        <pt x="1272" y="766" on="1"/>
        <pt x="1143" y="829" on="0"/>
        <pt x="1075" y="887" on="1"/>
        <pt x="1075" y="-102" on="1"/>
        <pt x="989" y="-102" on="1"/>
      </contour>
    </TTGlyph>
    <TTGlyph name="uni21F6" xMin="418" yMin="-264" xMax="1630" yMax="1276">
      <contour>
        <pt x="418" y="-68" on="1"/>
        <pt x="418" y="18" on="1"/>
        <pt x="1407" y="18" on="1"/>
        <pt x="1350" y="86" on="0"/>
        <pt x="1288" y="215" on="1"/>
        <pt x="1360" y="215" on="1"/>
        <pt x="1487" y="66" on="0"/>
        <pt x="1630" y="-6" on="1"/>
        <pt x="1630" y="-43" on="1"/>
        <pt x="1487" y="-115" on="0"/>
        <pt x="1360" y="-264" on="1"/>
        <pt x="1288" y="-264" on="1"/>
        <pt x="1350" y="-135" on="0"/>
        <pt x="1407" y="-68" on="1"/>
      </contour>
      <contour>
        <pt x="418" y="463" on="1"/>
        <pt x="418" y="549" on="1"/>
        <pt x="1407" y="549" on="1"/>
        <pt x="1350" y="616" on="0"/>
        <pt x="1288" y="745" on="1"/>
        <pt x="1360" y="745" on="1"/>
        <pt x="1487" y="596" on="0"/>
        <pt x="1630" y="524" on="1"/>
        <pt x="1630" y="487" on="1"/>
        <pt x="1487" y="416" on="0"/>
        <pt x="1360" y="266" on="1"/>
        <pt x="1288" y="266" on="1"/>
        <pt x="1350" y="395" on="0"/>
        <pt x="1407" y="463" on="1"/>
      </contour>
      <contour>
        <pt x="418" y="993" on="1"/>
        <pt x="418" y="1079" on="1"/>
        <pt x="1407" y="1079" on="1"/>
        <pt x="1350" y="1147" on="0"/>
        <pt x="1288" y="1276" on="1"/>
        <pt x="1360" y="1276" on="1"/>
        <pt x="1487" y="1126" on="0"/>
        <pt x="1630" y="1055" on="1"/>
        <pt x="1630" y="1018" on="1"/>
        <pt x="1487" y="946" on="0"/>
        <pt x="1360" y="797" on="1"/>
        <pt x="1288" y="797" on="1"/>
        <pt x="1350" y="926" on="0"/>
        <pt x="1407" y="993" on="1"/>
      </contour>
    </TTGlyph>
    <TTGlyph name="uni21F7" xMin="418" yMin="100" xMax="1630" yMax="580">
      <contour>
        <pt x="1149" y="100" on="1"/>
        <pt x="1063" y="100" on="1"/>
        <pt x="1063" y="297" on="1"/>
        <pt x="641" y="297" on="1"/>
        <pt x="698" y="229" on="0"/>
        <pt x="760" y="100" on="1"/>
        <pt x="688" y="100" on="1"/>
        <pt x="561" y="250" on="0"/>
        <pt x="418" y="322" on="1"/>
        <pt x="418" y="358" on="1"/>
        <pt x="561" y="430" on="0"/>
        <pt x="688" y="580" on="1"/>
        <pt x="760" y="580" on="1"/>
        <pt x="698" y="451" on="0"/>
        <pt x="641" y="383" on="1"/>
        <pt x="1063" y="383" on="1"/>
        <pt x="1063" y="580" on="1"/>
        <pt x="1149" y="580" on="1"/>
        <pt x="1149" y="383" on="1"/>
        <pt x="1630" y="383" on="1"/>
        <pt x="1630" y="297" on="1"/>
        <pt x="1149" y="297" on="1"/>
      </contour>
    </TTGlyph>
    <TTGlyph name="uni21F8" xMin="418" yMin="100" xMax="1630" yMax="580">
      <contour>
        <pt x="899" y="297" on="1"/>
        <pt x="418" y="297" on="1"/>
        <pt x="418" y="383" on="1"/>
        <pt x="899" y="383" on="1"/>
        <pt x="899" y="580" on="1"/>
        <pt x="985" y="580" on="1"/>
        <pt x="985" y="383" on="1"/>
        <pt x="1407" y="383" on="1"/>
        <pt x="1350" y="451" on="0"/>
        <pt x="1288" y="580" on="1"/>
        <pt x="1360" y="580" on="1"/>
        <pt x="1487" y="430" on="0"/>
        <pt x="1630" y="358" on="1"/>
        <pt x="1630" y="322" on="1"/>
        <pt x="1487" y="250" on="0"/>
        <pt x="1360" y="100" on="1"/>
        <pt x="1288" y="100" on="1"/>
        <pt x="1350" y="229" on="0"/>
        <pt x="1407" y="297" on="1"/>
        <pt x="985" y="297" on="1"/>
        <pt x="985" y="100" on="1"/>
        <pt x="899" y="100" on="1"/>
      </contour>
    </TTGlyph>
    <TTGlyph name="uni21F9" xMin="418" yMin="100" xMax="1630" yMax="580">
      <contour>
        <pt x="1407" y="383" on="1"/>
        <pt x="1350" y="451" on="0"/>
        <pt x="1288" y="580" on="1"/>
        <pt x="1360" y="580" on="1"/>
        <pt x="1487" y="430" on="0"/>
        <pt x="1630" y="358" on="1"/>
        <pt x="1630" y="322" on="1"/>
        <pt x="1487" y="250" on="0"/>
        <pt x="1360" y="100" on="1"/>
        <pt x="1288" y="100" on="1"/>
        <pt x="1350" y="229" on="0"/>
        <pt x="1407" y="297" on="1"/>
        <pt x="1067" y="297" on="1"/>
        <pt x="1067" y="100" on="1"/>
        <pt x="981" y="100" on="1"/>
        <pt x="981" y="297" on="1"/>
        <pt x="641" y="297" on="1"/>
        <pt x="698" y="229" on="0"/>
        <pt x="760" y="100" on="1"/>
        <pt x="688" y="100" on="1"/>
        <pt x="561" y="250" on="0"/>
        <pt x="418" y="322" on="1"/>
        <pt x="418" y="358" on="1"/>
        <pt x="561" y="430" on="0"/>
        <pt x="688" y="580" on="1"/>
        <pt x="760" y="580" on="1"/>
        <pt x="698" y="451" on="0"/>
        <pt x="641" y="383" on="1"/>
        <pt x="981" y="383" on="1"/>
        <pt x="981" y="580" on="1"/>
        <pt x="1067" y="580" on="1"/>
        <pt x="1067" y="383" on="1"/>
      </contour>
    </TTGlyph>
    <TTGlyph name="uni21FA" xMin="418" yMin="100" xMax="1630" yMax="580">
      <contour>
        <pt x="1251" y="100" on="1"/>
        <pt x="1165" y="100" on="1"/>
        <pt x="1165" y="297" on="1"/>
        <pt x="1047" y="297" on="1"/>
        <pt x="1047" y="100" on="1"/>
        <pt x="961" y="100" on="1"/>
        <pt x="961" y="297" on="1"/>
        <pt x="641" y="297" on="1"/>
        <pt x="698" y="229" on="0"/>
        <pt x="760" y="100" on="1"/>
        <pt x="688" y="100" on="1"/>
        <pt x="561" y="250" on="0"/>
        <pt x="418" y="322" on="1"/>
        <pt x="418" y="358" on="1"/>
        <pt x="561" y="430" on="0"/>
        <pt x="688" y="580" on="1"/>
        <pt x="760" y="580" on="1"/>
        <pt x="698" y="451" on="0"/>
        <pt x="641" y="383" on="1"/>
        <pt x="961" y="383" on="1"/>
        <pt x="961" y="580" on="1"/>
        <pt x="1047" y="580" on="1"/>
        <pt x="1047" y="383" on="1"/>
        <pt x="1165" y="383" on="1"/>
        <pt x="1165" y="580" on="1"/>
        <pt x="1251" y="580" on="1"/>
        <pt x="1251" y="383" on="1"/>
        <pt x="1630" y="383" on="1"/>
        <pt x="1630" y="297" on="1"/>
        <pt x="1251" y="297" on="1"/>
      </contour>
    </TTGlyph>
    <TTGlyph name="uni21FB" xMin="418" yMin="100" xMax="1630" yMax="580">
      <contour>
        <pt x="797" y="297" on="1"/>
        <pt x="418" y="297" on="1"/>
        <pt x="418" y="383" on="1"/>
        <pt x="797" y="383" on="1"/>
        <pt x="797" y="580" on="1"/>
        <pt x="883" y="580" on="1"/>
        <pt x="883" y="383" on="1"/>
        <pt x="1001" y="383" on="1"/>
        <pt x="1001" y="580" on="1"/>
        <pt x="1087" y="580" on="1"/>
        <pt x="1087" y="383" on="1"/>
        <pt x="1407" y="383" on="1"/>
        <pt x="1350" y="451" on="0"/>
        <pt x="1288" y="580" on="1"/>
        <pt x="1360" y="580" on="1"/>
        <pt x="1487" y="430" on="0"/>
        <pt x="1630" y="358" on="1"/>
        <pt x="1630" y="322" on="1"/>
        <pt x="1487" y="250" on="0"/>
        <pt x="1360" y="100" on="1"/>
        <pt x="1288" y="100" on="1"/>
        <pt x="1350" y="229" on="0"/>
        <pt x="1407" y="297" on="1"/>
        <pt x="1087" y="297" on="1"/>
        <pt x="1087" y="100" on="1"/>
        <pt x="1001" y="100" on="1"/>
        <pt x="1001" y="297" on="1"/>
        <pt x="883" y="297" on="1"/>
        <pt x="883" y="100" on="1"/>
        <pt x="797" y="100" on="1"/>
      </contour>
    </TTGlyph>
    <TTGlyph name="uni21FC" xMin="418" yMin="100" xMax="1630" yMax="580">
      <contour>
        <pt x="1169" y="100" on="1"/>
        <pt x="1083" y="100" on="1"/>
        <pt x="1083" y="297" on="1"/>
        <pt x="965" y="297" on="1"/>
        <pt x="965" y="100" on="1"/>
        <pt x="879" y="100" on="1"/>
        <pt x="879" y="297" on="1"/>
        <pt x="641" y="297" on="1"/>
        <pt x="698" y="229" on="0"/>
        <pt x="760" y="100" on="1"/>
        <pt x="688" y="100" on="1"/>
        <pt x="561" y="250" on="0"/>
        <pt x="418" y="322" on="1"/>
        <pt x="418" y="358" on="1"/>
        <pt x="561" y="430" on="0"/>
        <pt x="688" y="580" on="1"/>
        <pt x="760" y="580" on="1"/>
        <pt x="698" y="451" on="0"/>
        <pt x="641" y="383" on="1"/>
        <pt x="879" y="383" on="1"/>
        <pt x="879" y="580" on="1"/>
        <pt x="965" y="580" on="1"/>
        <pt x="965" y="383" on="1"/>
        <pt x="1083" y="383" on="1"/>
        <pt x="1083" y="580" on="1"/>
        <pt x="1169" y="580" on="1"/>
        <pt x="1169" y="383" on="1"/>
        <pt x="1407" y="383" on="1"/>
        <pt x="1350" y="451" on="0"/>
        <pt x="1288" y="580" on="1"/>
        <pt x="1360" y="580" on="1"/>
        <pt x="1487" y="430" on="0"/>
        <pt x="1630" y="358" on="1"/>
        <pt x="1630" y="322" on="1"/>
        <pt x="1487" y="250" on="0"/>
        <pt x="1360" y="100" on="1"/>
        <pt x="1288" y="100" on="1"/>
        <pt x="1350" y="229" on="0"/>
        <pt x="1407" y="297" on="1"/>
        <pt x="1169" y="297" on="1"/>
      </contour>
    </TTGlyph>
    <TTGlyph name="uni21FD" xMin="418" yMin="141" xMax="1630" yMax="539">
      <contour>
        <pt x="795" y="141" on="1"/>
        <pt x="418" y="340" on="1"/>
        <pt x="795" y="539" on="1"/>
        <pt x="795" y="383" on="1"/>
        <pt x="1630" y="383" on="1"/>
        <pt x="1630" y="297" on="1"/>
        <pt x="795" y="297" on="1"/>
      </contour>
      <contour>
        <pt x="725" y="252" on="1"/>
        <pt x="725" y="428" on="1"/>
        <pt x="547" y="340" on="1"/>
      </contour>
    </TTGlyph>
    <TTGlyph name="uni21FE" xMin="418" yMin="141" xMax="1630" yMax="539">
      <contour>
        <pt x="1253" y="297" on="1"/>
        <pt x="418" y="297" on="1"/>
        <pt x="418" y="383" on="1"/>
        <pt x="1253" y="383" on="1"/>
        <pt x="1253" y="539" on="1"/>
        <pt x="1630" y="340" on="1"/>
        <pt x="1253" y="141" on="1"/>
      </contour>
      <contour>
        <pt x="1501" y="340" on="1"/>
        <pt x="1323" y="428" on="1"/>
        <pt x="1323" y="252" on="1"/>
      </contour>
    </TTGlyph>
    <TTGlyph name="uni21FF" xMin="418" yMin="141" xMax="1630" yMax="539">
      <contour>
        <pt x="795" y="141" on="1"/>
        <pt x="418" y="340" on="1"/>
        <pt x="795" y="539" on="1"/>
        <pt x="795" y="383" on="1"/>
        <pt x="1253" y="383" on="1"/>
        <pt x="1253" y="539" on="1"/>
        <pt x="1630" y="340" on="1"/>
        <pt x="1253" y="141" on="1"/>
        <pt x="1253" y="297" on="1"/>
        <pt x="795" y="297" on="1"/>
      </contour>
      <contour>
        <pt x="725" y="252" on="1"/>
        <pt x="725" y="428" on="1"/>
        <pt x="547" y="340" on="1"/>
      </contour>
      <contour>
        <pt x="1501" y="340" on="1"/>
        <pt x="1323" y="428" on="1"/>
        <pt x="1323" y="252" on="1"/>
      </contour>
    </TTGlyph>
    <TTGlyph name="uni2201" xMin="104" yMin="-25" xMax="778" yMax="1489">
      <contour>
        <pt x="451" y="133" on="1"/>
        <pt x="536" y="133" on="0"/>
        <pt x="614" y="280" on="0"/>
        <pt x="614" y="442" on="1"/>
        <pt x="778" y="442" on="1"/>
        <pt x="778" y="216" on="0"/>
        <pt x="607" y="-25" on="0"/>
        <pt x="449" y="-25" on="1"/>
        <pt x="271" y="-25" on="0"/>
        <pt x="104" y="211" on="0"/>
        <pt x="104" y="453" on="1"/>
        <pt x="104" y="1010" on="1"/>
        <pt x="104" y="1238" on="0"/>
        <pt x="283" y="1489" on="0"/>
        <pt x="449" y="1489" on="1"/>
        <pt x="610" y="1489" on="0"/>
        <pt x="778" y="1249" on="0"/>
        <pt x="778" y="1020" on="1"/>
        <pt x="614" y="1020" on="1"/>
        <pt x="614" y="1179" on="0"/>
        <pt x="533" y="1331" on="0"/>
        <pt x="444" y="1331" on="1"/>
        <pt x="351" y="1331" on="0"/>
        <pt x="272" y="1174" on="0"/>
        <pt x="272" y="995" on="1"/>
        <pt x="272" y="469" on="1"/>
        <pt x="272" y="293" on="0"/>
        <pt x="355" y="133" on="0"/>
      </contour>
    </TTGlyph>
    <TTGlyph name="uni2204" xMin="104" yMin="-162" xMax="1071" yMax="1645">
      <contour>
        <pt x="319" y="0" on="1"/>
        <pt x="104" y="0" on="1"/>
        <pt x="104" y="164" on="1"/>
        <pt x="362" y="164" on="1"/>
        <pt x="498" y="678" on="1"/>
        <pt x="164" y="678" on="1"/>
        <pt x="164" y="842" on="1"/>
        <pt x="541" y="842" on="1"/>
        <pt x="662" y="1300" on="1"/>
        <pt x="121" y="1300" on="1"/>
        <pt x="121" y="1464" on="1"/>
        <pt x="705" y="1464" on="1"/>
        <pt x="754" y="1645" on="1"/>
        <pt x="883" y="1614" on="1"/>
        <pt x="842" y="1464" on="1"/>
        <pt x="1071" y="1464" on="1"/>
        <pt x="1071" y="0" on="1"/>
        <pt x="457" y="0" on="1"/>
        <pt x="414" y="-162" on="1"/>
        <pt x="285" y="-131" on="1"/>
      </contour>
      <contour>
        <pt x="635" y="678" on="1"/>
        <pt x="500" y="164" on="1"/>
        <pt x="901" y="164" on="1"/>
        <pt x="901" y="678" on="1"/>
      </contour>
      <contour>
        <pt x="799" y="1300" on="1"/>
        <pt x="678" y="842" on="1"/>
        <pt x="901" y="842" on="1"/>
        <pt x="901" y="1300" on="1"/>
      </contour>
    </TTGlyph>
    <TTGlyph name="uni2206" xMin="41" yMin="0" xMax="1149" yMax="1462">
      <contour>
        <pt x="41" y="113" on="1"/>
        <pt x="502" y="1462" on="1"/>
        <pt x="686" y="1462" on="1"/>
        <pt x="1149" y="111" on="1"/>
        <pt x="1149" y="0" on="1"/>
        <pt x="41" y="0" on="1"/>
      </contour>
      <contour>
        <pt x="592" y="1262" on="1"/>
        <pt x="541" y="1062" on="0"/>
        <pt x="498" y="932" on="1"/>
        <pt x="238" y="162" on="1"/>
        <pt x="946" y="162" on="1"/>
        <pt x="690" y="924" on="1"/>
        <pt x="623" y="1125" on="0"/>
      </contour>
    </TTGlyph>
    <TTGlyph name="uni220A" xMin="104" yMin="272" xMax="1034" yMax="1171">
      <contour>
        <pt x="104" y="721" on="1"/>
        <pt x="104" y="942" on="0"/>
        <pt x="374" y="1171" on="0"/>
        <pt x="631" y="1171" on="1"/>
        <pt x="1034" y="1171" on="1"/>
        <pt x="1034" y="1026" on="1"/>
        <pt x="631" y="1026" on="1"/>
        <pt x="286" y="1026" on="0"/>
        <pt x="246" y="795" on="1"/>
        <pt x="1034" y="795" on="1"/>
        <pt x="1034" y="649" on="1"/>
        <pt x="246" y="649" on="1"/>
        <pt x="282" y="418" on="0"/>
        <pt x="631" y="418" on="1"/>
        <pt x="1034" y="418" on="1"/>
        <pt x="1034" y="272" on="1"/>
        <pt x="631" y="272" on="1"/>
        <pt x="373" y="272" on="0"/>
        <pt x="104" y="501" on="0"/>
      </contour>
    </TTGlyph>
    <TTGlyph name="uni220C" xMin="104" yMin="-86" xMax="1327" yMax="1563">
      <contour>
        <pt x="889" y="1563" on="1"/>
        <pt x="1014" y="1509" on="1"/>
        <pt x="926" y="1282" on="1"/>
        <pt x="1124" y="1225" on="0"/>
        <pt x="1327" y="941" on="0"/>
        <pt x="1327" y="723" on="1"/>
        <pt x="1327" y="430" on="0"/>
        <pt x="968" y="127" on="0"/>
        <pt x="625" y="127" on="1"/>
        <pt x="481" y="127" on="1"/>
        <pt x="399" y="-86" on="1"/>
        <pt x="274" y="-33" on="1"/>
        <pt x="336" y="127" on="1"/>
        <pt x="104" y="127" on="1"/>
        <pt x="104" y="272" on="1"/>
        <pt x="391" y="272" on="1"/>
        <pt x="537" y="651" on="1"/>
        <pt x="104" y="651" on="1"/>
        <pt x="104" y="797" on="1"/>
        <pt x="594" y="797" on="1"/>
        <pt x="737" y="1167" on="1"/>
        <pt x="676" y="1174" on="0"/>
        <pt x="625" y="1174" on="1"/>
        <pt x="104" y="1174" on="1"/>
        <pt x="104" y="1319" on="1"/>
        <pt x="625" y="1319" on="1"/>
        <pt x="713" y="1319" on="0"/>
        <pt x="791" y="1309" on="1"/>
      </contour>
      <contour>
        <pt x="625" y="272" on="1"/>
        <pt x="1134" y="272" on="0"/>
        <pt x="1176" y="651" on="1"/>
        <pt x="682" y="651" on="1"/>
        <pt x="537" y="272" on="1"/>
      </contour>
      <contour>
        <pt x="1176" y="797" on="1"/>
        <pt x="1143" y="1072" on="0"/>
        <pt x="872" y="1145" on="1"/>
        <pt x="739" y="797" on="1"/>
      </contour>
    </TTGlyph>
    <TTGlyph name="uni220D" xMin="121" yMin="272" xMax="1051" yMax="1171">
      <contour>
        <pt x="1051" y="721" on="1"/>
        <pt x="1051" y="501" on="0"/>
        <pt x="782" y="272" on="0"/>
        <pt x="524" y="272" on="1"/>
        <pt x="121" y="272" on="1"/>
        <pt x="121" y="418" on="1"/>
        <pt x="524" y="418" on="1"/>
        <pt x="873" y="418" on="0"/>
        <pt x="909" y="649" on="1"/>
        <pt x="121" y="649" on="1"/>
        <pt x="121" y="795" on="1"/>
        <pt x="909" y="795" on="1"/>
        <pt x="869" y="1026" on="0"/>
        <pt x="524" y="1026" on="1"/>
        <pt x="121" y="1026" on="1"/>
        <pt x="121" y="1171" on="1"/>
        <pt x="524" y="1171" on="1"/>
        <pt x="782" y="1171" on="0"/>
        <pt x="1051" y="942" on="0"/>
      </contour>
    </TTGlyph>
    <TTGlyph name="uni220E" xMin="104" yMin="0" xMax="1038" yMax="1376">
      <contour>
        <pt x="104" y="1376" on="1"/>
        <pt x="1038" y="1376" on="1"/>
        <pt x="1038" y="0" on="1"/>
        <pt x="104" y="0" on="1"/>
      </contour>
    </TTGlyph>
    <TTGlyph name="uni2210" xMin="104" yMin="-492" xMax="1225" yMax="1462">
      <contour>
        <pt x="1225" y="1462" on="1"/>
        <pt x="1225" y="-492" on="1"/>
        <pt x="104" y="-492" on="1"/>
        <pt x="104" y="1462" on="1"/>
        <pt x="289" y="1462" on="1"/>
        <pt x="289" y="-328" on="1"/>
        <pt x="1040" y="-328" on="1"/>
        <pt x="1040" y="1462" on="1"/>
      </contour>
    </TTGlyph>
    <TTGlyph name="uni2213" xMin="104" yMin="0" xMax="1067" yMax="1225">
      <contour>
        <pt x="659" y="0" on="1"/>
        <pt x="512" y="0" on="1"/>
        <pt x="512" y="424" on="1"/>
        <pt x="104" y="424" on="1"/>
        <pt x="104" y="569" on="1"/>
        <pt x="512" y="569" on="1"/>
        <pt x="512" y="991" on="1"/>
        <pt x="659" y="991" on="1"/>
        <pt x="659" y="569" on="1"/>
        <pt x="1067" y="569" on="1"/>
        <pt x="1067" y="424" on="1"/>
        <pt x="659" y="424" on="1"/>
      </contour>
      <contour>
        <pt x="1067" y="1225" on="1"/>
        <pt x="1067" y="1079" on="1"/>
        <pt x="104" y="1079" on="1"/>
        <pt x="104" y="1225" on="1"/>
      </contour>
    </TTGlyph>
    <TTGlyph name="uni2214" xMin="104" yMin="0" xMax="1067" yMax="1327">
      <contour>
        <pt x="469" y="1204" on="1"/>
        <pt x="469" y="1265" on="0"/>
        <pt x="531" y="1327" on="0"/>
        <pt x="584" y="1327" on="1"/>
        <pt x="637" y="1327" on="0"/>
        <pt x="696" y="1262" on="0"/>
        <pt x="696" y="1204" on="1"/>
        <pt x="696" y="1138" on="0"/>
        <pt x="630" y="1079" on="0"/>
        <pt x="584" y="1079" on="1"/>
        <pt x="530" y="1079" on="0"/>
        <pt x="469" y="1145" on="0"/>
      </contour>
      <contour>
        <pt x="659" y="0" on="1"/>
        <pt x="512" y="0" on="1"/>
        <pt x="512" y="424" on="1"/>
        <pt x="104" y="424" on="1"/>
        <pt x="104" y="569" on="1"/>
        <pt x="512" y="569" on="1"/>
        <pt x="512" y="991" on="1"/>
        <pt x="659" y="991" on="1"/>
        <pt x="659" y="569" on="1"/>
        <pt x="1067" y="569" on="1"/>
        <pt x="1067" y="424" on="1"/>
        <pt x="659" y="424" on="1"/>
      </contour>
    </TTGlyph>
    <TTGlyph name="uni2216" xMin="104" yMin="0" xMax="1272" yMax="977">
      <contour>
        <pt x="295" y="977" on="1"/>
        <pt x="1272" y="0" on="1"/>
        <pt x="1083" y="0" on="1"/>
        <pt x="104" y="977" on="1"/>
      </contour>
    </TTGlyph>
    <TTGlyph name="uni2218" xMin="104" yMin="436" xMax="678" yMax="1010">
      <contour>
        <pt x="104" y="723" on="1"/>
        <pt x="104" y="842" on="0"/>
        <pt x="272" y="1010" on="0"/>
        <pt x="391" y="1010" on="1"/>
        <pt x="510" y="1010" on="0"/>
        <pt x="678" y="842" on="0"/>
        <pt x="678" y="723" on="1"/>
        <pt x="678" y="604" on="0"/>
        <pt x="510" y="436" on="0"/>
        <pt x="391" y="436" on="1"/>
        <pt x="272" y="436" on="0"/>
        <pt x="104" y="604" on="0"/>
      </contour>
      <contour>
        <pt x="236" y="723" on="1"/>
        <pt x="236" y="661" on="0"/>
        <pt x="327" y="567" on="0"/>
        <pt x="391" y="567" on="1"/>
        <pt x="454" y="567" on="0"/>
        <pt x="547" y="659" on="0"/>
        <pt x="547" y="723" on="1"/>
        <pt x="547" y="786" on="0"/>
        <pt x="455" y="879" on="0"/>
        <pt x="391" y="879" on="1"/>
        <pt x="327" y="879" on="0"/>
        <pt x="236" y="784" on="0"/>
      </contour>
    </TTGlyph>
    <TTGlyph name="uni2219" xMin="72" yMin="528" xMax="457" yMax="915">
      <contour>
        <pt x="72" y="721" on="1"/>
        <pt x="72" y="800" on="0"/>
        <pt x="181" y="915" on="0"/>
        <pt x="264" y="915" on="1"/>
        <pt x="346" y="915" on="0"/>
        <pt x="457" y="800" on="0"/>
        <pt x="457" y="721" on="1"/>
        <pt x="457" y="640" on="0"/>
        <pt x="346" y="528" on="0"/>
        <pt x="264" y="528" on="1"/>
        <pt x="182" y="528" on="0"/>
        <pt x="72" y="640" on="0"/>
      </contour>
    </TTGlyph>
    <TTGlyph name="uni221B" xMin="37" yMin="-14" xMax="1219" yMax="1741">
      <contour>
        <pt x="764" y="1548" on="1"/>
        <pt x="764" y="1421" on="0"/>
        <pt x="649" y="1374" on="1"/>
        <pt x="786" y="1331" on="0"/>
        <pt x="786" y="1202" on="1"/>
        <pt x="786" y="1095" on="0"/>
        <pt x="633" y="973" on="0"/>
        <pt x="487" y="973" on="1"/>
        <pt x="358" y="973" on="0"/>
        <pt x="262" y="1020" on="1"/>
        <pt x="262" y="1139" on="1"/>
        <pt x="378" y="1083" on="0"/>
        <pt x="489" y="1083" on="1"/>
        <pt x="653" y="1083" on="0"/>
        <pt x="653" y="1206" on="1"/>
        <pt x="653" y="1265" on="0"/>
        <pt x="561" y="1315" on="0"/>
        <pt x="473" y="1315" on="1"/>
        <pt x="373" y="1315" on="1"/>
        <pt x="373" y="1423" on="1"/>
        <pt x="473" y="1423" on="1"/>
        <pt x="631" y="1423" on="0"/>
        <pt x="631" y="1534" on="1"/>
        <pt x="631" y="1630" on="0"/>
        <pt x="512" y="1630" on="1"/>
        <pt x="415" y="1630" on="0"/>
        <pt x="328" y="1567" on="1"/>
        <pt x="296" y="1612" on="1"/>
        <pt x="262" y="1655" on="1"/>
        <pt x="308" y="1690" on="0"/>
        <pt x="432" y="1741" on="0"/>
        <pt x="524" y="1741" on="1"/>
        <pt x="633" y="1741" on="0"/>
        <pt x="764" y="1635" on="0"/>
      </contour>
      <contour>
        <pt x="627" y="-14" on="1"/>
        <pt x="494" y="-14" on="1"/>
        <pt x="217" y="764" on="1"/>
        <pt x="37" y="764" on="1"/>
        <pt x="37" y="907" on="1"/>
        <pt x="330" y="907" on="1"/>
        <pt x="561" y="233" on="1"/>
        <pt x="1073" y="1694" on="1"/>
        <pt x="1219" y="1694" on="1"/>
      </contour>
    </TTGlyph>
    <TTGlyph name="uni221C" xMin="37" yMin="-14" xMax="1219" yMax="1726">
      <contour>
        <pt x="768" y="1151" on="1"/>
        <pt x="666" y="1151" on="1"/>
        <pt x="666" y="987" on="1"/>
        <pt x="530" y="987" on="1"/>
        <pt x="530" y="1151" on="1"/>
        <pt x="197" y="1151" on="1"/>
        <pt x="197" y="1243" on="1"/>
        <pt x="535" y="1726" on="1"/>
        <pt x="666" y="1726" on="1"/>
        <pt x="666" y="1260" on="1"/>
        <pt x="768" y="1260" on="1"/>
      </contour>
      <contour>
        <pt x="537" y="1260" on="1"/>
        <pt x="537" y="1581" on="1"/>
        <pt x="330" y="1260" on="1"/>
      </contour>
      <contour>
        <pt x="627" y="-14" on="1"/>
        <pt x="494" y="-14" on="1"/>
        <pt x="217" y="764" on="1"/>
        <pt x="37" y="764" on="1"/>
        <pt x="37" y="907" on="1"/>
        <pt x="330" y="907" on="1"/>
        <pt x="561" y="233" on="1"/>
        <pt x="1073" y="1694" on="1"/>
        <pt x="1219" y="1694" on="1"/>
      </contour>
    </TTGlyph>
    <TTGlyph name="uni2221" xMin="104" yMin="-256" xMax="1231" yMax="1055">
      <contour>
        <pt x="829" y="-215" on="1"/>
        <pt x="843" y="-146" on="0"/>
        <pt x="843" y="-62" on="1"/>
        <pt x="842" y="0" on="1"/>
        <pt x="104" y="0" on="1"/>
        <pt x="104" y="102" on="1"/>
        <pt x="549" y="606" on="1"/>
        <pt x="481" y="672" on="0"/>
        <pt x="377" y="731" on="1"/>
        <pt x="451" y="862" on="1"/>
        <pt x="562" y="798" on="0"/>
        <pt x="649" y="719" on="1"/>
        <pt x="944" y="1055" on="1"/>
        <pt x="1047" y="950" on="1"/>
        <pt x="750" y="612" on="1"/>
        <pt x="921" y="408" on="0"/>
        <pt x="973" y="145" on="1"/>
        <pt x="1231" y="145" on="1"/>
        <pt x="1231" y="0" on="1"/>
        <pt x="991" y="0" on="1"/>
        <pt x="993" y="-69" on="1"/>
        <pt x="993" y="-171" on="0"/>
        <pt x="975" y="-256" on="1"/>
      </contour>
      <contour>
        <pt x="649" y="500" on="1"/>
        <pt x="340" y="145" on="1"/>
        <pt x="821" y="145" on="1"/>
        <pt x="775" y="341" on="0"/>
      </contour>
    </TTGlyph>
    <TTGlyph name="uni2222" xMin="104" yMin="195" xMax="1067" yMax="1264">
      <contour>
        <pt x="1067" y="246" on="1"/>
        <pt x="745" y="387" on="1"/>
        <pt x="712" y="275" on="0"/>
        <pt x="668" y="195" on="1"/>
        <pt x="547" y="254" on="1"/>
        <pt x="596" y="348" on="0"/>
        <pt x="623" y="440" on="1"/>
        <pt x="104" y="670" on="1"/>
        <pt x="104" y="772" on="1"/>
        <pt x="618" y="1028" on="1"/>
        <pt x="592" y="1110" on="0"/>
        <pt x="547" y="1204" on="1"/>
        <pt x="668" y="1264" on="1"/>
        <pt x="701" y="1204" on="0"/>
        <pt x="739" y="1090" on="1"/>
        <pt x="1067" y="1253" on="1"/>
        <pt x="1067" y="1094" on="1"/>
        <pt x="776" y="956" on="1"/>
        <pt x="803" y="844" on="0"/>
        <pt x="803" y="729" on="1"/>
        <pt x="803" y="625" on="0"/>
        <pt x="782" y="524" on="1"/>
        <pt x="1067" y="406" on="1"/>
      </contour>
      <contour>
        <pt x="666" y="729" on="1"/>
        <pt x="666" y="802" on="0"/>
        <pt x="651" y="897" on="1"/>
        <pt x="297" y="729" on="1"/>
        <pt x="653" y="578" on="1"/>
        <pt x="666" y="643" on="0"/>
      </contour>
    </TTGlyph>
    <TTGlyph name="uni2223" xMin="104" yMin="0" xMax="250" yMax="1556">
      <contour>
        <pt x="104" y="1556" on="1"/>
        <pt x="250" y="1556" on="1"/>
        <pt x="250" y="0" on="1"/>
        <pt x="104" y="0" on="1"/>
      </contour>
    </TTGlyph>
    <TTGlyph name="uni2224" xMin="104" yMin="0" xMax="778" yMax="1556">
      <contour>
        <pt x="778" y="1067" on="1"/>
        <pt x="512" y="784" on="1"/>
        <pt x="512" y="0" on="1"/>
        <pt x="367" y="0" on="1"/>
        <pt x="367" y="627" on="1"/>
        <pt x="199" y="449" on="1"/>
        <pt x="104" y="541" on="1"/>
        <pt x="367" y="821" on="1"/>
        <pt x="367" y="1556" on="1"/>
        <pt x="514" y="1556" on="1"/>
        <pt x="512" y="979" on="1"/>
        <pt x="680" y="1157" on="1"/>
      </contour>
    </TTGlyph>
    <TTGlyph name="uni2225" xMin="104" yMin="0" xMax="633" yMax="1556">
      <contour>
        <pt x="104" y="1556" on="1"/>
        <pt x="250" y="1556" on="1"/>
        <pt x="250" y="0" on="1"/>
        <pt x="104" y="0" on="1"/>
      </contour>
      <contour>
        <pt x="487" y="1556" on="1"/>
        <pt x="633" y="1556" on="1"/>
        <pt x="633" y="0" on="1"/>
        <pt x="487" y="0" on="1"/>
      </contour>
    </TTGlyph>
    <TTGlyph name="uni2226" xMin="104" yMin="0" xMax="1157" yMax="1552">
      <contour>
        <pt x="750" y="1552" on="1"/>
        <pt x="895" y="1552" on="1"/>
        <pt x="895" y="1155" on="1"/>
        <pt x="1059" y="1331" on="1"/>
        <pt x="1157" y="1241" on="1"/>
        <pt x="895" y="963" on="1"/>
        <pt x="895" y="0" on="1"/>
        <pt x="750" y="0" on="1"/>
        <pt x="750" y="807" on="1"/>
        <pt x="512" y="555" on="1"/>
        <pt x="512" y="0" on="1"/>
        <pt x="367" y="0" on="1"/>
        <pt x="367" y="401" on="1"/>
        <pt x="199" y="223" on="1"/>
        <pt x="104" y="315" on="1"/>
        <pt x="367" y="594" on="1"/>
        <pt x="367" y="1552" on="1"/>
        <pt x="512" y="1552" on="1"/>
        <pt x="512" y="748" on="1"/>
        <pt x="750" y="1001" on="1"/>
      </contour>
    </TTGlyph>
    <TTGlyph name="uni222C" xMin="10" yMin="-494" xMax="1298" yMax="1554">
      <contour>
        <pt x="639" y="1554" on="1"/>
        <pt x="722" y="1554" on="0"/>
        <pt x="768" y="1536" on="1"/>
        <pt x="768" y="1386" on="1"/>
        <pt x="713" y="1411" on="0"/>
        <pt x="653" y="1411" on="1"/>
        <pt x="483" y="1411" on="0"/>
        <pt x="483" y="1178" on="1"/>
        <pt x="483" y="-129" on="1"/>
        <pt x="483" y="-309" on="0"/>
        <pt x="315" y="-494" on="0"/>
        <pt x="150" y="-494" on="1"/>
        <pt x="71" y="-494" on="0"/>
        <pt x="10" y="-473" on="1"/>
        <pt x="10" y="-326" on="1"/>
        <pt x="71" y="-350" on="0"/>
        <pt x="133" y="-350" on="1"/>
        <pt x="309" y="-350" on="0"/>
        <pt x="309" y="-117" on="1"/>
        <pt x="309" y="1190" on="1"/>
        <pt x="309" y="1554" on="0"/>
      </contour>
      <contour>
        <pt x="1169" y="1554" on="1"/>
        <pt x="1252" y="1554" on="0"/>
        <pt x="1298" y="1536" on="1"/>
        <pt x="1298" y="1386" on="1"/>
        <pt x="1246" y="1411" on="0"/>
        <pt x="1184" y="1411" on="1"/>
        <pt x="1014" y="1411" on="0"/>
        <pt x="1014" y="1178" on="1"/>
        <pt x="1014" y="-129" on="1"/>
        <pt x="1014" y="-309" on="0"/>
        <pt x="846" y="-494" on="0"/>
        <pt x="680" y="-494" on="1"/>
        <pt x="602" y="-494" on="0"/>
        <pt x="541" y="-473" on="1"/>
        <pt x="541" y="-326" on="1"/>
        <pt x="602" y="-350" on="0"/>
        <pt x="664" y="-350" on="1"/>
        <pt x="840" y="-350" on="0"/>
        <pt x="840" y="-117" on="1"/>
        <pt x="840" y="1190" on="1"/>
        <pt x="840" y="1554" on="0"/>
      </contour>
    </TTGlyph>
    <TTGlyph name="uni222D" xMin="10" yMin="-492" xMax="1829" yMax="1556">
      <contour>
        <pt x="639" y="1556" on="1"/>
        <pt x="722" y="1556" on="0"/>
        <pt x="768" y="1538" on="1"/>
        <pt x="768" y="1389" on="1"/>
        <pt x="709" y="1413" on="0"/>
        <pt x="653" y="1413" on="1"/>
        <pt x="483" y="1413" on="0"/>
        <pt x="483" y="1180" on="1"/>
        <pt x="483" y="-127" on="1"/>
        <pt x="483" y="-307" on="0"/>
        <pt x="315" y="-492" on="0"/>
        <pt x="150" y="-492" on="1"/>
        <pt x="71" y="-492" on="0"/>
        <pt x="10" y="-471" on="1"/>
        <pt x="10" y="-324" on="1"/>
        <pt x="71" y="-348" on="0"/>
        <pt x="133" y="-348" on="1"/>
        <pt x="309" y="-348" on="0"/>
        <pt x="309" y="-115" on="1"/>
        <pt x="309" y="1192" on="1"/>
        <pt x="309" y="1556" on="0"/>
      </contour>
      <contour>
        <pt x="1169" y="1556" on="1"/>
        <pt x="1252" y="1556" on="0"/>
        <pt x="1298" y="1538" on="1"/>
        <pt x="1298" y="1389" on="1"/>
        <pt x="1242" y="1413" on="0"/>
        <pt x="1184" y="1413" on="1"/>
        <pt x="1014" y="1413" on="0"/>
        <pt x="1014" y="1180" on="1"/>
        <pt x="1014" y="-127" on="1"/>
        <pt x="1014" y="-307" on="0"/>
        <pt x="846" y="-492" on="0"/>
        <pt x="680" y="-492" on="1"/>
        <pt x="602" y="-492" on="0"/>
        <pt x="541" y="-471" on="1"/>
        <pt x="541" y="-324" on="1"/>
        <pt x="602" y="-348" on="0"/>
        <pt x="664" y="-348" on="1"/>
        <pt x="840" y="-348" on="0"/>
        <pt x="840" y="-115" on="1"/>
        <pt x="840" y="1192" on="1"/>
        <pt x="840" y="1556" on="0"/>
      </contour>
      <contour>
        <pt x="1700" y="1556" on="1"/>
        <pt x="1783" y="1556" on="0"/>
        <pt x="1829" y="1538" on="1"/>
        <pt x="1829" y="1389" on="1"/>
        <pt x="1770" y="1413" on="0"/>
        <pt x="1714" y="1413" on="1"/>
        <pt x="1544" y="1413" on="0"/>
        <pt x="1544" y="1180" on="1"/>
        <pt x="1544" y="-127" on="1"/>
        <pt x="1544" y="-307" on="0"/>
        <pt x="1376" y="-492" on="0"/>
        <pt x="1210" y="-492" on="1"/>
        <pt x="1132" y="-492" on="0"/>
        <pt x="1071" y="-471" on="1"/>
        <pt x="1071" y="-324" on="1"/>
        <pt x="1132" y="-348" on="0"/>
        <pt x="1194" y="-348" on="1"/>
        <pt x="1370" y="-348" on="0"/>
        <pt x="1370" y="-115" on="1"/>
        <pt x="1370" y="1192" on="1"/>
        <pt x="1370" y="1556" on="0"/>
      </contour>
    </TTGlyph>
    <TTGlyph name="uni222E" xMin="104" yMin="-492" xMax="1012" yMax="1556">
      <contour>
        <pt x="104" y="551" on="1"/>
        <pt x="104" y="700" on="0"/>
        <pt x="307" y="910" on="0"/>
        <pt x="471" y="936" on="1"/>
        <pt x="471" y="1192" on="1"/>
        <pt x="471" y="1556" on="0"/>
        <pt x="801" y="1556" on="1"/>
        <pt x="884" y="1556" on="0"/>
        <pt x="930" y="1538" on="1"/>
        <pt x="930" y="1389" on="1"/>
        <pt x="871" y="1413" on="0"/>
        <pt x="815" y="1413" on="1"/>
        <pt x="645" y="1413" on="0"/>
        <pt x="645" y="1180" on="1"/>
        <pt x="645" y="936" on="1"/>
        <pt x="810" y="910" on="0"/>
        <pt x="1012" y="698" on="0"/>
        <pt x="1012" y="551" on="1"/>
        <pt x="1012" y="402" on="0"/>
        <pt x="809" y="192" on="0"/>
        <pt x="645" y="166" on="1"/>
        <pt x="645" y="-127" on="1"/>
        <pt x="645" y="-307" on="0"/>
        <pt x="477" y="-492" on="0"/>
        <pt x="311" y="-492" on="1"/>
        <pt x="233" y="-492" on="0"/>
        <pt x="172" y="-471" on="1"/>
        <pt x="172" y="-324" on="1"/>
        <pt x="233" y="-348" on="0"/>
        <pt x="295" y="-348" on="1"/>
        <pt x="471" y="-348" on="0"/>
        <pt x="471" y="-115" on="1"/>
        <pt x="471" y="166" on="1"/>
        <pt x="304" y="192" on="0"/>
        <pt x="104" y="404" on="0"/>
      </contour>
      <contour>
        <pt x="250" y="551" on="1"/>
        <pt x="250" y="458" on="0"/>
        <pt x="370" y="322" on="0"/>
        <pt x="471" y="303" on="1"/>
        <pt x="471" y="799" on="1"/>
        <pt x="368" y="779" on="0"/>
        <pt x="250" y="642" on="0"/>
      </contour>
      <contour>
        <pt x="866" y="551" on="1"/>
        <pt x="866" y="643" on="0"/>
        <pt x="746" y="780" on="0"/>
        <pt x="645" y="799" on="1"/>
        <pt x="645" y="303" on="1"/>
        <pt x="745" y="323" on="0"/>
        <pt x="866" y="457" on="0"/>
      </contour>
    </TTGlyph>
    <TTGlyph name="uni222F" xMin="104" yMin="-492" xMax="1579" yMax="1556">
      <contour>
        <pt x="104" y="551" on="1"/>
        <pt x="104" y="685" on="0"/>
        <pt x="297" y="874" on="0"/>
        <pt x="489" y="924" on="1"/>
        <pt x="489" y="1192" on="1"/>
        <pt x="489" y="1556" on="0"/>
        <pt x="819" y="1556" on="1"/>
        <pt x="902" y="1556" on="0"/>
        <pt x="948" y="1538" on="1"/>
        <pt x="948" y="1389" on="1"/>
        <pt x="892" y="1413" on="0"/>
        <pt x="834" y="1413" on="1"/>
        <pt x="664" y="1413" on="0"/>
        <pt x="664" y="1180" on="1"/>
        <pt x="664" y="954" on="1"/>
        <pt x="740" y="963" on="0"/>
        <pt x="842" y="963" on="1"/>
        <pt x="943" y="963" on="0"/>
        <pt x="1020" y="954" on="1"/>
        <pt x="1020" y="1192" on="1"/>
        <pt x="1020" y="1556" on="0"/>
        <pt x="1350" y="1556" on="1"/>
        <pt x="1433" y="1556" on="0"/>
        <pt x="1479" y="1538" on="1"/>
        <pt x="1479" y="1389" on="1"/>
        <pt x="1420" y="1413" on="0"/>
        <pt x="1364" y="1413" on="1"/>
        <pt x="1194" y="1413" on="0"/>
        <pt x="1194" y="1180" on="1"/>
        <pt x="1194" y="924" on="1"/>
        <pt x="1387" y="873" on="0"/>
        <pt x="1579" y="684" on="0"/>
        <pt x="1579" y="551" on="1"/>
        <pt x="1579" y="416" on="0"/>
        <pt x="1384" y="226" on="0"/>
        <pt x="1194" y="178" on="1"/>
        <pt x="1194" y="-127" on="1"/>
        <pt x="1194" y="-307" on="0"/>
        <pt x="1026" y="-492" on="0"/>
        <pt x="860" y="-492" on="1"/>
        <pt x="782" y="-492" on="0"/>
        <pt x="721" y="-471" on="1"/>
        <pt x="721" y="-324" on="1"/>
        <pt x="782" y="-348" on="0"/>
        <pt x="844" y="-348" on="1"/>
        <pt x="1020" y="-348" on="0"/>
        <pt x="1020" y="-115" on="1"/>
        <pt x="1020" y="150" on="1"/>
        <pt x="943" y="141" on="0"/>
        <pt x="842" y="141" on="1"/>
        <pt x="740" y="141" on="0"/>
        <pt x="664" y="150" on="1"/>
        <pt x="664" y="-127" on="1"/>
        <pt x="664" y="-305" on="0"/>
        <pt x="496" y="-492" on="0"/>
        <pt x="330" y="-492" on="1"/>
        <pt x="251" y="-492" on="0"/>
        <pt x="190" y="-471" on="1"/>
        <pt x="190" y="-324" on="1"/>
        <pt x="251" y="-348" on="0"/>
        <pt x="313" y="-348" on="1"/>
        <pt x="489" y="-348" on="0"/>
        <pt x="489" y="-115" on="1"/>
        <pt x="489" y="178" on="1"/>
        <pt x="301" y="224" on="0"/>
        <pt x="104" y="414" on="0"/>
      </contour>
      <contour>
        <pt x="842" y="829" on="1"/>
        <pt x="760" y="829" on="0"/>
        <pt x="664" y="817" on="1"/>
        <pt x="664" y="285" on="1"/>
        <pt x="752" y="274" on="0"/>
        <pt x="842" y="274" on="1"/>
        <pt x="928" y="274" on="0"/>
        <pt x="1020" y="285" on="1"/>
        <pt x="1020" y="817" on="1"/>
        <pt x="919" y="829" on="0"/>
      </contour>
      <contour>
        <pt x="250" y="551" on="1"/>
        <pt x="250" y="388" on="0"/>
        <pt x="489" y="317" on="1"/>
        <pt x="489" y="784" on="1"/>
        <pt x="374" y="750" on="0"/>
        <pt x="250" y="632" on="0"/>
      </contour>
      <contour>
        <pt x="1434" y="551" on="1"/>
        <pt x="1434" y="630" on="0"/>
        <pt x="1308" y="757" on="0"/>
        <pt x="1194" y="784" on="1"/>
        <pt x="1194" y="317" on="1"/>
        <pt x="1301" y="342" on="0"/>
        <pt x="1434" y="470" on="0"/>
      </contour>
    </TTGlyph>
</ttFont>
